<svg height="300px" width="300px" fill="#000000" xmlns="http://www.w3.org/2000/svg" xmlns:xlink="http://www.w3.org/1999/xlink" version="1.1" x="0px" y="0px" viewBox="0 0 32 32" enable-background="new 0 0 32 32" xml:space="preserve"><g><g><path d="M30,4.5h-1h-0.5V2c0-0.276-0.224-0.5-0.5-0.5S27.5,1.724,27.5,2v2.5h-1V2c0-0.276-0.224-0.5-0.5-0.5S25.5,1.724,25.5,2    v2.5H25h-1c-0.276,0-0.5,0.224-0.5,0.5s0.224,0.5,0.5,0.5h0.5V8c0,0.132,0.053,0.26,0.146,0.354l1,1    C25.74,9.447,25.867,9.5,26,9.5h0.5V22c0,0.827-0.673,1.5-1.5,1.5s-1.5-0.673-1.5-1.5v-4c0-1.378-1.122-2.5-2.5-2.5h-0.5V5    c0-0.276-0.224-0.5-0.5-0.5H4C3.724,4.5,3.5,4.724,3.5,5v20v2.5H2c-0.276,0-0.5,0.224-0.5,0.5v2c0,0.276,0.224,0.5,0.5,0.5h20    c0.276,0,0.5-0.224,0.5-0.5v-2c0-0.276-0.224-0.5-0.5-0.5h-1.5V25v-8.5H21c0.827,0,1.5,0.673,1.5,1.5v4c0,1.379,1.122,2.5,2.5,2.5    s2.5-1.121,2.5-2.5V9.5H28c0.133,0,0.26-0.053,0.354-0.146l1-1C29.447,8.259,29.5,8.132,29.5,8V5.5H30c0.276,0,0.5-0.224,0.5-0.5    S30.276,4.5,30,4.5z M19.5,5.5v19h-15v-19H19.5z M21.5,29.5h-19v-1H4h16h1.5V29.5z M4.5,27.5v-2h15v2H4.5z M28.5,7.792L27.792,8.5    h-1.585L25.5,7.792V5.5h3V7.792z"/><path d="M14.321,12.318l-1.916-1.074l0.343-1.969c0.04-0.229-0.083-0.455-0.296-0.545c-0.213-0.093-0.461-0.025-0.599,0.163    l-2.333,3.161c-0.085,0.116-0.117,0.263-0.086,0.403c0.03,0.141,0.12,0.261,0.246,0.331l1.857,1.027l-0.412,1.889    c-0.05,0.227,0.063,0.457,0.272,0.558c0.069,0.033,0.143,0.049,0.216,0.049c0.147,0,0.292-0.065,0.389-0.186l2.463-3.056    c0.092-0.115,0.13-0.264,0.102-0.409C14.54,12.515,14.45,12.39,14.321,12.318z M12.554,13.847l0.04-0.183    c0.047-0.216-0.053-0.437-0.246-0.544l-1.684-0.931l0.736-0.997l-0.04,0.23c-0.036,0.209,0.063,0.418,0.249,0.522l1.708,0.958    L12.554,13.847z"/><path d="M7,18.5h10c0.276,0,0.5-0.224,0.5-0.5V7c0-0.276-0.224-0.5-0.5-0.5H7C6.724,6.5,6.5,6.724,6.5,7v11    C6.5,18.276,6.724,18.5,7,18.5z M7.5,7.5h9v10h-9V7.5z"/><circle cx="27" cy="7" r="1"/></g></g></svg>