<?xml version="1.0" encoding="utf-8"?>
<!-- Generator: Adobe Illustrator 19.0.0, SVG Export Plug-In . SVG Version: 6.00 Build 0)  -->
<svg version="1.1" id="Layer_1" xmlns="http://www.w3.org/2000/svg" xmlns:xlink="http://www.w3.org/1999/xlink" x="0px" y="0px"
	 viewBox="0 0 225 220" style="enable-background:new 0 0 225 220;" xml:space="preserve">
<style type="text/css">
	.st0{fill:#8ECF4F;}
	.st1{fill:#1E211C;}
	.st2{fill:#1E201C;}
	.st3{fill:#1D1F1B;}
	.st4{fill:#1F211C;}
	.st5{fill:#87C54C;}
	.st6{fill:#82BD49;}
	.st7{fill:#8AC94C;}
	.st8{fill:#88C64C;}
	.st9{fill:#85C14A;}
	.st10{fill:#85C24A;}
</style>
<g>
	<g>
		<path class="st0" d="M11,111.7c0-21-0.3-42,0.1-62.9c0.4-17.6,17.5-34.5,35-34.7c41.5-0.3,82.9-0.3,124.4-0.1
			c17.8,0.1,35,17.1,35.3,35c0.4,26.3,0.2,52.6,0.2,78.9c0,13.2-0.5,26.3,0.1,39.5c1.1,23.5-15.8,42.2-41.5,42.3
			c-37.8,0.1-75.6,0.2-113.4,0c-20.1-0.1-34-11.1-39.6-30.2c-1.2-4.2-0.7-8.6-1-12.9c0-0.2,0-0.3,0-0.5c0-18.2,0-36.3,0-54.5
			C10.8,111.7,10.9,111.7,11,111.7z M178.1,104.8c0-10.3-0.2-20.6,0.1-31c0.1-3.4-1.2-4.9-4.1-6.3c-13.9-6.3-27.8-12.8-41.6-19.4
			c-2.7-1.3-4.3-1.6-5.7,1.7c-1.3,3-0.8,4.3,2.2,5.6C141,61,153,66.8,165.1,72.3c2.9,1.3,4.3,2.8,4.2,6.3c-0.2,19-0.1,37.9-0.1,56.9
			c0,2.5-0.5,4.2-2.5,6c-4.6,4.2-4.4,10.4-0.2,14.6c4.1,4.1,10.8,4,14.7-0.2c4.1-4.3,4-10.6-0.6-14.6c-2.2-1.9-2.6-3.9-2.6-6.5
			C178.1,124.8,178.1,114.8,178.1,104.8z M40.2,103.8c0,7.7,0.1,15.3-0.1,23c-0.1,3.3,0.6,4.7,4.3,4.8c3.9,0.1,3.8-2,3.8-4.7
			c-0.1-13.3,0.1-26.7-0.1-40c0-3.2,0.8-5.2,3.7-6.9c16.1-9.8,32-19.7,48-29.7c1.8-1.1,3.3-1.6,5.6-0.9c6.2,1.7,11.9-1.8,13.3-7.9
			c1.2-5.1-2.5-10.7-8-12.1c-5.5-1.4-11.5,2.5-12.4,8.7c-0.4,2.7-1.7,4-3.8,5.3c-17,10.5-34,21.1-51,31.5c-2.5,1.5-3.4,3.1-3.3,6
			C40.3,88.5,40.2,96.2,40.2,103.8z M40.3,157.8c-0.1,5.4,5,10.7,10.7,10.2c3.9-0.4,7,0.6,10.3,2.4c16.7,9.3,33.5,18.5,50.2,27.9
			c2.3,1.3,3.9,1.5,6.3,0.2c13.6-7.5,27.2-14.8,40.9-22c2.9-1.5,3.9-2.7,2.1-6c-1.8-3.3-3.5-2.6-5.9-1.2
			c-11.5,6.3-23.2,12.4-34.7,18.8c-3.3,1.8-5.8,1.9-9.1,0c-15.5-8.8-31.1-17.4-46.7-25.9c-2.3-1.3-3.3-2.6-3.4-5.3
			c-0.2-5.3-5.2-9.6-10.4-9.5C45.4,147.5,40.4,152.6,40.3,157.8z M108.5,168.1c3.6,0.8,4.3-1.2,4-4.2c-0.3-3.1,0.2-5.5,3-7.8
			c4.5-3.7,4.7-9.3,0.7-13.8c-2.2-2.5-2.5-4.5-1.5-7.5c4.1-13.2,7.8-26.4,11.9-39.6c1-3.2-0.1-4.3-3-5.3c-3-1-3.9-0.1-4.8,2.8
			c-4,13.9-8.2,27.7-12.3,41.5c-0.8,2.6-1.9,4.6-4.3,6.4c-5.4,4-6,10.7-1.1,15.1c2.8,2.5,3.4,5.1,3.1,8.3
			C103.9,167.4,105.1,168.8,108.5,168.1z M93.9,96.7c-0.1-2.8-0.9-5.7-3-7.1c-3.5-2.3-4.1-5.3-3.6-9c0.4-3.2-1.1-3.9-4-3.9
			c-2.9,0-4.5,0.7-4,3.9c0.6,3.9-0.7,6.7-3.7,9.6c-3.5,3.3-3.6,7.8-0.7,11.9c2.7,3.9,6.5,5.7,11.2,4.6
			C90.2,105.6,93.8,101,93.9,96.7z M139.1,76.8c-4.1,0-4.2,0-4.2,3.5c0,3.7-0.3,6.7-3.7,9.5c-4.4,3.6-3.7,10.2,0.4,14.2
			c4.2,4,10.3,3.9,14.4-0.1c4-4,4.4-10.6,0.1-14.3c-3.1-2.6-3.6-5.3-3.3-8.7C143.2,77.7,142,76.2,139.1,76.8z"/>
		<path class="st1" d="M178.1,104.8c0,10,0,20,0,30c0,2.6,0.3,4.6,2.6,6.5c4.7,4.1,4.7,10.3,0.6,14.6c-4,4.2-10.6,4.3-14.7,0.2
			c-4.2-4.2-4.3-10.5,0.2-14.6c2-1.8,2.5-3.6,2.5-6c-0.1-19-0.1-37.9,0.1-56.9c0-3.5-1.3-4.9-4.2-6.3C153,66.8,141,61,128.9,55.6
			c-3-1.3-3.4-2.6-2.2-5.6c1.4-3.3,3-3,5.7-1.7c13.8,6.6,27.7,13.1,41.6,19.4c3,1.3,4.2,2.9,4.1,6.3
			C177.9,84.2,178.1,94.5,178.1,104.8z M174,152c1.9-0.3,2.9-1.5,2.8-3.4c-0.1-1.5-1-2.9-2.8-2.8c-1.9,0-3.1,1.1-3.1,3.1
			C170.9,150.8,171.9,151.9,174,152z"/>
		<path class="st2" d="M40.2,103.8c0-7.7,0.1-15.3-0.1-23c-0.1-2.9,0.8-4.5,3.3-6c17.1-10.4,34-21,51-31.5c2.1-1.3,3.4-2.5,3.8-5.3
			c0.9-6.2,6.9-10,12.4-8.7c5.5,1.4,9.2,6.9,8,12.1c-1.4,6.1-7.1,9.6-13.3,7.9c-2.2-0.6-3.8-0.2-5.6,0.9c-16,9.9-31.9,19.9-48,29.7
			c-2.8,1.7-3.7,3.7-3.7,6.9c0.1,13.3,0,26.7,0.1,40c0,2.7,0.2,4.8-3.8,4.7c-3.7-0.1-4.4-1.5-4.3-4.8
			C40.3,119.2,40.2,111.5,40.2,103.8z M111.3,39.1c0.2-1.3-1-2.4-2.8-2.7c-1.9-0.3-3.1,1.2-3.2,2.9c-0.2,1.8,0.9,3.2,2.8,3.4
			C109.9,42.9,111.1,41.8,111.3,39.1z"/>
		<path class="st3" d="M40.3,157.8c0.1-5.3,5.1-10.3,10.3-10.4c5.1-0.1,10.2,4.2,10.4,9.5c0.1,2.7,1.1,4.1,3.4,5.3
			c15.6,8.5,31.2,17.1,46.7,25.9c3.3,1.9,5.8,1.8,9.1,0c11.5-6.4,23.1-12.5,34.7-18.8c2.5-1.3,4.1-2.1,5.9,1.2
			c1.8,3.3,0.8,4.5-2.1,6c-13.7,7.2-27.3,14.5-40.9,22c-2.4,1.3-4,1.1-6.3-0.2C94.8,189,78,179.8,61.3,170.5
			c-3.3-1.8-6.4-2.8-10.3-2.4C45.3,168.6,40.2,163.3,40.3,157.8z M53.8,158c-0.4-1.7-1-3.2-3-3.2c-2,0-3,1.3-2.9,3.2
			c0,1.7,0.9,2.9,2.6,3C52.5,161.1,53.4,159.9,53.8,158z"/>
		<path class="st2" d="M108.5,168.1c-3.4,0.7-4.6-0.7-4.3-4c0.3-3.2-0.3-5.8-3.1-8.3c-4.9-4.4-4.3-11.1,1.1-15.1
			c2.3-1.7,3.5-3.8,4.3-6.4c4.1-13.9,8.3-27.7,12.3-41.5c0.8-2.9,1.8-3.7,4.8-2.8c2.9,0.9,4,2,3,5.3c-4.1,13.2-7.8,26.4-11.9,39.6
			c-0.9,3-0.7,5,1.5,7.5c4,4.4,3.8,10-0.7,13.8c-2.8,2.3-3.3,4.7-3,7.8C112.8,166.9,112.1,168.9,108.5,168.1z M111.3,148.8
			c-0.1-1.8-1-2.9-3-3c-2.1,0-2.9,1.5-2.9,3.2c0,1.6,1,2.8,2.8,2.9C110.2,152,111.1,150.9,111.3,148.8z"/>
		<path class="st4" d="M93.9,96.7c-0.1,4.2-3.7,8.9-7.9,9.9c-4.8,1.2-8.5-0.7-11.2-4.6c-2.8-4.1-2.7-8.5,0.7-11.9
			c3-2.8,4.3-5.7,3.7-9.6c-0.5-3.2,1.1-3.9,4-3.9c2.9,0,4.4,0.7,4,3.9c-0.5,3.6,0.1,6.6,3.6,9C93,91.1,93.8,94,93.9,96.7z
			 M83.3,99.7c1.8-0.5,3-1.3,2.9-3.4c-0.1-2.1-1.4-3-3.1-3c-1.9,0-3,1.5-2.9,3.3C80.3,98.5,81.5,99.6,83.3,99.7z"/>
		<path class="st2" d="M139.1,76.8c2.9-0.6,4.2,0.8,3.8,4.1c-0.4,3.4,0.2,6.1,3.3,8.7c4.3,3.6,3.9,10.3-0.1,14.3
			c-4,4-10.2,4.1-14.4,0.1c-4.2-3.9-4.8-10.6-0.4-14.2c3.4-2.8,3.7-5.8,3.7-9.5C134.9,76.9,135,76.9,139.1,76.8z M141.8,96.7
			c-0.1-1.9-1-3.3-2.9-3.3c-1.8,0-3,1.1-3.1,3c-0.1,2,1.1,3.2,2.9,3.3C140.5,99.9,141.5,98.5,141.8,96.7z"/>
		<path class="st5" d="M174,152c-2.1-0.1-3.1-1.2-3.1-3.1c0-2,1.1-3.1,3.1-3.1c1.8,0,2.7,1.3,2.8,2.8
			C176.9,150.5,175.9,151.7,174,152z"/>
		<path class="st6" d="M111.3,39.1c-0.2,2.7-1.4,3.8-3.2,3.6c-1.8-0.2-3-1.6-2.8-3.4c0.2-1.8,1.3-3.2,3.2-2.9
			C110.3,36.7,111.4,37.8,111.3,39.1z"/>
		<path class="st7" d="M53.8,158c-0.4,1.9-1.3,3.1-3.3,3c-1.8-0.1-2.6-1.3-2.6-3c0-1.9,0.9-3.2,2.9-3.2
			C52.9,154.8,53.5,156.4,53.8,158z"/>
		<path class="st8" d="M111.3,148.8c-0.2,2.1-1.1,3.2-3.1,3.1c-1.7-0.1-2.8-1.3-2.8-2.9c0-1.7,0.8-3.2,2.9-3.2
			C110.3,145.9,111.2,147.1,111.3,148.8z"/>
		<path class="st9" d="M83.3,99.7c-1.8-0.2-3-1.3-3.1-3.1c-0.1-1.8,1-3.3,2.9-3.3c1.7,0,3,0.9,3.1,3C86.3,98.4,85.1,99.3,83.3,99.7z
			"/>
		<path class="st10" d="M141.8,96.7c-0.3,1.8-1.3,3.2-3.2,3c-1.7-0.2-3-1.3-2.9-3.3c0.1-2,1.4-3.1,3.1-3
			C140.8,93.4,141.7,94.8,141.8,96.7z"/>
	</g>
</g>
</svg>
