<?xml version="1.0" encoding="utf-8"?>
<!-- Generator: Adobe Illustrator 19.0.0, SVG Export Plug-In . SVG Version: 6.00 Build 0)  -->
<svg version="1.1" id="Layer_1" xmlns="http://www.w3.org/2000/svg" xmlns:xlink="http://www.w3.org/1999/xlink" x="0px" y="0px"
	 viewBox="0 0 154.5 156" style="enable-background:new 0 0 154.5 156;" xml:space="preserve">
<style type="text/css">
	.st0{fill:#F8C611;}
	.st1{fill:#1A1A1A;}
	.st2{fill:#1C1B1A;}
	.st3{fill:#1E1D1A;}
	.st4{fill:#2B2E18;}
	.st5{fill:#282519;}
	.st6{fill:#2B3418;}
	.st7{fill:#E0A712;}
	.st8{fill:#F4BD11;}
</style>
<g>
	<g>
		<path class="st0" d="M150,78c0,15.6,0.2,31.2-0.1,46.8c-0.2,12.5-12.2,24.7-24.7,26c-4.6,0.5-9.2,0.6-13.8,0.6
			c-25.4,0-50.7,0.1-76.1,0c-8.1,0-15.7-1.9-22-7.6C7.6,138.4,3.8,132,3.8,124c-0.1-31-0.2-62,0-93c0.1-13.2,12.5-26,25.7-26.5
			c23.6-1,47.2-0.2,70.8-0.4c8,0,16-0.2,24,0.3c13,0.8,25.5,13,25.7,26C150.3,46.3,150.1,62.1,150,78z M76.9,84.2c15,0,30-0.1,45,0
			c2.8,0,3.6-0.9,3.6-3.7c0-2.8-1-3.6-3.7-3.6c-12.2,0.1-24.5-0.1-36.7,0.1c-3.6,0.1-4.9-0.6-4.8-4.6c0.3-13,0.1-26,0.1-39
			c0-2.4-0.1-4-3.3-4c-3.1,0-3.7,1.2-3.7,4c0.1,13.1,0,26.2,0.1,39.3c0,3.2-0.6,4.3-4,4.2c-12.4-0.2-24.7-0.1-37.1-0.1
			c-2.6,0-4.1,0.3-4.1,3.6c0,3.2,1.3,3.7,4,3.7C47.2,84.2,62,84.2,76.9,84.2z M76.8,96c8.7,0,17.5-0.1,26.2,0.1
			c2.8,0,3.3-1.3,3.3-3.7c0-2.5-1-3.2-3.4-3.2c-17.4,0.1-34.7,0.1-52.1,0c-2.6,0-3.5,0.9-3.5,3.5c0,2.7,1,3.4,3.6,3.4
			C59.6,95.9,68.2,96,76.8,96z M76.9,105c3.9,0,7.7-0.1,11.6,0c2.1,0.1,3.2-0.4,3.1-2.9C91.5,100,91,99,88.6,99
			c-7.8,0.1-15.7,0.1-23.5,0c-2.4,0-2.9,1-3,3.2c-0.1,2.4,1,2.9,3.1,2.9C69.2,105,73,105,76.9,105z M101.6,58
			c0.4,2.1-1.5,5.6,3.5,5.2c4-0.4,4.4-0.6,3.7-4.8c-0.1-0.5,0.2-1.2,0.3-1.7c0.8-2.4-0.5-3.5-2.6-4C102.3,51.6,101.6,52.3,101.6,58z
			 M76.8,113.9c0.8,0,1.3,0,1.8,0c1.7,0,3.2,0.1,3.3-2.4c0.1-2.6-1.3-2.8-3.3-2.8c-1.5,0.1-3,0-4.5,0c-1.6,0-2.1,0.9-2.1,2.4
			C71.9,115.5,75.2,113.3,76.8,113.9z M114.7,54.1c-1.1,1.2-0.8,3-3,3.1c-1.2,0-1,1.3,0.2,1.6c1.1,0.3,1.7,0.7,1.9,1.9
			c0.2,0.9,1.5,1.1,1.4,0.3c-0.2-2.4,2.3-1.8,3.5-3.9C115.9,57.8,115.3,56.1,114.7,54.1z"/>
		<path class="st1" d="M76.9,84.2c-14.9,0-29.7-0.1-44.6,0c-2.7,0-4-0.5-4-3.7c0-3.3,1.5-3.6,4.1-3.6c12.4,0.1,24.7-0.1,37.1,0.1
			c3.4,0.1,4.1-1,4-4.2c-0.2-13.1,0-26.2-0.1-39.3c0-2.8,0.5-4.1,3.7-4c3.2,0,3.3,1.6,3.3,4c-0.1,13,0.2,26-0.1,39
			c-0.1,4,1.2,4.7,4.8,4.6c12.2-0.2,24.5,0,36.7-0.1c2.7,0,3.7,0.7,3.7,3.6c0,2.8-0.8,3.7-3.6,3.7C106.9,84.2,91.9,84.2,76.9,84.2z"
			/>
		<path class="st2" d="M76.8,96c-8.6,0-17.2-0.1-25.9,0c-2.6,0-3.6-0.7-3.6-3.4c0-2.6,0.8-3.5,3.5-3.5c17.4,0.1,34.7,0.1,52.1,0
			c2.4,0,3.4,0.7,3.4,3.2c0,2.4-0.5,3.7-3.3,3.7C94.3,95.9,85.6,96,76.8,96z"/>
		<path class="st3" d="M76.9,105c-3.9,0-7.7-0.1-11.6,0c-2.1,0.1-3.2-0.4-3.1-2.9c0.1-2.1,0.6-3.2,3-3.2c7.8,0.1,15.7,0.1,23.5,0
			c2.4,0,2.9,1,2.9,3.2c0.1,2.4-1,2.9-3.1,2.9C84.6,104.9,80.7,105,76.9,105z"/>
		<path class="st4" d="M101.6,58c0-5.7,0.7-6.4,5-5.4c2.1,0.5,3.4,1.6,2.6,4c-0.2,0.6-0.4,1.2-0.3,1.7c0.7,4.2,0.3,4.4-3.7,4.8
			C100,63.6,101.9,60.1,101.6,58z M107.1,59.9c-0.3-0.9-1.1-0.7-1.8-0.8c-0.7,0-1.2,0.3-1.1,1.1c0.1,0.9,0.7,1.2,1.6,1.1
			C106.4,61.1,107.1,60.9,107.1,59.9z M105.5,54.7c-0.9-0.1-1.4,0.2-1.4,1.1c0,0.7,0.3,1.1,1.1,1.1c0.8,0,1.5-0.1,1.7-1
			C107,55.1,106.3,54.8,105.5,54.7z"/>
		<path class="st5" d="M76.8,113.9c-1.6-0.6-4.9,1.6-4.8-2.7c0-1.5,0.5-2.4,2.1-2.4c1.5,0,3,0.1,4.5,0c2-0.1,3.3,0.2,3.3,2.8
			c-0.1,2.5-1.6,2.4-3.3,2.4C78.1,113.9,77.6,113.9,76.8,113.9z"/>
		<path class="st6" d="M114.7,54.1c0.6,2,1.2,3.7,4.1,3c-1.2,2.1-3.7,1.5-3.5,3.9c0.1,0.8-1.3,0.6-1.4-0.3c-0.2-1.2-0.8-1.6-1.9-1.9
			c-1.2-0.3-1.4-1.5-0.2-1.6C113.9,57.1,113.6,55.3,114.7,54.1z"/>
		<path class="st7" d="M107.1,59.9c0,1-0.7,1.3-1.4,1.4c-0.8,0.1-1.5-0.2-1.6-1.1c-0.1-0.7,0.5-1.1,1.1-1.1
			C105.9,59.1,106.7,59,107.1,59.9z"/>
		<path class="st8" d="M105.5,54.7c0.8,0.1,1.5,0.4,1.3,1.3c-0.1,0.9-0.9,1-1.7,1c-0.7,0-1.1-0.4-1.1-1.1
			C104.1,54.9,104.6,54.6,105.5,54.7z"/>
	</g>
</g>
</svg>
