<?xml version="1.0" encoding="utf-8"?>
<!-- Generator: Adobe Illustrator 19.0.0, SVG Export Plug-In . SVG Version: 6.00 Build 0)  -->
<svg version="1.1" id="Layer_1" xmlns="http://www.w3.org/2000/svg" xmlns:xlink="http://www.w3.org/1999/xlink" x="0px" y="0px"
	 viewBox="0 0 155.3 155.3" style="enable-background:new 0 0 155.3 155.3;" xml:space="preserve">
<style type="text/css">
	.st0{fill:#F8C610;}
	.st1{fill:#22201A;}
	.st2{fill:#23211A;}
	.st3{fill:#1D1D1A;}
	.st4{fill:#2C2F18;}
</style>
<g>
	<g>
		<path class="st0" d="M6,78.7c0-15.7-0.1-31.5,0-47.2C6.2,18.4,19.4,5.3,32.5,5.3c31-0.1,62-0.1,93,0c13.4,0.1,26.4,12.7,26.7,26.2
			c0.7,31.1,0.5,62.2,0.1,93.3c-0.2,13.2-10.7,24.3-23.4,26.8c-2.7,0.5-5.4,0.7-8.2,0.7c-28,0-56,0-84,0c-15.3,0-26.1-8.3-30.3-23
			c-0.8-2.8-0.5-5.7-0.6-8.5c-0.1-14,0-28,0-42C5.9,78.7,5.9,78.7,6,78.7z M78.9,85.9c14.9,0,29.7,0,44.6,0c2.8,0,4.3-0.5,4.3-3.9
			c0-3.3-1.6-3.6-4.2-3.6c-12.5,0.1-25,0-37.5,0.1c-2.8,0-3.6-0.7-3.6-3.6c0.2-12,0-24,0.1-36c0-2.7-0.5-4.1-3.7-4.1
			c-3.1,0-3.4,1.5-3.3,4c0.1,11.5,0.1,23,0,34.5c0,5.8,0.7,5-4.9,5.1c-12.1,0-24.2,0-36.4,0c-1.3,0-3.1-0.7-3.7,1.5
			c-1.2,3.9,0.2,5.9,4.3,5.9C49.6,86,64.2,85.9,78.9,85.9z M79.1,96.3c8.6,0,17.2-0.1,25.9,0c2.4,0,3.7-0.5,3.7-3.3
			c0-2.8-1.1-3.7-3.8-3.7c-17.1,0.1-34.2,0.1-51.4,0c-2.7,0-3.9,0.7-3.9,3.6c0,3.1,1.5,3.4,4,3.4C62.1,96.2,70.6,96.3,79.1,96.3z
			 M79.1,99.7c-3.7,0-7.5,0.1-11.2,0c-2.6-0.1-3.5,0.9-3.5,3.5c0.1,2.4,0.2,4.1,3.3,4.1c7.6-0.1,15.2-0.2,22.9,0
			c3.2,0.1,3.2-1.8,3.3-4.1c0.1-2.6-0.9-3.6-3.5-3.5C86.6,99.9,82.9,99.7,79.1,99.7z M104.6,55.8c0,5.6,0.2,5.9,4.7,5.2
			c2.7-0.4,4.4-1.6,2.7-4.5c-0.5-0.9,0-1.4,0.2-2c0.7-2.1-0.2-3.3-2.2-3.9C105.4,49.4,104.6,50.2,104.6,55.8z M79.2,110.2
			c0,0,0,0.1,0,0.1c-0.7,0-1.5,0-2.2,0c-1.8-0.1-2.8,0.4-2.8,2.4c0,2.2,1,2.8,3,2.7c1.6-0.1,3.2,0,4.8,0c1.1,0,2-0.4,2-1.7
			c0-1.1,0.5-2.5-0.7-3C82,110.3,80.6,110.4,79.2,110.2z M115.9,57.8c0.5-0.3,1.7,0.4,1.8-1c0.1-1.2-1-1.1-1.8-1.1
			c-0.8,0-1.9-0.3-2,1C113.8,58,114.9,57.7,115.9,57.8z"/>
		<path class="st1" d="M78.9,85.9c-14.6,0-29.2,0-43.8,0c-4.1,0-5.5-1.9-4.3-5.9c0.6-2.2,2.4-1.5,3.7-1.5c12.1-0.1,24.2,0,36.4,0
			c5.6,0,4.9,0.7,4.9-5.1c0-11.5,0.1-23,0-34.5c0-2.4,0.2-3.9,3.3-4c3.2,0,3.7,1.3,3.7,4.1c-0.1,12,0,24-0.1,36
			c0,2.8,0.8,3.6,3.6,3.6c12.5-0.1,25,0,37.5-0.1c2.6,0,4.2,0.3,4.2,3.6c0,3.4-1.5,3.9-4.3,3.9C108.6,85.9,93.7,85.9,78.9,85.9z"/>
		<path class="st2" d="M79.1,96.3c-8.5,0-17-0.1-25.5,0c-2.5,0-4-0.3-4-3.4c0-2.9,1.2-3.6,3.9-3.6c17.1,0.1,34.2,0.1,51.4,0
			c2.7,0,3.8,0.8,3.8,3.7c0,2.8-1.3,3.3-3.7,3.3C96.4,96.2,87.7,96.3,79.1,96.3z"/>
		<path class="st3" d="M79.1,99.7c3.7,0,7.5,0.1,11.2,0c2.6-0.1,3.6,0.9,3.5,3.5c-0.1,2.3,0,4.1-3.3,4.1c-7.6-0.2-15.2-0.1-22.9,0
			c-3.1,0.1-3.2-1.7-3.3-4.1c-0.1-2.6,0.8-3.6,3.5-3.5C71.6,99.9,75.4,99.7,79.1,99.7z"/>
		<path class="st4" d="M104.6,55.8c0-5.6,0.8-6.4,5.3-5.1c2.1,0.6,2.9,1.7,2.2,3.9c-0.2,0.6-0.8,1-0.2,2c1.7,2.9,0,4.1-2.7,4.5
			C104.8,61.6,104.6,61.4,104.6,55.8z M109.9,53.8c-0.1-0.9-0.6-1.2-1.4-1.3c-0.6,0-1.2,0-1.3,0.8c-0.1,0.8,0.1,1.4,1.1,1.5
			C108.9,54.9,109.6,54.7,109.9,53.8z M108.8,59.1c0.4-0.1,1.2-0.3,1.1-1.2c-0.1-0.8-0.8-0.8-1.4-0.8c-0.8,0-1.5,0.1-1.4,1.2
			C107.2,59,107.8,59.2,108.8,59.1z"/>
		<path class="st2" d="M79.2,110.2c1.3,0.1,2.8,0,4,0.5c1.3,0.5,0.7,1.9,0.7,3c0,1.3-0.8,1.7-2,1.7c-1.6,0-3.2-0.1-4.8,0
			c-1.9,0.1-3-0.4-3-2.7c0-2.1,1-2.6,2.8-2.4c0.7,0,1.5,0,2.2,0C79.2,110.3,79.2,110.3,79.2,110.2z"/>
		<path class="st4" d="M115.9,57.8c-1-0.1-2.1,0.2-2-1.1c0.1-1.2,1.2-1,2-1c0.8,0,1.9-0.1,1.8,1.1C117.6,58.1,116.3,57.5,115.9,57.8
			z"/>
		<path class="st0" d="M109.9,53.8c-0.2,0.9-0.9,1-1.7,1c-1,0-1.2-0.7-1.1-1.5c0.1-0.8,0.7-0.8,1.3-0.8
			C109.3,52.6,109.8,53,109.9,53.8z"/>
		<path class="st0" d="M108.8,59.1c-1,0.1-1.6-0.1-1.7-0.9c-0.1-1.1,0.6-1.2,1.4-1.2c0.6,0,1.4,0,1.4,0.8
			C110,58.8,109.2,59,108.8,59.1z"/>
	</g>
</g>
</svg>
