<?xml version="1.0" encoding="utf-8"?>
<!-- Generator: Adobe Illustrator 19.0.0, SVG Export Plug-In . SVG Version: 6.00 Build 0)  -->
<svg version="1.1" id="Layer_1" xmlns="http://www.w3.org/2000/svg" xmlns:xlink="http://www.w3.org/1999/xlink" x="0px" y="0px"
	 viewBox="0 0 158.3 153" style="enable-background:new 0 0 158.3 153;" xml:space="preserve">
<style type="text/css">
	.st0{fill:#F7C510;}
	.st1{fill:#100D01;}
	.st2{fill:#191402;}
	.st3{fill:#EEBD0F;}
	.st4{fill:#F6C410;}
</style>
<g>
	<g>
		<path class="st0" d="M79.1,150c-15.9,0-31.7,0.2-47.6-0.1c-12.3-0.2-25.3-13.2-25.4-25.5C5.9,92.7,5.9,61,6.1,29.3
			C6.1,17.5,18,5.3,30,3.7C34.2,3.2,38.4,3,42.6,3c26,0,52,0,78,0c8.4,0,16.2,2.1,22.6,8.1c5.2,5,8.9,10.9,9,18.2
			c0.7,31.7,0.8,63.5,0,95.2c-0.3,12.5-13.1,25.2-25.5,25.5C110.8,150.3,94.9,150,79.1,150C79.1,150,79.1,150,79.1,150z M45.2,25.3
			c-1-4.2-1.7-7.6-2.5-11c-0.2-0.8-0.4-1.5-1.3-1.6c-1-0.1-1.3,0.7-1.5,1.4c-0.6,2-1.1,4.1-1.8,6.1c-0.4,1.1-0.1,2.8-2.1,3
			c-1.8,0.1-2.8-0.3-3.7-2C31,18.6,28.6,18,26,19.5c-2.3,1.4-2.9,4.8-1.2,6.9c1.9,2.3,4.1,2.6,6.6,0.8c0.9-0.6,1.3-2,2.7-1.7
			c4.2,0.8,6.4-1.1,7-5.5c1.1,3.3,1.8,6.4,2.5,9.5c0.2,0.8,0.3,1.9,1.3,2c1.4,0.2,1.4-1,1.7-2c1-3,1.2-6.2,3.2-9.7
			c0.8,3.6,1.4,6.5,2.2,9.4c0.2,0.9,0.2,2.2,1.5,2.3c1.4,0.1,1.3-1.3,1.6-2.1c1-3,1.2-6.3,3-9.7c0.8,3.2,1.3,5.9,2.1,8.5
			c0.4,1.2,0.1,3.3,1.7,3.4c1.8,0.1,1.6-1.9,1.9-3.2c0.8-2.7,1.6-5.4,2.4-8.2c1.3,2.7,2,5.3,2.6,8c0.3,1.3,0,3.3,1.7,3.3
			c2,0,1.5-2.2,1.9-3.5c0.8-2.5,1.2-5.1,2-8.7c1,4,1.8,6.9,2.5,9.9c0.2,0.9,0.2,2.2,1.4,2.3c1.5,0.1,1.5-1.3,1.8-2.4
			c1-3.2,2.1-6.4,3.4-10.7c1.2,4.4,2.1,7.8,2.9,11.1c0.2,0.8,0.2,1.9,1.3,2c1.3,0.1,1.5-1.1,1.8-2c1.1-3.4,2.2-6.7,3.6-11.2
			c1.1,4.5,1.8,7.9,2.7,11.3c0.2,0.8,0.3,1.9,1.5,1.9c1.1,0,1.3-0.9,1.5-1.8c1-3.2,2.1-6.4,3.5-10.7c1.2,3.6,2,6.2,2.8,8.7
			c1.5,4.7,1.6,4.8,5.4,1.4c5.1-4.6,14.9-5.4,20.8-1.8c2.4,1.5,4.7,1,6.2-1.3c1.7-2.4,1.2-4.8-1.1-6.6c-2.3-1.7-5-1.4-6.2,1
			c-1.3,2.6-3.2,2.5-5.4,2.5c-5.6,0.1-11.6-1.5-15.8,4.1c-1.1,1.4-1.6,0-1.9-0.9c-1.1-3.4-2.2-6.9-3.2-10.4c-0.3-1-0.4-2.2-1.6-2.2
			c-1.3-0.1-1.4,1.2-1.7,2.1c-1,3.1-2,6.1-3.2,9.9c-1-3.9-1.8-7.2-2.6-10.4c-0.3-1-0.1-2.5-1.5-2.7c-1.6-0.2-1.5,1.4-1.8,2.4
			c-1.1,3.1-2.1,6.2-3.1,9.3c-1.6-3.1-2.4-6.2-3.2-9.2c-0.3-1-0.1-2.5-1.7-2.5c-1.5,0-1.4,1.6-1.7,2.6c-1,3.1-2,6.2-3,9.3
			c-1.4-3.3-2.2-6.5-3-9.7C76,14,76,12.7,74.6,12.7c-1.3,0-1.3,1.4-1.5,2.3c-0.7,2.9-1.4,5.8-2.1,8.7c-1.3-2.9-2-5.8-2.7-8.7
			c-0.2-0.9-0.2-2.2-1.5-2.2c-1.3,0-1.3,1.2-1.6,2.1c-1,3.1-1.4,6.4-3.3,9.7c-0.9-3.8-1.7-6.9-2.5-10.1c-0.2-0.9-0.3-1.8-1.5-1.8
			c-1.2,0-1.3,1.1-1.5,1.9c-0.9,3.2-1.7,6.5-2.8,10.7c-0.9-3.9-1.5-6.8-2.3-9.7c-0.3-1.1,0.1-2.9-1.8-2.8c-1.4,0.1-1.3,1.6-1.6,2.6
			C47.1,18.4,46.3,21.4,45.2,25.3z M57.5,128.1c0.3,0,0.5,0.1,0.8,0.1c1.1,3.2,2.1,6.4,3.2,9.6c0.2,0.7,0.5,1.5,1.3,1.6
			c1.2,0.1,1.4-0.8,1.7-1.7c1.2-3.1,1.7-6.4,3.5-9.7c0.8,3,1.4,5.7,2.1,8.3c0.3,1.1,0,2.9,1.7,3c1.6,0.1,1.5-1.7,1.8-2.8
			c0.8-2.7,1.6-5.5,2.7-9.2c1.3,3.8,2.2,6.5,3.1,9.1c0.4,1.1,0.3,2.9,1.9,2.9c1.8,0,1.4-2.1,1.8-3.2c0.6-2.1,0.6-4.4,2-6.8
			c0.8,3.1,1.5,5.7,2.3,8.3c0.2,0.8,0.3,1.9,1.5,1.9c1.1,0,1.2-1.1,1.5-1.9c1.1-2.9,1.4-6.1,3.1-9.1c0.8,3.3,1.6,6.1,2.3,9
			c0.2,0.8,0.3,1.9,1.3,2c1.4,0.1,1.4-1.2,1.6-2.1c0.7-2.7,1.3-5.5,1.9-8.2c1.5,2.6,2.3,5.3,3.2,8c0.3,0.9,0.3,2.2,1.5,2.4
			c1.2,0.2,1.8-0.9,2.2-1.7c3.4-7.5,9.6-8.8,16.9-7.7c0.5,0.1,1,0,1.5,0c1.9-0.1,3.4,0.2,4.8,2.1c1.7,2.3,4.4,2.4,6.5,0.3
			c2.1-2,2.2-4.6,0.1-6.7c-2.1-2.1-4.8-2.2-6.6,0c-1.5,1.9-3,1.9-4.8,1.9c-2,0-4,0.2-6-0.1c-5.5-0.8-9.8,0.6-12.3,5.9
			c-0.3,0.7-0.8,1.6-2,1.6c-1.2-3.8-2.4-7.6-3.5-11.4c-0.3-0.8-0.4-1.9-1.5-1.8c-1.1,0.1-1.2,1.1-1.4,2c-0.7,2.7-0.9,5.5-2.3,8.4
			c-0.6-2.5-1.1-4.5-1.7-6.6c-0.4-1.4-0.1-3.6-1.8-3.7c-1.9-0.1-1.5,2.2-2,3.5c-1,2.4-1.1,5.1-2.7,7.7c-0.9-3.3-1.7-6.3-2.5-9.4
			c-0.2-0.9-0.5-1.8-1.6-1.8c-1,0-1.3,1-1.5,1.9c-0.6,2.8-1.2,5.6-1.8,8.4c-1.7-2.7-2.6-5.4-3.5-8.1c-0.3-0.9-0.4-2.2-1.6-2.3
			c-1.6-0.1-1.4,1.5-1.7,2.5c-0.9,2.5-1.1,5.2-2.9,8.1c-0.8-3.3-1.4-5.9-2.1-8.5c-0.2-0.8-0.4-1.9-1.4-2c-1.4-0.2-1.4,1.1-1.7,2
			c-1.1,3.1-2.1,6.2-3.5,10.3c-1.4-4.1-2.4-7.1-3.5-10.1c-0.3-0.9-0.4-2.2-1.6-2.2c-1.2,0-1.3,1.2-1.7,2.2c-1,2.9-1.5,6-3.3,9.1
			c-0.9-3.3-1.7-6.2-2.4-9c-0.3-0.9-0.2-2.2-1.5-2.2c-1.2,0-1.4,1.2-1.7,2.2c-1,3.4-2.1,6.8-3.3,10.7c-0.8-1.5-1.4-2.5-1.7-3.5
			c-0.9-3.4-2.8-5-6.5-4.4c-1.6,0.3-3,0-4.4-1.4c-2.1-2.1-4.6-1.7-6.6,0.5c-1.8,2-1.3,5.5,1,6.9c2.5,1.5,4.7,1.2,6.5-1.3
			c2.3-3.3,5.9-3,7.6,0.6c0.8,1.7,1.5,3.4,2.4,5.1c0.5,0.9,0.5,2.5,2.1,2.3c1.4-0.2,1.2-1.7,1.6-2.7c1-2.6,1.3-5.4,3.1-8.3
			c0.9,3.4,1.7,6.3,2.5,9.2c0.2,0.8,0.3,1.9,1.5,1.9c1.1,0,1.3-1.1,1.5-1.9C55.5,134.4,56.5,131.3,57.5,128.1z M59.5,61.5
			c-2.9,5.3-5.4,10.2-5.7,16c-0.7,11.2,6.2,22.4,16.5,26.5c11.3,4.4,23.7,1,31.2-8.7c6.9-8.9,7.2-21.8,0.7-31.1
			c-4.1-5.7-9.5-9.5-16.4-11c-1-0.2-2.4,0-2.5-1.7c0-0.9,0.2-1.5,1.2-1.5c3.9-0.2,2.4-3.2,2.4-5c0-2.6-2.3-1.6-3.7-1.7
			c-2.2-0.2-4.5-0.1-6.7,0c-1.3,0-3.1-0.2-2.8,1.9c0.2,1.7-1.3,4.3,1.9,4.8c0.9,0.1,1.7,0.2,1.7,1.4c0,1.4-0.9,1.6-1.9,1.8
			c-3.1,0.4-6,1.7-8.7,3.3c-1.9,1.2-3.7,2.6-5.6,3.9c2.6-3.7-0.4-5.3-2.3-7.1c-2-1.9-3,0.3-3.8,1.3c-1.2,1.4-4.4,2.3-2.7,4.8
			C53.7,61.6,55.6,64.5,59.5,61.5z"/>
		<path class="st1" d="M45.2,25.3c1.1-3.9,1.9-6.9,2.7-9.9c0.3-1,0.2-2.6,1.6-2.6c1.8-0.1,1.5,1.7,1.8,2.8c0.8,2.9,1.4,5.8,2.3,9.7
			c1.1-4.2,1.9-7.4,2.8-10.7c0.2-0.8,0.3-1.9,1.5-1.9c1.2,0,1.2,1,1.5,1.8c0.8,3.1,1.6,6.3,2.5,10.1c1.9-3.4,2.2-6.7,3.3-9.7
			c0.3-0.9,0.3-2.2,1.6-2.1c1.3,0,1.3,1.3,1.5,2.2c0.7,2.9,1.4,5.8,2.7,8.7c0.7-2.9,1.3-5.8,2.1-8.7c0.2-0.9,0.2-2.2,1.5-2.3
			c1.4,0,1.4,1.3,1.6,2.2c0.9,3.2,1.6,6.5,3,9.7c1-3.1,2-6.2,3-9.3c0.3-1,0.2-2.5,1.7-2.6c1.5,0,1.4,1.5,1.7,2.5
			c0.8,3.1,1.6,6.1,3.2,9.2c1-3.1,2-6.2,3.1-9.3c0.3-1,0.2-2.6,1.8-2.4c1.4,0.2,1.3,1.6,1.5,2.7c0.8,3.2,1.6,6.4,2.6,10.4
			c1.2-3.8,2.2-6.8,3.2-9.9c0.3-0.9,0.4-2.2,1.7-2.1c1.2,0.1,1.3,1.3,1.6,2.2c1,3.5,2.1,6.9,3.2,10.4c0.3,0.9,0.8,2.4,1.9,0.9
			c4.2-5.6,10.2-4,15.8-4.1c2.2,0,4.1,0.1,5.4-2.5c1.2-2.4,3.9-2.7,6.2-1c2.3,1.8,2.8,4.2,1.1,6.6c-1.6,2.2-3.8,2.8-6.2,1.3
			c-5.9-3.6-15.7-2.8-20.8,1.8c-3.8,3.4-3.9,3.3-5.4-1.4c-0.8-2.6-1.7-5.1-2.8-8.7c-1.4,4.2-2.4,7.4-3.5,10.7
			c-0.3,0.8-0.4,1.8-1.5,1.8c-1.2,0-1.3-1.1-1.5-1.9c-0.8-3.4-1.6-6.8-2.7-11.3c-1.4,4.5-2.5,7.8-3.6,11.2c-0.3,0.9-0.4,2.2-1.8,2
			c-1.1-0.1-1.1-1.2-1.3-2c-0.9-3.4-1.8-6.7-2.9-11.1c-1.4,4.3-2.4,7.5-3.4,10.7c-0.3,1-0.3,2.5-1.8,2.4c-1.3-0.1-1.2-1.4-1.4-2.3
			c-0.7-3-1.5-6-2.5-9.9c-0.8,3.6-1.3,6.2-2,8.7c-0.4,1.3,0.1,3.6-1.9,3.5c-1.7,0-1.4-2.1-1.7-3.3c-0.7-2.6-1.3-5.3-2.6-8
			c-0.8,2.7-1.6,5.5-2.4,8.2c-0.4,1.2-0.2,3.2-1.9,3.2c-1.7-0.1-1.4-2.1-1.7-3.4c-0.8-2.6-1.3-5.2-2.1-8.5c-1.8,3.5-2,6.7-3,9.7
			c-0.3,0.9-0.2,2.2-1.6,2.1c-1.3-0.1-1.3-1.4-1.5-2.3c-0.7-2.9-1.3-5.7-2.2-9.4c-1.9,3.5-2.2,6.7-3.2,9.7c-0.3,1-0.4,2.1-1.7,2
			c-1.1-0.1-1.2-1.2-1.3-2c-0.7-3.1-1.4-6.2-2.5-9.5c-0.6,4.4-2.8,6.3-7,5.5c-1.4-0.3-1.8,1.1-2.7,1.7c-2.5,1.7-4.7,1.4-6.6-0.8
			c-1.7-2.1-1.1-5.5,1.2-6.9c2.6-1.5,5-1,6.4,1.6c0.9,1.7,1.9,2.2,3.7,2c2-0.2,1.7-1.9,2.1-3c0.7-2,1.2-4.1,1.8-6.1
			c0.2-0.7,0.5-1.5,1.5-1.4c0.9,0.1,1.1,0.8,1.3,1.6C43.5,17.7,44.3,21.1,45.2,25.3z M30.7,23.5c-0.2-1.1-0.9-2.2-2.1-2.2
			c-1.4,0-2.2,1.1-2.2,2.4c0,1.1,0.9,1.7,2,1.7C29.7,25.5,30.5,24.9,30.7,23.5z M134.4,25.5c1.2-0.1,2.2-0.7,2-2.1
			c-0.2-1.1-0.9-2.2-2.2-2.1c-1.2,0.1-2,1.1-2,2.3C132.1,25,133.1,25.4,134.4,25.5z"/>
		<path class="st1" d="M57.5,128.1c-1,3.2-2,6.3-3.1,9.5c-0.3,0.8-0.4,1.9-1.5,1.9c-1.2,0-1.2-1.1-1.5-1.9c-0.8-2.9-1.5-5.7-2.5-9.2
			c-1.8,2.9-2.1,5.8-3.1,8.3c-0.4,1-0.3,2.5-1.6,2.7c-1.5,0.2-1.6-1.4-2.1-2.3c-0.9-1.7-1.6-3.4-2.4-5.1c-1.7-3.6-5.2-3.8-7.6-0.6
			c-1.8,2.5-4,2.9-6.5,1.3c-2.3-1.4-2.8-4.9-1-6.9c1.9-2.2,4.5-2.6,6.6-0.5c1.4,1.4,2.8,1.7,4.4,1.4c3.7-0.6,5.6,1,6.5,4.4
			c0.3,1,1,2,1.7,3.5c1.2-3.9,2.3-7.3,3.3-10.7c0.3-1,0.5-2.2,1.7-2.2c1.3,0,1.3,1.3,1.5,2.2c0.8,2.8,1.5,5.7,2.4,9
			c1.8-3.1,2.3-6.2,3.3-9.1c0.3-0.9,0.5-2.2,1.7-2.2c1.2,0,1.3,1.3,1.6,2.2c1,3,2.1,6,3.5,10.1c1.4-4.1,2.4-7.2,3.5-10.3
			c0.3-0.9,0.3-2.2,1.7-2c1,0.1,1.2,1.2,1.4,2c0.7,2.6,1.3,5.2,2.1,8.5c1.8-2.9,2-5.7,2.9-8.1c0.4-0.9,0.1-2.6,1.7-2.5
			c1.2,0.1,1.3,1.4,1.6,2.3c0.9,2.7,1.8,5.4,3.5,8.1c0.6-2.8,1.2-5.6,1.8-8.4c0.2-0.9,0.4-1.8,1.5-1.9c1.1,0,1.3,0.9,1.6,1.8
			c0.8,3,1.6,6,2.5,9.4c1.6-2.6,1.7-5.3,2.7-7.7c0.5-1.3,0.2-3.6,2-3.5c1.7,0.1,1.4,2.4,1.8,3.7c0.6,2,1.1,4.1,1.7,6.6
			c1.5-2.9,1.6-5.8,2.3-8.4c0.2-0.8,0.3-1.9,1.4-2c1.1-0.1,1.3,1,1.5,1.8c1.2,3.8,2.4,7.6,3.5,11.4c1.2,0,1.7-0.9,2-1.6
			c2.5-5.3,6.8-6.7,12.3-5.9c2,0.3,4,0,6,0.1c1.9,0,3.4,0,4.8-1.9c1.7-2.2,4.5-2.1,6.6,0c2.1,2.1,2,4.7-0.1,6.7
			c-2.1,2-4.8,2-6.5-0.3c-1.4-1.9-2.8-2.1-4.8-2.1c-0.5,0-1,0.1-1.5,0c-7.3-1.1-13.5,0.2-16.9,7.7c-0.4,0.8-1,1.9-2.2,1.7
			c-1.2-0.2-1.2-1.5-1.5-2.4c-0.9-2.7-1.7-5.4-3.2-8c-0.6,2.7-1.2,5.5-1.9,8.2c-0.2,0.9-0.3,2.2-1.6,2.1c-1.1-0.1-1.1-1.2-1.3-2
			c-0.7-2.9-1.5-5.8-2.3-9c-1.7,3-2,6.2-3.1,9.1c-0.3,0.8-0.3,1.9-1.5,1.9c-1.2,0-1.2-1.1-1.5-1.9c-0.7-2.6-1.4-5.2-2.3-8.3
			c-1.4,2.4-1.4,4.7-2,6.8c-0.4,1.2,0,3.2-1.8,3.2c-1.5,0-1.5-1.8-1.9-2.9c-1-2.7-1.8-5.4-3.1-9.1c-1.1,3.8-1.9,6.5-2.7,9.2
			c-0.3,1.1-0.2,2.9-1.8,2.8c-1.7-0.1-1.3-1.9-1.7-3c-0.8-2.6-1.4-5.3-2.1-8.3c-1.8,3.2-2.3,6.6-3.5,9.7c-0.3,0.8-0.5,1.8-1.7,1.7
			c-0.9-0.1-1.1-0.9-1.3-1.6c-1.1-3.2-2.1-6.4-3.2-9.6C58,128.2,57.8,128.2,57.5,128.1z M30.6,129c0.1-1.2-0.5-2-1.6-2.1
			c-1.4-0.2-2.5,0.3-2.7,1.8c-0.2,1.2,0.3,2.3,1.6,2.4C29.4,131.2,30.1,130.1,30.6,129z M134.1,126.8c-1.5,0.2-2.2,1.1-2.1,2.5
			c0.1,1.1,0.7,1.9,1.9,1.8c1.4-0.2,2.3-1.1,2.4-2.4C136.4,127.3,135.4,126.8,134.1,126.8z"/>
		<path class="st2" d="M59.5,61.5c-3.9,3.1-5.8,0.1-7.3-2.2c-1.7-2.6,1.5-3.4,2.7-4.8c0.8-1,1.8-3.2,3.8-1.3c1.9,1.8,5,3.4,2.3,7.1
			c1.9-1.3,3.6-2.7,5.6-3.9c2.7-1.6,5.5-2.9,8.7-3.3c1.1-0.1,1.9-0.4,1.9-1.8c0-1.3-0.8-1.3-1.7-1.4c-3.2-0.5-1.7-3.1-1.9-4.8
			c-0.2-2.1,1.5-1.9,2.8-1.9c2.2,0,4.5-0.1,6.7,0c1.4,0.1,3.7-1,3.7,1.7c0,1.9,1.5,4.9-2.4,5c-1,0-1.2,0.7-1.2,1.5
			c0.1,1.7,1.5,1.5,2.5,1.7c6.9,1.5,12.3,5.2,16.4,11c6.5,9.2,6.2,22.2-0.7,31.1c-7.5,9.7-19.9,13.1-31.2,8.7
			c-10.3-4-17.2-15.2-16.5-26.5C54.1,71.7,56.5,66.7,59.5,61.5z M79.8,54.6c-13.7,0.4-24.6,11.6-24.2,24.9
			c0.4,13.8,11.8,24.7,25.3,24.2c13.7-0.5,24.4-11.7,24.1-25.1C104.5,65.2,93.1,54.2,79.8,54.6z M80.4,45.2
			C80.4,45.2,80.4,45.2,80.4,45.2c-1.1,0-2.2,0-3.4,0c-0.9,0-1.4,0.5-1.3,1.4c0,0.6,0.1,1.4,0.9,1.3c2.5-0.2,2.9,1.2,2.8,3.3
			c0,0.6,0,1.3,0.9,1.3c0.8,0,0.9-0.7,1-1.3c0.2-1.3-0.4-3.3,2-3.2c1.1,0,1.6-0.4,1.5-1.5c-0.1-1.2-0.9-1.3-1.8-1.3
			C82.1,45.2,81.3,45.2,80.4,45.2z M59.3,57.2c-0.3-1.1-1.4-2.3-1.9-2.1c-1.4,0.6-2.8,1.7-3.1,3.3c-0.1,0.5,1.2,1.9,1.6,1.8
			C57.5,59.9,58.4,58.4,59.3,57.2z"/>
		<path class="st2" d="M30.7,23.5c-0.2,1.4-1,1.9-2.3,1.9c-1.1,0-2-0.6-2-1.7c0-1.4,0.8-2.5,2.2-2.4C29.8,21.3,30.4,22.4,30.7,23.5z
			"/>
		<path class="st2" d="M134.4,25.5c-1.3,0-2.3-0.5-2.2-1.9c0-1.2,0.8-2.2,2-2.3c1.2-0.1,2,0.9,2.2,2.1
			C136.5,24.8,135.6,25.3,134.4,25.5z"/>
		<path class="st2" d="M30.6,129c-0.5,1.2-1.2,2.2-2.6,2.1c-1.4-0.1-1.8-1.2-1.6-2.4c0.2-1.5,1.3-2,2.7-1.8
			C30.1,127,30.7,127.8,30.6,129z"/>
		<path class="st2" d="M134.1,126.8c1.2,0,2.3,0.5,2.2,1.9c-0.1,1.4-1,2.3-2.4,2.4c-1.2,0.1-1.8-0.7-1.9-1.8
			C131.9,127.9,132.6,126.9,134.1,126.8z"/>
		<path class="st3" d="M79.8,54.6c13.3-0.4,24.7,10.5,25.1,24c0.4,13.4-10.4,24.6-24.1,25.1C67.4,104.2,56,93.3,55.6,79.5
			C55.2,66.3,66.1,55.1,79.8,54.6z M101.4,79c-0.2-11.8-9.8-21.4-21.2-21.2c-11.9,0.2-21.3,9.9-21.1,21.7
			c0.2,11.8,9.7,21.1,21.4,20.9C92.1,100.4,101.6,90.6,101.4,79z"/>
		<path class="st3" d="M80.4,45.2c0.9,0,1.7,0,2.6,0c0.9,0,1.8,0,1.8,1.3c0.1,1.2-0.5,1.5-1.5,1.5c-2.4-0.1-1.8,1.8-2,3.2
			c-0.1,0.6-0.1,1.3-1,1.3c-0.9,0-1-0.7-0.9-1.3c0.1-2-0.3-3.4-2.8-3.3c-0.8,0.1-0.9-0.7-0.9-1.3c0-0.9,0.4-1.4,1.3-1.4
			C78.1,45.2,79.3,45.2,80.4,45.2C80.4,45.2,80.4,45.2,80.4,45.2z"/>
		<path class="st3" d="M59.3,57.2c-0.9,1.3-1.8,2.7-3.4,3c-0.4,0.1-1.7-1.3-1.6-1.8c0.3-1.7,1.7-2.7,3.1-3.3
			C57.9,54.9,59,56,59.3,57.2z"/>
		<path class="st2" d="M101.4,79c0.2,11.5-9.3,21.3-20.9,21.5c-11.7,0.1-21.2-9.2-21.4-20.9c-0.2-11.8,9.2-21.4,21.1-21.7
			C91.6,57.6,101.2,67.2,101.4,79z M81.5,98.4c6.4-0.3,12.2-3.6,15.8-10.4c3.5-6.6,2.9-13.2-1-19.6c-1.4-2.3-2.8-3.8-5-0.5
			c-1.7,2.6-4.1,4.7-6.1,7.1c-0.9,1.1-2.1,2-1.7,3.9c0.4,2-0.9,3.4-2.9,3.5c-1.9,0.1-3.1-0.9-3.3-2.8C76.9,77.5,78,76,80,76
			c1.8-0.1,2.6-1.1,3.6-2.2c2.1-2.5,4.1-5,6.5-7.3c2.2-2.2,1.3-3.1-0.9-4.2c-7.2-3.6-15.6-2.6-21.6,2.7c-5.9,5.3-8,14.1-5,21.6
			C65.2,93.6,72.5,98.4,81.5,98.4z"/>
		<path class="st4" d="M81.5,98.4c-9,0-16.3-4.8-19.1-11.9c-3-7.5-0.9-16.3,5-21.6c6-5.3,14.5-6.3,21.6-2.7c2.2,1.1,3.2,2.1,0.9,4.2
			c-2.3,2.3-4.3,4.8-6.5,7.3c-1,1.1-1.8,2.2-3.6,2.2c-2,0.1-3.1,1.6-2.8,3.7c0.2,1.9,1.4,3,3.3,2.8c2-0.2,3.3-1.5,2.9-3.5
			c-0.4-1.9,0.8-2.8,1.7-3.9c2-2.4,4.4-4.5,6.1-7.1c2.2-3.3,3.6-1.8,5,0.5c3.9,6.3,4.5,12.9,1,19.6C93.8,94.8,87.9,98.1,81.5,98.4z"
			/>
	</g>
</g>
</svg>
