<?xml version="1.0" encoding="utf-8"?>
<!-- Generator: Adobe Illustrator 19.0.0, SVG Export Plug-In . SVG Version: 6.00 Build 0)  -->
<svg version="1.1" id="Layer_1" xmlns="http://www.w3.org/2000/svg" xmlns:xlink="http://www.w3.org/1999/xlink" x="0px" y="0px"
	 viewBox="0 0 155.3 156.8" style="enable-background:new 0 0 155.3 156.8;" xml:space="preserve">
<style type="text/css">
	.st0{fill:#8FD04F;}
	.st1{fill:#070603;}
	.st2{fill:#EF871C;}
	.st3{fill:#C3BD98;}
	.st4{fill:#CB1003;}
	.st5{fill:#C71003;}
	.st6{fill:#CB0E03;}
	.st7{fill:#C90E02;}
	.st8{fill:#C7C7C7;}
</style>
<g>
	<g>
		<path class="st0" d="M149.2,77.9c0,14.7,0,29.5,0,44.2c0,16.3-12.9,29.2-29.2,29.3c-29.6,0.1-59.2,0-88.9,0
			c-14,0-26.4-11.3-28.3-25.1c-0.5-3.5-0.6-6.9-0.6-10.4c0-26.6-0.1-53.2,0-79.9c0-9.9,3.2-18.6,11.2-25c4.9-3.9,10.5-6.4,16.8-6.4
			c30.5-0.1,61-0.1,91.5,0c14.1,0.1,27.2,13.4,27.3,27.5C149.3,47.4,149.2,62.6,149.2,77.9C149.2,77.9,149.2,77.9,149.2,77.9z
			 M74.8,125.9c8.7,0,17.5-0.1,26.2,0.1c2.9,0.1,4.6-0.5,4-3.8c-0.2-1.4,0.2-2.7,1.9-2.4c4.4,0.8,5-1.7,4.6-5.1
			c-0.2-1.5,0.1-3-0.1-4.5c-0.2-2.3,0.7-3.3,3-3c2.1,0.3,3.4-0.4,3.1-2.8c-0.4-2.8,1-3.5,3.5-3.2c1.4,0.2,2.7,0.1,2.7-2
			c0-12.7,0-25.5,0-38.2c0-1.2-0.5-2-1.8-1.8c-4.8,0.9-4.6-2.1-4.4-5.3c0.1-1.1-0.1-2.3,0-3.4c0.3-2.4-0.6-3.5-3.1-3.1
			c-2.3,0.4-3.3-0.6-2.9-2.9c0.4-2.5-0.7-3.4-3.2-3.1c-1.5,0.1-3.7,0.7-3.3-2.1c0.6-4.1-1.6-4.5-4.8-4.2c-1,0.1-2-0.1-3,0
			c-2.7,0.3-4.4-0.4-3.8-3.6c0.3-1.8-0.6-2.4-2.4-2.3c-10.6,0.1-21.2,0.1-31.8,0c-1.8,0-2.6,0.6-2.3,2.4c0.6,3.3-1.2,3.8-3.9,3.6
			c-1.5-0.1-3,0.1-4.5-0.1c-2.5-0.3-3.8,0.5-3.4,3.2c0.3,2.1-0.2,3.5-2.7,3c-2.7-0.4-3.6,0.7-3.3,3.3c0.1,1.1,0.4,2.9-1.6,2.6
			c-5.2-0.9-4.9,2.4-4.7,5.8c0.1,1-0.1,2,0,3c0.2,2.2-0.5,3.4-2.9,3c-2.6-0.4-3.1,0.9-3.1,3.2c0.1,12,0.1,24,0,36
			c0,2.2,0.5,3.4,2.9,3c2.6-0.4,3.3,0.9,3.1,3.3c-0.1,1.4-0.1,3.1,2,2.7c4.5-0.8,4.5,1.9,4.3,5c-0.1,1.4,0.1,2.8,0,4.1
			c-0.3,2.5,0.4,3.9,3.2,3.4c2.4-0.4,3.2,0.8,2.8,3c-0.4,2.8,1,3.2,3.4,3.2C57.3,125.9,66,125.9,74.8,125.9z"/>
		<path class="st1" d="M74.8,125.9c-8.7,0-17.5-0.1-26.2,0c-2.4,0-3.9-0.4-3.4-3.2c0.3-2.2-0.4-3.4-2.8-3c-2.8,0.5-3.5-1-3.2-3.4
			c0.1-1.4-0.1-2.8,0-4.1c0.2-3.1,0.2-5.8-4.3-5c-2.1,0.4-2.1-1.3-2-2.7c0.2-2.3-0.5-3.7-3.1-3.3c-2.4,0.4-2.9-0.8-2.9-3
			c0.1-12,0.1-24,0-36c0-2.3,0.5-3.6,3.1-3.2c2.4,0.4,3.1-0.9,2.9-3c-0.1-1,0-2,0-3c-0.2-3.4-0.6-6.7,4.7-5.8c2,0.3,1.7-1.5,1.6-2.6
			c-0.3-2.6,0.6-3.8,3.3-3.3c2.5,0.4,3-1,2.7-3c-0.4-2.8,0.9-3.5,3.4-3.2c1.5,0.2,3-0.1,4.5,0.1c2.7,0.2,4.5-0.3,3.9-3.6
			c-0.3-1.8,0.6-2.4,2.3-2.4c10.6,0.1,21.2,0.1,31.8,0c1.8,0,2.7,0.6,2.4,2.3c-0.5,3.2,1.1,3.9,3.8,3.6c1-0.1,2,0.1,3,0
			c3.1-0.4,5.4,0,4.8,4.2c-0.4,2.7,1.9,2.2,3.3,2.1c2.5-0.2,3.5,0.7,3.2,3.1c-0.4,2.3,0.6,3.3,2.9,2.9c2.5-0.4,3.4,0.7,3.1,3.1
			c-0.1,1.1,0.1,2.3,0,3.4c-0.2,3.2-0.4,6.2,4.4,5.3c1.2-0.2,1.8,0.6,1.8,1.8c0,12.7,0,25.5,0,38.2c0,2.1-1.3,2.2-2.7,2
			c-2.5-0.3-3.9,0.4-3.5,3.2c0.4,2.4-0.9,3.1-3.1,2.8c-2.3-0.3-3.2,0.7-3,3c0.1,1.5-0.1,3,0.1,4.5c0.4,3.5-0.1,5.9-4.6,5.1
			c-1.8-0.3-2.1,1-1.9,2.4c0.5,3.3-1.1,3.8-4,3.8C92.3,125.8,83.5,125.9,74.8,125.9z M104.2,102c-3-0.1-5.9,0-5.2-4.5
			c0.2-1.4-0.8-2.4-2.4-2.1c-3.2,0.5-6.7-1.4-9.5,1.3c-0.4,0.4-0.1,1.4-0.1,2.2c0,2-0.1,4,0,6c0.1,2.3-1.1,2.9-3.2,3
			c-2.3,0.1-2.8-1-2.8-2.9c0-2.4-0.1-4.7,0-7.1c0.1-1.7-0.6-2.4-2.4-2.5c-9.6-0.9-9.6-0.9-9.7,8.6c0,0.1,0,0.3,0,0.4
			c0.2,2.2-0.4,3.5-3,3.6c-2.7,0-2.6-1.7-2.6-3.5c-0.3-9.6-0.3-9.6-10-9c-0.4,0-0.7,0-1.1,0c-1.1,0.1-1.7,0.7-1.5,1.7
			c0.7,4.7-2,5.1-5.8,4.5c0,3.4,0.1,6.6,0,9.8c-0.1,2,0.8,2.8,2.7,2.5c2.4-0.3,3.5,0.5,3.1,3.1c-0.3,2.2,0.6,3,2.9,3
			c14.2-0.1,28.5-0.1,42.7,0c1.8,0,3-0.5,2.8-2.5c-0.4-3.1,0.9-4,3.7-3.6c0.7,0.1,1.5,0.2,1.9-0.7C105,109.5,106.1,105.7,104.2,102z
			 M69.2,35.3c-3.5-0.5-6.9-0.9-6,4.5c0.2,1.3-0.9,1.6-2,1.6c-1.4,0-2.7,0-4.1,0c-6,0-6,0-6.2,6c-5.5,0.1-5.5,0.1-5.8,5.4
			c0,0.1,0,0.2-0.1,0.4c-5.8,0.1-5.8,0.1-5.8,6c0,1-0.1,2,0,3c0.3,2.6-0.7,3.7-3.3,3.3c-2.3-0.3-3,0.6-3,2.9c0.2,5,0.1,9.9,0.2,14.9
			c-0.1,1.1-0.1,2.2-0.1,3.3c0,9.2,0,9.1,9.2,9c2.4,0,3.5-0.7,3.1-3.2c-0.4-2.5,1-2.9,3.1-2.8c5,0,9.9-0.2,14.9-0.3
			c8,0,16-0.1,24-0.1c5,0.8,10,0.2,14.9,0.4c1.3,0.1,3.2-0.3,2.8,1.9c-0.6,4.3,2,4.3,4.9,4.1c1.5-0.1,3-0.1,4.5,0
			c2.2,0.2,3.3-0.6,3.1-2.9c-0.1-3.1-0.1-6.2-0.2-9.3c0.1-4.8,0.1-9.6,0.3-14.5c0.1-2.5-0.5-3.8-3.3-3.5c-2.1,0.3-3-0.6-2.8-2.7
			c0.1-1,0-2,0-3c0-6.4,0-6.4-6.4-6.7c-0.4-5.6-0.4-5.6-6.1-5.7c-0.2-6-0.2-6-6.3-6c-0.7,0-1.5-0.1-2.2,0c-2.6,0.3-3.7-0.7-3.4-3.3
			c0.3-2.3-0.6-3.2-2.9-3c-1.1,0.1-2.2,0.1-3.3,0.2C77,35.3,73.1,35.3,69.2,35.3z"/>
		<path class="st2" d="M45,53.2c0-0.1,0.1-0.2,0.1-0.4c0.4-5.3,0.4-5.3,5.8-5.4c0.3,5.8,0.3,5.8,6.2,5.8c1.1,0,2.3-0.1,3.4,0
			c1.9,0.1,2.9-0.5,2.7-2.5c-0.2-2.3,0.5-3.7,3.1-3.4c2.4,0.3,3-0.8,2.9-3c-0.1-3,0-6,0-9c3.9,0,7.9,0,11.8,0c0,2.9,0.2,5.7,0,8.6
			c-0.1,2.5,0.5,3.8,3.3,3.5c1.9-0.3,3.2,0.3,2.9,2.6c-0.3,2.7,1.1,3.5,3.6,3.3c1.6-0.1,3.3-0.2,4.8,0c2.9,0.4,3.8-0.9,3.5-3.6
			c-0.1-0.7,0-1.5,0.1-2.2c5.7,0.1,5.7,0.1,6.1,5.7c-0.1,0.4-0.2,0.7-0.1,1.1c0.3,3.2,0.1,5.8-4.3,5.1C98.9,59,99,60.7,99,61.9
			c0,4.1,0.1,8.2,0,12.4c-0.1,2.4,0.9,3.2,3.1,2.9c2.3-0.3,3.3,0.7,3,3c-0.4,2.6,1,3.1,3.3,3.1c3-0.1,6,0,9,0.1
			c0.1,3.1,0.1,6.2,0.2,9.3c0.1,2.3-0.9,3.1-3.1,2.9c-1.5-0.1-3-0.1-4.5,0c-3,0.2-5.6,0.2-4.9-4.1c0.3-2.1-1.5-1.8-2.8-1.9
			c-5-0.2-10,0.5-14.9-0.4c-0.2-3.3-0.8-6.8,4.5-6.2c1.5,0.2,1.4-1.5,1.4-2.5c0-4.1-0.1-8.3,0-12.4c0.1-2.1-0.7-3.1-2.8-2.8
			c-2.4,0.3-3.6-0.6-3.2-3.1c0.4-2.6-1-3.1-3.3-3.1c-5.9,0.1-11.7,0.1-17.6,0c-2.1,0-3.4,0.5-3.1,2.9c0.4,2.7-0.9,3.6-3.4,3.3
			c-2.2-0.3-2.8,0.8-2.8,2.8c0.1,4,0.1,8,0,12c-0.1,2.2,0.6,3.4,3,3c2.8-0.4,3.5,1.1,3.2,3.5c-0.1,0.9,0,1.7,0,2.6
			c-5,0.1-9.9,0.3-14.9,0.3c-2.1,0-3.4,0.4-3.1,2.8c0.4,2.4-0.7,3.1-3.1,3.2c-9.2,0.1-9.2,0.2-9.2-9c0-1.1,0.1-2.2,0.1-3.3
			c3,0,6-0.1,9,0c2.2,0.1,3.4-0.6,3.1-2.9c-0.3-2.1,0.4-3.4,2.8-3.1c2.6,0.3,3.1-1.2,3.1-3.5c-0.1-3.6-0.2-7.3,0-10.9
			c0.1-2.6-0.4-4.1-3.4-3.7c-2,0.3-2.6-0.8-2.5-2.7C45.1,55.4,45,54.3,45,53.2z"/>
		<path class="st3" d="M104.8,113.2c-0.4,0.9-1.3,0.8-1.9,0.7c-2.8-0.4-4.2,0.5-3.7,3.6c0.3,2-0.9,2.5-2.8,2.5
			c-14.2-0.1-28.5-0.1-42.7,0c-2.3,0-3.3-0.8-2.9-3c0.4-2.5-0.7-3.4-3.1-3.1c-1.9,0.3-2.7-0.4-2.7-2.5c0.1-3.2,0-6.5,0-9.8
			c3.8,0.7,6.5,0.2,5.8-4.5c-0.1-1,0.5-1.6,1.5-1.7c0.4,0,0.7,0,1.1,0c9.7-0.5,9.7-0.5,10,9c0.1,1.8-0.1,3.5,2.6,3.5
			c2.6,0,3.2-1.4,3-3.6c0-0.1,0-0.2,0-0.4c0.1-9.5,0.1-9.5,9.7-8.6c1.8,0.2,2.4,0.8,2.4,2.5c-0.1,2.4,0,4.7,0,7.1
			c0,1.9,0.5,3,2.8,2.9c2.1-0.1,3.3-0.7,3.2-3c-0.1-2,0-4,0-6c0-0.7-0.3-1.8,0.1-2.2c2.8-2.7,6.3-0.7,9.5-1.3
			c1.6-0.3,2.6,0.7,2.4,2.1c-0.7,4.5,2.2,4.4,5.2,4.5C104.6,105.8,103.6,109.5,104.8,113.2z"/>
		<path class="st4" d="M63.1,89.4c0-0.9-0.1-1.8,0-2.6c0.3-2.4-0.4-3.9-3.2-3.5c-2.3,0.3-3-0.8-3-3c0.1-4,0.1-8,0-12
			c-0.1-2,0.6-3.1,2.8-2.8c2.5,0.3,3.8-0.6,3.4-3.3c-0.3-2.4,0.9-2.9,3.1-2.9c5.9,0.1,11.8,0.1,17.6,0c2.3,0,3.7,0.5,3.3,3.1
			c-0.4,2.5,0.9,3.4,3.2,3.1c2.1-0.3,2.9,0.7,2.8,2.8c-0.1,4.1,0,8.2,0,12.4c0,1.1,0.1,2.7-1.4,2.5c-5.4-0.7-4.7,2.9-4.5,6.2
			C79.2,89.3,71.1,89.3,63.1,89.4z"/>
		<path class="st5" d="M117.3,83.3c-3,0-6-0.2-9-0.1c-2.3,0.1-3.7-0.4-3.3-3.1c0.3-2.3-0.7-3.3-3-3c-2.2,0.3-3.2-0.6-3.1-2.9
			c0.2-4.1,0-8.2,0-12.4c0-1.2-0.1-2.9,1.7-2.6c4.4,0.6,4.6-2,4.3-5.1c0-0.4,0.1-0.7,0.1-1.1c6.4,0.3,6.4,0.3,6.4,6.7c0,1,0.1,2,0,3
			c-0.2,2.1,0.7,3,2.8,2.7c2.7-0.4,3.4,1,3.3,3.5C117.4,73.7,117.4,78.5,117.3,83.3z"/>
		<path class="st6" d="M45,53.2c0,1.1,0.1,2.3,0.1,3.4c-0.1,1.8,0.5,3,2.5,2.7c3-0.4,3.6,1.1,3.4,3.7c-0.2,3.6-0.1,7.2,0,10.9
			c0.1,2.2-0.4,3.8-3.1,3.5c-2.4-0.3-3.1,1-2.8,3.1c0.3,2.4-0.8,3-3.1,2.9c-3-0.1-6,0-9,0c0-5,0-9.9-0.2-14.9
			c-0.1-2.3,0.7-3.3,3-2.9c2.6,0.4,3.7-0.7,3.3-3.3c-0.1-1,0-2,0-3C39.1,53.2,39.1,53.2,45,53.2z"/>
		<path class="st7" d="M69.2,35.3c0,3-0.2,6,0,9c0.1,2.2-0.6,3.3-2.9,3c-2.6-0.3-3.3,1.1-3.1,3.4c0.2,2-0.8,2.7-2.7,2.5
			c-1.1-0.1-2.2,0-3.4,0c-5.9,0-5.9,0-6.2-5.8c0.2-6,0.2-6,6.2-6c1.4,0,2.7,0,4.1,0c1.1,0,2.2-0.2,2-1.6
			C62.3,34.4,65.7,34.8,69.2,35.3z"/>
		<path class="st4" d="M99.1,47.4c0,0.7-0.2,1.5-0.1,2.2c0.4,2.7-0.6,4-3.5,3.6c-1.6-0.2-3.2-0.1-4.8,0c-2.4,0.2-3.9-0.5-3.6-3.3
			c0.3-2.3-1-2.9-2.9-2.6c-2.8,0.4-3.4-1-3.3-3.5c0.2-2.9,0-5.7,0-8.6c1.1,0,2.2,0,3.3-0.2c2.3-0.3,3.3,0.7,2.9,3
			c-0.4,2.6,0.8,3.6,3.4,3.3c0.7-0.1,1.5,0,2.2,0C98.9,41.4,98.9,41.4,99.1,47.4z"/>
		<path class="st8" d="M104.8,113.2c-1.2-3.7-0.3-7.5-0.6-11.2C106.1,105.7,105,109.5,104.8,113.2z"/>
	</g>
</g>
</svg>
