<?xml version="1.0" encoding="utf-8"?>
<!-- Generator: Adobe Illustrator 19.0.0, SVG Export Plug-In . SVG Version: 6.00 Build 0)  -->
<svg version="1.1" id="Layer_1" xmlns="http://www.w3.org/2000/svg" xmlns:xlink="http://www.w3.org/1999/xlink" x="0px" y="0px"
	 viewBox="0 0 158.3 166.5" style="enable-background:new 0 0 158.3 166.5;" xml:space="preserve">
<style type="text/css">
	.st0{fill:#F8C610;}
	.st1{fill:#2F2A19;}
	.st2{fill:#DE2F54;}
	.st3{fill:#C0553A;}
	.st4{fill:#DD264C;}
	.st5{fill:#E03B5C;}
	.st6{fill:#DD234A;}
	.st7{fill:#232619;}
	.st8{fill:#1E1D19;}
</style>
<g>
	<g>
		<path class="st0" d="M80.2,153.8c-15.4,0-30.7,0.2-46.1-0.1c-11.4-0.2-21.7-9-25.1-19.1c-1.1-3.3-1.6-6.7-1.6-10.2
			c0.1-30,0-60,0.1-89.9c0.1-13,11.2-25.2,24-27c3.8-0.5,7.7-0.7,11.6-0.7c26.5,0,53,0,79.5,0c8.2,0,15.7,2.1,21.9,7.8
			c5.4,4.9,9.2,11,9.3,18.4c0.6,31.8,0.6,63.7,0,95.6c-0.2,9.5-9,20.2-18.7,23.6c-3.8,1.4-7.7,1.7-11.7,1.7
			C109,153.9,94.6,153.9,80.2,153.8C80.2,153.8,80.2,153.8,80.2,153.8z M38.8,72.8c-4.1,2.7-4.5,6.7-3.5,10.9c1,4.3,4.4,6.4,8.6,7.3
			c0,14.4,0.1,28.7-0.1,43.1c0,2.8,0.8,3.5,3.6,3.5c22.2-0.1,44.5-0.1,66.7,0c2.7,0,3.3-0.8,3.3-3.4c-0.1-10.6-0.1-21.2,0-31.9
			c0-2.3-0.4-4.7,1.5-6.7c0.9-0.9,0.7-2.5-0.3-3.4c-1.4-1.3-1.3-2.9-1.3-4.5c0-3-0.1-6,0-9c0.2-3.6-1.1-7.5,1.7-10.7
			c0.6-0.7,0.5-2.2-0.3-2.8c-1.9-1.6-1.5-3.6-1.5-5.5c0-11-0.1-22,0-33c0-2.4-0.6-3.3-3.1-3.2c-22.4,0.1-44.7,0.1-67.1,0
			c-2.7,0-3.3,0.9-3.3,3.5C44,41.4,44,55.9,44,70.4C41.9,70.5,40.1,71,38.8,72.8z"/>
		<path class="st1" d="M44,70.4c0-14.5,0-29-0.1-43.5c0-2.5,0.6-3.5,3.3-3.5c22.4,0.1,44.7,0.1,67.1,0c2.5,0,3.2,0.8,3.1,3.2
			c-0.1,11-0.1,22,0,33c0,1.9-0.4,4,1.5,5.5c0.8,0.6,0.9,2.1,0.3,2.8c-2.8,3.3-1.5,7.1-1.7,10.7c-0.2,3,0,6,0,9
			c0,1.6-0.1,3.2,1.3,4.5c1,0.9,1.1,2.6,0.3,3.4c-2,2-1.5,4.3-1.5,6.7c0,10.6-0.1,21.2,0,31.9c0,2.6-0.6,3.4-3.3,3.4
			c-22.2-0.1-44.5-0.1-66.7,0c-2.8,0-3.6-0.7-3.6-3.5c0.1-14.4,0.1-28.7,0.1-43.1c0,0,0.2,0,0.2,0s0.2-0.1,0.2-0.1
			c0.7,0,1.4,0,2.1,0.1c0,13.6,0,27.2,0,40.9c0,2.1,0.1,3.4,2.9,3.3c20.9-0.1,41.7-0.1,62.6,0c2.3,0,3-0.6,3-2.9
			c-0.2-7.1-0.5-14.3,0.1-21.4c0.6-7.9-1.5-15.5-0.4-23.5c0.8-6.4,1.9-13.4-1.2-19.8c-0.2-0.5-0.1-1.4,0.2-1.8
			c1.8-2,1.3-4.4,1.3-6.8c0-9.5-0.1-19,0.1-28.5c0.1-3.2-0.6-4.4-4.2-4.4c-20.1,0.2-40.2,0.2-60.4,0c-3,0-4,0.6-4,3.8
			c0.2,13.5,0.1,27,0.1,40.5C45.6,70.4,44.8,70.4,44,70.4z"/>
		<path class="st2" d="M44,70.4c0.8,0,1.6,0,2.4,0c1.1,0.1,2.2,0.1,3.1,1c0,0.5,0,0.9,0,1.4c-2.6,0.7-0.9,3.6-2.4,4.9
			c-1.4-2.1-2.3-0.7-3.2,0.5c-1.4-0.7-1-2-1.1-3.2c-0.3-2.1-1.4-2.3-3-1.4c-0.3-0.3-0.6-0.5-0.9-0.8C40.1,71,41.9,70.5,44,70.4z"/>
		<path class="st3" d="M38.8,72.8c0.3,0.3,0.6,0.5,0.9,0.8c-5,6.3-4,11.1,3,15.4c0.8,0.5,1.5,0.9,1.6,1.9l-0.2,0.1c0,0-0.2,0-0.2,0
			c-4.2-0.9-7.5-3-8.6-7.3C34.3,79.5,34.7,75.4,38.8,72.8z"/>
		<path class="st0" d="M49.5,71.3c-0.9-0.8-2-0.9-3.1-1c0-13.5,0.1-27-0.1-40.5c0-3.2,1-3.9,4-3.8c20.1,0.1,40.2,0.2,60.4,0
			c3.6,0,4.3,1.2,4.2,4.4c-0.2,9.5-0.1,19-0.1,28.5c0,2.3,0.5,4.7-1.3,6.8c-0.3,0.4-0.4,1.3-0.2,1.8c3.1,6.4,2.1,13.4,1.2,19.8
			c-1,8,1,15.7,0.4,23.5c-0.5,7.1-0.2,14.2-0.1,21.4c0,2.3-0.7,2.9-3,2.9c-20.9-0.1-41.7-0.1-62.6,0c-2.8,0-2.9-1.2-2.9-3.3
			c0.1-13.6,0-27.2,0-40.9c2.4-0.2,4.3-1.5,6.1-3C57.5,81,56.3,74.7,49.5,71.3z M82.2,72.4C79,71.5,77.4,72,76.1,74
			c-1.1,1.6-2.4,3-4.2,5.3c0-2.3,0-3.6,0-4.9c0-1.3,0-2.4-1.9-2.5c-1.9,0-1.9,1.1-1.9,2.4c0,3.9-0.1,7.7,0.1,11.6
			c0,1.2-1.1,3.2,1.6,3.4c2.8,0.2,1.9-1.9,2.1-3.3c0.2-1.2-0.6-2.9,0.9-3.3c1.6-0.5,1.7,1.4,2.4,2.3c1.6,2.1,2.3,5.6,6.4,3.9
			c-0.3-0.6-0.4-1.2-0.8-1.6C76.4,82.2,74.9,77.3,82.2,72.4z M88.1,76.7c0,3.6,0,6.9,0,10.2c0,1.4,0.2,2.4,2,2.3
			c1.7-0.1,1.6-1.2,1.6-2.3c0-3.7,0.1-7.4,0-11.2c0-1.2,0.8-3-0.8-3.7c-1.7-0.8-3.1,0.4-4.3,1.5c-0.7,0.6-1.5,1.3-2.3,1.9
			c-0.5,0.4-0.9,0.9-0.4,1.5c0.4,0.6,0.9,1.3,1.8,0.9C86.5,77.5,86.9,76.6,88.1,76.7z"/>
		<path class="st4" d="M52.5,87.8c-1.8,1.5-3.7,2.8-6.1,3c-0.7,0-1.4,0-2.1-0.1c-0.1-1-0.8-1.4-1.6-1.9c-7-4.2-8-9.1-3-15.4
			c1.6-0.9,2.8-0.7,3,1.4c0.1,1.1-0.3,2.5,1.1,3.2c-1.6,2-2.9,4-0.8,6.6c0.7-1.1,0.6-2.6,2-3c0.3,1.5,0.6,2.9,0.7,4.4
			c0.2,3.2,1,3.7,3.7,2c0.8-0.5,1.6-1.2,2.3-1.8C52,86.8,52.3,87.3,52.5,87.8z"/>
		<path class="st5" d="M51.7,86.2c-0.8,0.6-1.5,1.3-2.3,1.8c-2.7,1.6-3.5,1.1-3.7-2c-0.1-1.5-0.5-2.9-0.7-4.4
			c2.4-1.6,1.3,2.3,3.1,1.9c1.9-2.3-0.4-4-1-5.9c1.5-1.3-0.2-4.2,2.4-4.9C54.6,76.9,55.3,80.8,51.7,86.2z"/>
		<path class="st6" d="M51.7,86.2c3.5-5.4,2.9-9.4-2.3-13.5c0-0.5,0-0.9,0-1.4c6.8,3.3,8,9.7,3,16.5C52.3,87.3,52,86.8,51.7,86.2z"
			/>
		<path class="st7" d="M82.2,72.4c-7.3,4.9-5.8,9.8-1.4,14.8c0.4,0.4,0.5,1.1,0.8,1.6c-4.2,1.7-4.8-1.8-6.4-3.9
			c-0.7-0.9-0.8-2.8-2.4-2.3c-1.5,0.4-0.7,2.1-0.9,3.3c-0.2,1.4,0.8,3.5-2.1,3.3c-2.6-0.2-1.5-2.1-1.6-3.4c-0.1-3.9,0-7.7-0.1-11.6
			c0-1.3-0.1-2.4,1.9-2.4c1.9,0,1.9,1.1,1.9,2.5c0,1.3,0,2.6,0,4.9c1.8-2.2,3.1-3.7,4.2-5.3C77.4,72,79,71.5,82.2,72.4z"/>
		<path class="st8" d="M88.1,76.7c-1.2-0.1-1.6,0.8-2.4,1.2c-0.9,0.4-1.3-0.3-1.8-0.9c-0.5-0.7-0.1-1.1,0.4-1.5
			c0.8-0.6,1.6-1.2,2.3-1.9c1.2-1.1,2.6-2.3,4.3-1.5c1.5,0.7,0.7,2.4,0.8,3.7c0.1,3.7,0,7.4,0,11.2c0,1.1,0.1,2.2-1.6,2.3
			c-1.8,0.1-2-0.9-2-2.3C88.1,83.6,88.1,80.2,88.1,76.7z"/>
	</g>
</g>
</svg>
