<?xml version="1.0" encoding="utf-8"?>
<!-- Generator: Adobe Illustrator 19.0.0, SVG Export Plug-In . SVG Version: 6.00 Build 0)  -->
<svg version="1.1" id="Layer_1" xmlns="http://www.w3.org/2000/svg" xmlns:xlink="http://www.w3.org/1999/xlink" x="0px" y="0px"
	 viewBox="0 0 211 213" style="enable-background:new 0 0 211 213;" xml:space="preserve">
<style type="text/css">
	.st0{fill:#F8C610;}
	.st1{fill:#282519;}
	.st2{fill:#C34F3D;}
	.st3{fill:#F8C510;}
	.st4{fill:#DD254B;}
</style>
<g>
	<g>
		<path class="st0" d="M105.5,9c20.5,0,41-0.1,61.5,0c18.1,0.2,36,18.2,36,36.5c0.1,40.8,0.5,81.6-0.2,122.4
			c-0.3,18.1-13.3,32-31,36.1c-3.6,0.8-7.2,1-10.9,1c-37.5,0-75-0.3-112.5,0C25.5,205.2,6.8,188,6.9,163.4c0.3-37.6,0.2-75.3,0-113
			c-0.1-19,11.4-36.2,30.7-40.6C39.4,9.4,41.1,9,43,9c10.5,0,21,0,31.5,0C84.8,8.9,95.1,8.9,105.5,9C105.5,9,105.5,9,105.5,9z
			 M61.5,120.9c0,19.1,0.1,38.3,0,57.4c0,3.4,0.9,4.6,4.4,4.6c29.8-0.1,59.6-0.1,89.4,0c3.4,0,4.2-1.2,4.2-4.3
			c-0.1-13.8-0.1-27.6,0-41.5c0-3.1-0.5-6.2,2.1-8.9c1.2-1.2,1-3.4-0.3-4.6c-2.1-1.9-1.8-4.2-1.8-6.4c0-5.2-0.1-10.3,0-15.5
			c0.1-4-1.1-8.3,2.3-11.8c1-1,0.7-3.1-0.5-4.2c-2.1-1.8-1.8-4.1-1.8-6.4c0-14.7-0.1-29.3,0.1-44c0-3.3-0.5-4.6-4.3-4.6
			c-29.8,0.2-59.6,0.2-89.4,0c-3.6,0-4.4,1.2-4.3,4.5c0.1,19.1,0.1,38.3,0.1,57.4c-3.8,1.3-7.5,2.4-9.7,6.3
			C46.5,108.3,50,116.4,61.5,120.9z"/>
		<path class="st1" d="M61.6,92.8c0-19.1,0.1-38.3-0.1-57.4c0-3.4,0.7-4.6,4.3-4.5c29.8,0.1,59.6,0.2,89.4,0c3.7,0,4.3,1.3,4.3,4.6
			c-0.2,14.6-0.1,29.3-0.1,44c0,2.3-0.3,4.6,1.8,6.4c1.2,1,1.5,3.1,0.5,4.2c-3.4,3.5-2.2,7.8-2.3,11.8c-0.1,5.2-0.1,10.3,0,15.5
			c0,2.3-0.3,4.6,1.8,6.4c1.3,1.2,1.5,3.3,0.3,4.6c-2.6,2.6-2.1,5.8-2.1,8.9c0,13.8-0.1,27.6,0,41.5c0,3.1-0.7,4.3-4.2,4.3
			c-29.8-0.1-59.6-0.1-89.4,0c-3.6,0-4.5-1.2-4.4-4.6c0.1-19.1,0-38.3,0-57.4c1.1,0,2.2,0.1,3.3,0.1c0,18,0.1,36,0,54
			c0,3.5,0.9,4.5,4.4,4.5c27.5-0.1,55-0.1,82.5,0c3.5,0,4.5-1,4.5-4.5c-0.2-13.7,0-27.3-0.1-41c0-4.4-1-8.6-0.6-13.4
			c0.9-10.1,2.9-20.8-1.4-30.9c-0.5-1.1-0.6-2.5,0.3-3.3c2.2-2.2,1.7-4.9,1.7-7.5c0-13.3-0.2-26.7,0.1-40c0.1-4-1.1-4.9-5-4.9
			c-27.2,0.2-54.3,0.2-81.5,0c-4,0-5,1-4.9,5c0.2,18,0,36,0,54c-0.9,0-1.8,0-2.7,0.1C62,92.8,61.8,92.7,61.6,92.8z"/>
		<path class="st2" d="M64.8,121c-1.1,0-2.2-0.1-3.3-0.1c-11.5-4.6-15-12.6-9.7-21.8c2.2-3.8,6-5,9.7-6.3c0.2-0.1,0.4,0,0.5,0.2
			c-0.1,2.7-2.5,2.7-4.1,3.6c-7.7,4.4-8.3,14.5-1.1,19.7c1.2,0.9,2.8,2.5,4.3,0.8c1.8-2,0.6-3.6-1.2-4.9c1.6-1,0.6-4.7,3.7-4.1
			c1.8,0.3,2.1,2.2,2.2,3.8c-0.2,2.7,0.1,5.4,1,8C66.3,120.3,65.6,120.6,64.8,121z"/>
		<path class="st3" d="M64.8,121c0.7-0.4,1.4-0.7,2.1-1.1c5.8-1.7,9.7-6.3,10.1-11.8c0.4-6.9-1.5-9.6-8.9-12.5
			c-1.3-0.5-2.8-1.2-3.4-2.7c0-18,0.2-36,0-54c0-3.9,1-5,4.9-5c27.2,0.2,54.3,0.2,81.5,0c3.9,0,5.1,0.9,5,4.9
			c-0.3,13.3-0.1,26.7-0.1,40c0,2.6,0.5,5.3-1.7,7.5c-0.8,0.9-0.7,2.3-0.3,3.3c4.3,10.1,2.2,20.8,1.4,30.9
			c-0.4,4.7,0.6,8.9,0.6,13.4c0.1,13.7-0.1,27.3,0.1,41c0,3.5-1,4.5-4.5,4.5c-27.5-0.1-55-0.1-82.5,0c-3.5,0-4.5-1-4.4-4.5
			C65,157,64.9,139,64.8,121z M98.8,104.4c0-2.7-0.1-4.5,0-6.3c0.1-1.9-0.2-3.2-2.6-3.1c-2.2,0-2.3,1.2-2.3,2.9
			c0,5.8,0.1,11.6,0,17.4c-0.1,2.7,1.3,3.1,3.3,2.8c2.6-0.5,1.4-2.6,1.6-4c0.3-1.6-0.8-3.9,1.1-4.5c2.4-0.8,2.5,2.1,3.5,3.3
			c2.1,2.8,3.1,7,8.3,4.7c-0.5-0.9-0.8-1.8-1.4-2.5c-5.5-6.1-6.7-12.1,0.4-17.9c0.4-0.4,0.6-1.1,0.9-1.7
			C108.2,95.1,108.2,95.1,98.8,104.4z M119.9,114c2.4-2.5,4.1-4.2,5.8-6c2.7-3,4.7-6.3,2-10.2c-2.1-3.1-7.4-3.7-11.4-1.4
			c-1,0.6-3.3,0.8-1.9,3.1c0.9,1.5,2,1.9,3.7,0.8c1.7-1.1,3.8-2.1,5.3,0c1.6,2.3,0,4.1-1.4,5.7c-2.3,2.6-4.8,5.1-7.3,7.5
			c-1,1-1.6,2.3-1,3.6c0.6,1.4,2,0.8,3.1,0.8c3.5,0.1,7,0,10.5,0c1.4,0,2.2-0.5,2.2-2c0-1.5-0.6-2.1-2.1-2.1
			C125.2,114.1,123,114,119.9,114z"/>
		<path class="st4" d="M64.7,92.9c0.7,1.5,2.1,2.1,3.4,2.7c7.3,2.9,9.2,5.5,8.9,12.5c-0.3,5.5-4.3,10.2-10.1,11.8
			c-0.9-2.6-1.2-5.3-1-8c4.9-3.9,0.7-6.7-1.1-9.9c0.7-1.5,1.8-2.9-0.1-4.6c-1,1.3-0.6,2.6-0.8,3.8c-3.1,3-7.1,5.8-4,11
			c1.8,1.3,3,2.9,1.2,4.9c-1.6,1.7-3.1,0.1-4.3-0.8c-7.2-5.2-6.6-15.3,1.1-19.7c1.6-0.9,4-1,4.1-3.6C63,93,63.8,93,64.7,92.9z"/>
		<path class="st1" d="M98.8,104.4c9.4-9.4,9.4-9.4,12.8-9.1c-0.3,0.6-0.5,1.4-0.9,1.7c-7.1,5.8-5.9,11.8-0.4,17.9
			c0.6,0.7,0.9,1.7,1.4,2.5c-5.2,2.3-6.3-1.9-8.3-4.7c-1-1.3-1.1-4.2-3.5-3.3c-1.8,0.6-0.8,2.9-1.1,4.5c-0.3,1.4,0.9,3.6-1.6,4
			c-2.1,0.4-3.4-0.1-3.3-2.8c0.2-5.8,0.1-11.6,0-17.4c0-1.6,0.1-2.8,2.3-2.9c2.4,0,2.7,1.3,2.6,3.1C98.8,99.9,98.8,101.7,98.8,104.4
			z"/>
		<path class="st1" d="M119.9,114c3.1,0,5.3,0,7.4,0c1.5,0,2.1,0.6,2.1,2.1c0,1.5-0.7,2-2.2,2c-3.5,0-7,0-10.5,0
			c-1.1,0-2.5,0.5-3.1-0.8c-0.6-1.3-0.1-2.6,1-3.6c2.4-2.5,4.9-4.9,7.3-7.5c1.4-1.6,3.1-3.5,1.4-5.7c-1.6-2.2-3.7-1.1-5.3,0
			c-1.7,1.1-2.8,0.7-3.7-0.8c-1.4-2.2,1-2.5,1.9-3.1c3.9-2.3,9.3-1.6,11.4,1.4c2.7,4,0.8,7.2-2,10.2
			C124,109.9,122.3,111.6,119.9,114z"/>
		<path class="st2" d="M64.9,102c-0.3-0.3-0.6-0.6-0.9-0.8c0.1-1.2-0.2-2.5,0.8-3.8C66.7,99.1,65.6,100.5,64.9,102z"/>
	</g>
</g>
</svg>
