<?xml version="1.0" encoding="utf-8"?>
<!-- Generator: Adobe Illustrator 19.0.0, SVG Export Plug-In . SVG Version: 6.00 Build 0)  -->
<svg version="1.1" id="Layer_1" xmlns="http://www.w3.org/2000/svg" xmlns:xlink="http://www.w3.org/1999/xlink" x="0px" y="0px"
	 viewBox="0 0 167.3 162" style="enable-background:new 0 0 167.3 162;" xml:space="preserve">
<style type="text/css">
	.st0{fill:#F8C510;}
	.st1{fill:#F7C410;}
	.st2{fill:#483E18;}
	.st3{fill:#221F19;}
	.st4{fill:#1E1E1A;}
	.st5{fill:#1C1602;}
	.st6{fill:#312703;}
	.st7{fill:#292103;}
	.st8{fill:#362B04;}
	.st9{fill:#423504;}
	.st10{fill:#0E0B01;}
	.st11{fill:#040300;}
	.st12{fill:#715D16;}
	.st13{fill:#D4A413;}
	.st14{fill:#213117;}
	.st15{fill:#382A19;}
	.st16{fill:#2E2818;}
	.st17{fill:#3B3018;}
	.st18{fill:#9E5D19;}
	.st19{fill:#444217;}
	.st20{fill:#362F18;}
	.st21{fill:#678B10;}
</style>
<g>
	<g>
		<path class="st0" d="M88.1,156.7c-15.7,0-31.5,0.2-47.2-0.1c-12.8-0.2-25.8-13.2-25.8-25.9c-0.2-31.5-0.5-63,0.1-94.4
			C15.4,22.9,26,12.9,39,10.5c4.4-0.8,8.9-0.8,13.4-0.8c25.9,0,51.7-0.1,77.6,0c12.6,0.1,22.6,5,28.6,16.7c2.3,4.5,2.9,9.4,2.9,14.4
			c0,28.5-0.2,57,0.1,85.4c0.1,15.7-10.3,27.1-22.6,29.9c-3,0.7-5.9,0.6-8.9,0.7c-7,0.1-14,0-21,0c-7,0-14,0-21,0
			C88.1,156.9,88.1,156.8,88.1,156.7z M133.5,30c0.3-0.8-0.2-0.8-0.8-0.8l0.1,0c-1.3-1.5-3.1-1.2-4.8-1.2c-26.6,0-53.2,0-79.7,0
			c-1.7,0-3.5-0.4-4.8,1.2l0.1,0c-0.5,0-1,0-0.8,0.8l0.1,0c-1.3-0.3-1.4,0.9-1.9,1.5c-0.1,0.1-0.2,0.3-0.3,0.4c0,0.3,0,0.7,0,1
			c0,5.5,0,11,0,16.5c-0.1,1.4-0.2,2.9,1.8,3c0.2,0.5,0.5,1,0.7,1.5c1.5,1.2,3.3,0.9,5,0.9c12,0,23.9,0,35.9,0
			c1.3,0,2.7-0.6,3.9,0.6c-0.2,3-1,6.1,0.5,9.1c0.8,1,1.9,1.7,3,2.2c-0.2,0.3-0.4,0.5-0.6,0.8c-1.8,0.5-5-0.1-5.3,1.4
			c-0.3,1.7,2.7,1.7,4.3,2.4c1.2,2.1-1.4,1-1.6,1.9c-1,0.3-2.7-0.2-2.9,1c-0.2,1.1,1.4,0.9,2.2,1.3c0.5,0.3,1.4-0.1,1.4,0.8
			c0,0.8-0.9,0.6-1.4,0.9c-0.7,0.5-2.4,0.1-2.2,1.4c0.2,1.1,1.7,0.6,2.6,1.1c0.4,0.2,1,0.2,1.4,0.2c0.2,0,0.5,0.1,0.7,0.1
			c-0.4,1.3-1.7,1.1-2.7,1.5c-0.8,0.4-2.3,0.3-2.1,1.4c0.2,1.2,1.6,0.8,2.5,0.8c0.4,0.7,2.2-0.1,1.5,1.6c-0.7,0.2-1.4,0.4-2.1,0.7
			c-0.7,0.3-2.1,0.4-1.9,1.3c0.2,1.2,1.6,0.8,2.6,0.9c0.5,0.5,1.8,0.2,1.5,1.5c-1.5,0.4-4.1,0.3-4,1.8c0.1,1.7,2.5,1.1,4,1.2
			c0.3,0.2,1,0.1,0.7,0.8c-1.7,0.6-4.7,0.8-4.7,2.3c0,1.8,3,1.5,4.6,2c2,0.6,2,1.4,1,2.8c-1.2,1.3-2.4,2.6-3.1,4.2
			c-0.4,2.5-0.5,5,0,7.5c-1.1,1.3-2.6,0.6-3.8,0.6c-13,0.1-26,0.2-39,0.2c-1.2-0.1-2,0.5-2.7,1.4c-0.1,0.1-0.2,0.3-0.3,0.4
			c-1,0.6-1.5,1.5-1.4,2.7c0,5.7,0,11.4,0,17.1c-0.1,1.1,0,2.1,1.4,2.3l0,0c-0.3,1,0.2,1.4,1.1,1.5l0,0c1.2,1.3,2.7,1,4.2,1.1
			c26.9,0.1,53.9,0.2,80.8,0.2c1.6,0,3.5,0.5,4.7-1.2l0,0c1.2,0.3,1.8-0.1,1.5-1.5l0,0c0.7,0.2,0.8-0.2,0.7-0.7l0,0.1
			c1-1,0.7-2.3,0.8-3.5c0-4.8,0-9.7,0-14.5c0.2-1.4-0.1-2.6-1.5-3.4c-0.1-0.1-0.2-0.2-0.3-0.4c-0.4-0.3-0.8-0.5-1.2-0.8l0.1,0.1
			c-1.4-1.3-3.1-0.8-4.6-0.8c-12,0-24,0-36-0.1c-1.3,0-2.8,0.6-3.9-0.6c0.2-2.5,0.4-5,0.6-7.4c1.3-0.9,2-2.2,2.8-3.5
			c2.8-3.3,2.9-3.3-1.3-4.7c-1.3-0.5-2.3-0.7-0.5-1.9c1.3-0.6,3.7-0.5,3.7-2.1c0-1.2-2.3-0.5-3.5-0.8c-0.2-0.6-0.1-1,0.5-1.3
			c1.1-0.5,3.2-0.1,3.1-1.7c0-1-2-0.9-3.2-1.2c-0.2-0.1-0.5,0-0.7,0c-0.3-0.2-1.2-0.1-0.8-0.9c0.5-0.1,0.9-0.2,1.4-0.4
			c1.2-0.5,3.3-0.4,3.3-1.6c-0.1-1.6-2.2-1.1-3.5-1.5c-0.1,0-0.2,0-0.4,0c-0.1-0.2-0.4-0.4-0.3-0.5c0.1-0.2,0.3-0.3,0.5-0.4
			c1.2-0.8,3.3-0.1,3.7-1.8c0.2-0.8-1.3-1.1-2.4-1c-0.8-0.2-1.5-0.4-2.3-0.6c0-1.1,1-0.7,1.6-1.1c1-0.7,3.1-0.1,3-1.5
			c-0.1-1.4-2.2-1-3.4-1.4c-0.1,0-0.2,0-0.4,0c-0.1-0.3-0.2-0.5-0.3-0.8c0.7-0.2,1.4-0.4,2.1-0.6c0.8-0.2,2-0.3,2.1-1.1
			c0.1-1.2-1.3-1.2-2.1-1.5c-0.3-0.1-0.7-0.2-1-0.3c-0.4-0.3-1.2-0.7-1.3-1.1c-0.1-0.7,0.9-0.3,1.3-0.7c1.2,0,2.7,0,3.2-1
			c0.5-0.9-0.9-1.4-1.7-1.8c-0.9-0.6-1.7-1.1-2.6-1.7c-2.1-2.7-0.2-6-1.2-8.9c1.1-1.2,2.6-0.6,3.9-0.6c13.2-0.1,26.5-0.2,39.7-0.3
			c0.9-0.3,2-0.4,1.5-1.8c0.1-0.1,0.3-0.2,0.4-0.4c2,0.3,1.8-1.1,1.8-2.3c0-5.7,0-11.4,0-17.1c0-1,0.1-2.2-1.4-2.3l0,0
			C134.4,30.1,134.2,29.8,133.5,30L133.5,30z"/>
		<path class="st1" d="M40.5,31.9c0.1-0.2,0.2-0.3,0.3-0.4c1.5,0.5,1.6-0.6,1.9-1.5c0,0-0.1,0-0.1,0c0.5,0,1-0.1,0.8-0.8
			c0,0-0.1,0-0.1,0c29.8,0,59.5,0,89.3,0c0,0-0.1,0-0.1,0c-0.2,0.7,0.2,0.8,0.8,0.8c0,0,0,0,0,0c0,0.5,0.2,0.9,0.8,0.8c0,0,0,0,0,0
			c-0.3,0.9-0.1,1.6,0.6,2.2c0,5.8,0,11.5-0.1,17.3c-0.7,0.6-0.8,1.4-0.9,2.2c-0.1,0.1-0.3,0.2-0.4,0.4c-0.5,0.3-1,0.7-1.5,1
			c-1.9,0-3.7,0.1-5.6,0.1c-27.8,0-55.5,0-83.3,0c-0.2-0.5-0.5-1-0.7-1.5c-0.3-1-0.7-2-1-3c-0.2-5.8,0.6-11.7-0.5-17.5L40.5,31.9z
			 M84.8,43.5c-0.1,0.8-0.1,1.6,0.9,2c3.2-0.3,2.2-3.3,3.2-5c0.3-0.5,1.2-1.7,0-2.1c-1.2-0.4-1,1.1-1.4,1.7c-0.5,0.6,0,2-1.2,1.9
			c-0.8-0.1-0.7-1.2-1-1.8c-0.7-1.4-0.7-1.4-2-1c-0.1,0.9,0.2,1.5,0.7,2.2l0,0.1C83.8,42.1,84.1,42.9,84.8,43.5L84.8,43.5z
			 M100.8,45.1c0.1-1.6-3.6-0.4-2.2-2.9c0.7,0,1.8,0.2,1.8-0.4c0-1.1-1.2-0.6-1.8-0.7c0-0.6-0.3-1.2,0.6-1.6c0.6-0.2,1.7,0,1.8-0.9
			c0-0.7-0.9-0.7-1.5-0.7c-0.9,0.1-2.4-0.4-2.5,0.9c-0.1,2.2-1,4.6,0.7,6.6c1,0.2,2.1,0.4,3.1-0.2l0.2,0.1L100.8,45.1z M75.7,41.9
			c0,0.4,0,0.7,0,1.1c0.1,0.8-0.4,2.1,0.6,2.3c1.3,0.2,0.8-1.2,1-1.9c0.2-0.8,0.6-1,1.3-1c0.8,0,1.4,0.2,1.6,1.2
			c0.1,0.7-0.2,1.8,0.8,1.7c1.2-0.1,0.8-1.3,0.8-2.1c0.1-1.2,0-2.5,0-3.7c0-0.6,0.1-1.3-0.8-1.4c-0.7,0-0.8,0.5-0.8,1
			c0,1-0.2,1.7-1.4,1.8c-1.1,0.1-1.6-0.5-1.6-1.5c0-0.5-0.1-1.1-0.7-1.1c-0.9,0-0.7,0.8-0.8,1.4C75.6,40.4,75.7,41.1,75.7,41.9z
			 M90.9,42.2c0.2,0.7-0.7,2.6,0.5,3c1.6,0.4,0.5-1.8,1.4-2.4c0.3-0.2,0.8-0.2,1-0.5c0.7-1.3-1.2-3.3,1.2-4.1
			c-0.3-0.1-0.7-0.2-1-0.3C90.4,37.3,90.7,39.6,90.9,42.2z"/>
		<path class="st1" d="M43.1,138.7C43.1,138.7,43.1,138.7,43.1,138.7c0.5-1.1-0.2-1.3-1.1-1.5c0,0,0,0,0,0c0.3-0.9,0-1.6-0.6-2.2
			c0-5.8,0-11.5,0-17.3c0.7-0.7,1.2-1.5,0.6-2.6c0.1-0.1,0.2-0.3,0.3-0.4c1.1,0.5,1.8-0.3,2.7-0.8c29.3,0,58.5,0,87.8,0.1l-0.1-0.1
			c0,0.9,0.5,1,1.2,0.8c0.1,0.1,0.2,0.3,0.3,0.4c-0.6,1.3,0.1,2.3,0.7,3.4c0,6,0,12,0.1,18.1c0,0,0-0.1,0-0.1
			c-0.8-0.4-0.8,0.2-0.7,0.7c0,0,0,0,0,0c-1,0-1.7,0.3-1.5,1.5c0,0,0,0,0,0C102.9,138.7,73,138.7,43.1,138.7z M84,127.6L84,127.6
			c-0.5,1.9,0.3,2.9,2.2,2.8c1.4-2.4,1.3-4.9,0-7.3c-0.2-0.1-0.4-0.1-0.6,0c-1.6,0.8-0.2,2.7-1.3,3.7c-0.6-0.8-0.7-1.8-1.7-2.3
			l0.1,0c-0.5-1.5-1.8-2.4-2.3-0.7c-0.5,2-1.1,4.5,0.6,6.6c1.7-1.1,0.3-3.1,1.2-4.4C82.7,126.6,82.5,128,84,127.6z M110.3,129.8
			c2.1-1.6,1-2.7-0.6-3.7c-1.7-1-2.3-1.6,0.3-1.7c0.5,0,1-0.2,0.8-0.9c-0.1-0.3-0.5-0.5-0.8-0.5c-1.2-0.1-2.6-0.4-3.3,1
			c-0.6,1.2-0.1,2.1,1,2.8c0.8,0.5,2.1,0.6,1.6,2.1c-0.9,0.3-1.9-0.6-2.8,0.2c-0.1,0.1-0.1,0.5,0.1,0.7c0.9,1,1.9,0.8,3,0.5
			C109.9,130.2,110.1,129.9,110.3,129.8z M76.5,123.7c-2-1.8-2.4-0.2-3.2,1.3c-0.8,1.5,0,4.1-2.8,4.3c-1.3-0.6-3.5,0-3.5-2.4
			c0-1.9,0.9-2.7,2.8-2.5c0.6,0.1,1-0.4,0.8-0.9c-0.1-0.3-0.8-0.5-1.2-0.6c-1.6-0.2-3,0.1-3.7,1.7c-0.8,1.7-0.8,3.5,0.7,4.8
			c1.2,1.1,2.8,1.8,4.1,0c1.1-0.2,2.1,2.1,3.3-0.1c0.5-0.9,1.8-0.8,2.6-0.1c0.6,0.5,1,1.7,2,0.8c0.6-0.6-0.2-1.4-0.3-2
			c-0.2-0.7-0.5-1.4-0.8-2.1C77.4,125.1,77.1,124.4,76.5,123.7z M104.9,126.1c0-0.6,0-1.2,0-1.8c0-0.6-0.2-1.3-1-1.2
			c-0.6,0.1-0.6,0.6-0.7,1.1c-0.3,1.6,0.8,4.4-1.3,4.4c-2.6,0-0.9-2.9-1.5-4.5c-0.2-0.5-0.2-1-0.8-1.1c-0.3,0-0.8,0.2-0.9,0.4
			c-0.4,1.9-0.7,4,0.4,5.7c0.8,1.2,2.2,1.6,3.6,1.1C104.9,129.6,105.1,127.9,104.9,126.1z M91.4,126.7c0.4,1.5-1,4.1,2.3,3.8
			c1.7-0.2,3.6-0.5,3.1-2.6c-0.4-1.9,1.2-5.2-3.1-5C90.4,123,91.9,125.2,91.4,126.7z"/>
		<path class="st2" d="M132.8,29.3c-29.8,0-59.5,0-89.3,0c1.3-1.6,3.1-1.2,4.8-1.2c26.6,0,53.2,0,79.7,0
			C129.7,28.1,131.5,27.8,132.8,29.3z"/>
		<path class="st2" d="M43.1,138.7c29.9,0,59.8,0,89.7,0c-1.2,1.7-3.1,1.2-4.7,1.2c-26.9,0-53.9-0.1-80.8-0.2
			C45.8,139.8,44.2,140,43.1,138.7z"/>
		<path class="st3" d="M43.1,54c27.8,0,55.5,0,83.3,0c1.9,0,3.7-0.1,5.6-0.1c0,0.2,0,0.5,0,0.7c-13.2,0.1-26.5,0.2-39.7,0.3
			c-1.3,0-2.8-0.6-3.9,0.6c-0.2,0-0.3,0-0.5,0c-1.1-1.2-2.6-0.6-3.9-0.6c-12-0.1-23.9,0-35.9,0C46.4,54.9,44.6,55.2,43.1,54z"/>
		<path class="st4" d="M132.8,114c-29.3,0-58.5,0-87.8-0.1c0-0.2,0-0.4,0-0.6c13-0.1,26-0.1,39-0.2c1.3,0,2.7,0.6,3.8-0.6
			c0,0,0.2,0,0.2,0l0.2,0c1.1,1.3,2.6,0.6,3.9,0.6c12,0.1,24,0,36,0.1C129.7,113.2,131.4,112.7,132.8,114z"/>
		<path class="st5" d="M89.3,80.1c-0.5-0.1-1,0-1.4-0.2c-0.9-0.4-2.4,0.1-2.6-1.1c-0.2-1.3,1.4-0.9,2.2-1.4c0.5-0.3,1.4-0.1,1.4-0.9
			c0-0.9-0.9-0.6-1.4-0.8c-0.8-0.4-2.4-0.2-2.2-1.3c0.2-1.3,1.9-0.8,2.9-1c0.3,0.3,0.7,0.5,1,0.8c-0.6,1.2,0.3,0.8,0.9,0.9
			c0.1,0,0.3,0,0.4,0c1.2,0.4,3.3,0,3.4,1.4c0.1,1.4-2,0.8-3,1.5c-0.5,0.4-1.6,0-1.6,1.1C89.2,79.3,89.2,79.7,89.3,80.1z"/>
		<path class="st6" d="M91,100.8c1-1.4,1-2.2-1-2.8c-1.7-0.5-4.6-0.2-4.6-2c0-1.5,2.9-1.7,4.7-2.3c0,0.4,0,0.8,0,1.2
			c-1.8,1.2-0.8,1.4,0.5,1.9c4.1,1.4,4.1,1.5,1.3,4.7C91.5,101.3,91.3,101.1,91,100.8z"/>
		<path class="st7" d="M87.7,84c-0.9-0.1-2.3,0.4-2.5-0.8c-0.2-1.1,1.3-1,2.1-1.4c0.9-0.4,2.2-0.2,2.7-1.5c0.5-0.2,1-0.4,1.5-0.6
			c1-0.1,2.5,0.2,2.4,1c-0.4,1.7-2.5,1-3.7,1.8c-0.2,0.1-0.4,0.2-0.5,0.4c0,0.1,0.2,0.3,0.3,0.5C89.4,84.2,88.5,83.9,87.7,84z"/>
		<path class="st8" d="M87.7,84c0.8-0.1,1.7,0.2,2.3-0.7c0.1,0,0.3,0,0.4,0c1.3,0.4,3.4-0.1,3.5,1.5c0.1,1.2-2.1,1.1-3.3,1.6
			c-0.4,0.2-0.9,0.3-1.4,0.4c0-0.4,0-0.9,0-1.3C89.9,83.9,88.1,84.7,87.7,84z"/>
		<path class="st7" d="M90.7,68.9c-0.4,0.3-1.4-0.1-1.3,0.7c0,0.4,0.8,0.7,1.3,1.1c-0.3,0.3-0.7,0.5-1,0.8c-1.6-0.7-4.6-0.7-4.3-2.4
			c0.3-1.5,3.5-0.9,5.3-1.4C90.7,68,90.7,68.5,90.7,68.9z"/>
		<path class="st9" d="M89.3,92.9c-1.5-0.1-3.9,0.6-4-1.2c-0.1-1.5,2.5-1.4,4-1.8c0.6,0,1.2,0.2,1.5,0.7C90.1,91,90,91.4,90.2,92
			C89.9,92.3,89.6,92.6,89.3,92.9z"/>
		<path class="st4" d="M135,136.6c0-6,0-12-0.1-18.1c0.3,0,0.5,0,0.8,0c0,4.8,0,9.7,0,14.5C135.7,134.2,136,135.5,135,136.6z"/>
		<path class="st3" d="M134.9,50.3c0-5.8,0-11.5,0.1-17.3c0.2,0,0.5,0,0.7,0.1c0,5.7,0,11.4,0,17.1
			C135.4,50.2,135.1,50.2,134.9,50.3z"/>
		<path class="st3" d="M41.4,117.7c0,5.8,0,11.5,0,17.3c-0.3,0-0.5,0-0.8,0c0-5.7,0-11.4,0-17.1C40.9,117.8,41.1,117.8,41.4,117.7z"
			/>
		<path class="st4" d="M40.8,32c1.1,5.8,0.3,11.7,0.5,17.5c-0.3,0-0.5,0-0.8-0.1c0-5.5,0-11,0-16.5C40.6,32.7,40.7,32.4,40.8,32z"/>
		<path class="st8" d="M90.7,90.7c-0.4-0.6-0.9-0.7-1.5-0.7c0.4-1.3-1-1-1.5-1.5c0.8-0.1,1.7,0.2,2.2-0.7c0.2,0,0.5-0.1,0.7,0
			c1.1,0.3,3.1,0.2,3.2,1.2C94,90.6,91.9,90.2,90.7,90.7z"/>
		<path class="st8" d="M89.7,71.4c0.3-0.3,0.7-0.5,1-0.8c0.3,0.1,0.7,0.2,1,0.3c0.8,0.4,2.2,0.3,2.1,1.5c-0.1,0.8-1.2,1-2.1,1.1
			c-0.7,0.2-1.4,0.4-2.1,0.6c-0.2,0-0.4,0-0.6-0.1c-0.3-0.3-0.7-0.5-1-0.8C88.3,72.3,91,73.5,89.7,71.4z"/>
		<path class="st5" d="M90,87.8c-0.5,0.9-1.5,0.5-2.2,0.7c-0.9-0.1-2.3,0.4-2.6-0.9c-0.2-1,1.2-1,1.9-1.3c0.7-0.3,1.4-0.5,2.1-0.7
			c0,0.4,0,0.9,0,1.3C88.8,87.7,89.6,87.6,90,87.8z"/>
		<path class="st10" d="M89.3,92.9c0.3-0.3,0.6-0.6,1-0.9c1.2,0.3,3.5-0.3,3.5,0.8c0,1.6-2.4,1.5-3.7,2.1c0-0.4,0-0.8,0-1.2
			C90.3,93,89.6,93.1,89.3,92.9z"/>
		<path class="st6" d="M91.8,101.5c-0.8,1.3-1.5,2.6-2.8,3.5c-0.4,0-0.8,0-1.1,0c0.7-1.7,1.9-2.9,3.1-4.2
			C91.3,101.1,91.5,101.3,91.8,101.5z"/>
		<path class="st8" d="M90.7,68.9c0-0.4,0-0.8,0-1.3c0.2-0.3,0.4-0.5,0.6-0.8c0.3-0.2,0.6-0.5,0.9-0.7c0.8,0.4,2.2,0.9,1.7,1.8
			C93.5,68.9,91.9,68.9,90.7,68.9z"/>
		<path class="st11" d="M87.9,55.5c0.2,0,0.3,0,0.5,0c1,2.9-0.8,6.2,1.2,8.9c-0.4,0.1-0.9,0.1-1.3,0.2
			C86.8,61.6,87.7,58.6,87.9,55.5z"/>
		<path class="st11" d="M87.9,105c0.4,0,0.8,0,1.1,0c-0.2,2.5-0.4,5-0.6,7.4c0,0-0.2,0-0.2,0s-0.2,0-0.2,0
			C87.4,110,87.4,107.5,87.9,105z"/>
		<path class="st7" d="M88.3,64.6c0.4-0.1,0.9-0.1,1.3-0.2c0.9,0.6,1.7,1.1,2.6,1.7c-0.3,0.2-0.6,0.5-0.9,0.7
			C90.2,66.3,89.2,65.6,88.3,64.6z"/>
		<path class="st12" d="M135.7,118.5c-0.3,0-0.5,0-0.8,0c-0.6-1-1.3-2.1-0.7-3.4C135.6,115.9,135.9,117.1,135.7,118.5z"/>
		<path class="st12" d="M134.9,50.3c0.3,0,0.5,0,0.8-0.1c0,1.2,0.2,2.6-1.8,2.3C134,51.7,134.1,50.8,134.9,50.3z"/>
		<path class="st12" d="M40.5,49.5c0.3,0,0.5,0,0.8,0.1c0.3,1,0.7,2,1,3C40.3,52.3,40.5,50.9,40.5,49.5z"/>
		<path class="st2" d="M45,113.4c0,0.2,0,0.4,0,0.6c-0.8,0.5-1.5,1.3-2.7,0.8C43,113.9,43.8,113.2,45,113.4z"/>
		<path class="st12" d="M41.4,117.7c-0.2,0.1-0.5,0.1-0.7,0.1c-0.1-1.2,0.3-2.1,1.4-2.7C42.6,116.2,42.1,117,41.4,117.7z"/>
		<path class="st12" d="M135.6,33.1c-0.2,0-0.5,0-0.7-0.1c-0.7-0.6-0.9-1.3-0.6-2.2C135.8,30.9,135.7,32,135.6,33.1z"/>
		<path class="st11" d="M91.5,79.6c-0.5,0.2-1,0.4-1.5,0.6c-0.2,0-0.5-0.1-0.7-0.1c0-0.4,0-0.8-0.1-1.2C90,79.2,90.7,79.4,91.5,79.6
			z"/>
		<path class="st12" d="M40.6,135c0.3,0,0.5,0,0.8,0c0.7,0.6,0.9,1.3,0.6,2.2C40.6,137.1,40.5,136.1,40.6,135z"/>
		<path class="st2" d="M42.8,30c-0.3,0.9-0.5,2.1-1.9,1.5C41.4,30.9,41.5,29.7,42.8,30z"/>
		<path class="st12" d="M132.8,138.7c-0.2-1.2,0.5-1.5,1.5-1.5C134.6,138.6,134,139,132.8,138.7z"/>
		<path class="st2" d="M132,54.6c0-0.2,0-0.5,0-0.7c0.5-0.3,1-0.7,1.5-1C133.9,54.2,132.8,54.3,132,54.6z"/>
		<path class="st2" d="M89.2,74.1c0.2,0,0.4,0.1,0.6,0.1c0.1,0.3,0.2,0.5,0.3,0.8C89.5,74.9,88.6,75.3,89.2,74.1z"/>
		<path class="st12" d="M42,137.3c0.8,0.1,1.5,0.4,1.1,1.5C42.2,138.7,41.7,138.3,42,137.3z"/>
		<path class="st4" d="M133.9,114.8c-0.7,0.2-1.2,0.1-1.2-0.8C133.1,114.2,133.5,114.5,133.9,114.8z"/>
		<path class="st2" d="M134.3,30.8c-0.6,0.1-0.8-0.3-0.8-0.8C134.2,29.8,134.4,30.1,134.3,30.8z"/>
		<path class="st2" d="M133.5,30c-0.6,0-1-0.1-0.8-0.8C133.3,29.2,133.8,29.2,133.5,30z"/>
		<path class="st2" d="M43.5,29.2c0.2,0.7-0.3,0.8-0.8,0.8C42.5,29.3,43,29.2,43.5,29.2z"/>
		<path class="st13" d="M40.8,32c-0.1,0.3-0.2,0.6-0.3,1c0-0.3,0-0.7,0-1C40.5,31.9,40.8,32,40.8,32z"/>
		<path class="st12" d="M134.3,137.2c-0.1-0.6-0.1-1.1,0.7-0.7C135.1,137.1,135,137.5,134.3,137.2z"/>
		<path class="st14" d="M75.7,41.9c0-0.7,0-1.5,0-2.2c0-0.5-0.2-1.4,0.8-1.4c0.6,0,0.7,0.6,0.7,1.1c0,1.1,0.5,1.6,1.6,1.5
			c1.2-0.1,1.4-0.8,1.4-1.8c0-0.5,0.2-1,0.8-1c0.9,0.1,0.8,0.8,0.8,1.4c0,1.2,0.1,2.5,0,3.7c0,0.8,0.4,2-0.8,2.1
			c-1,0-0.7-1.1-0.8-1.7c-0.1-1-0.7-1.2-1.6-1.2c-0.7,0-1.1,0.2-1.3,1c-0.2,0.7,0.3,2.1-1,1.9c-1-0.2-0.5-1.5-0.6-2.3
			C75.6,42.6,75.7,42.3,75.7,41.9z"/>
		<path class="st15" d="M90.9,42.2c-0.2-2.6-0.5-4.9,3-4.3c0.4,0.1,0.7,0.2,1,0.3c-2.4,0.8-0.5,2.8-1.2,4.1c-0.1,0.3-0.7,0.2-1,0.5
			c-0.8,0.6,0.3,2.8-1.4,2.4C90.1,44.8,91.1,43,90.9,42.2z"/>
		<path class="st16" d="M83.3,39c1.3-0.4,1.3-0.4,2,1c0.3,0.6,0.2,1.7,1,1.8c1.2,0.1,0.7-1.2,1.2-1.9c0.5-0.6,0.2-2.1,1.4-1.7
			c1.2,0.4,0.4,1.6,0,2.1c-1.1,1.7,0,4.7-3.2,5c-0.3-0.7-0.6-1.3-0.9-2c0,0,0,0,0,0c0.1-0.9-0.1-1.6-0.8-2.3c0,0,0-0.1,0-0.1
			C84.1,40.3,84,39.6,83.3,39z"/>
		<path class="st17" d="M97.5,45.4c-1.6-2.1-0.8-4.4-0.7-6.6c0.1-1.3,1.6-0.8,2.5-0.9c0.6,0,1.5,0,1.5,0.7c0,1-1.1,0.7-1.8,0.9
			c-0.8,0.3-0.6,1-0.6,1.6c-0.3,0.3-0.7,0.7-1,1C97.5,43.1,97.5,44.3,97.5,45.4z"/>
		<path class="st14" d="M97.5,45.4c0-1.1,0-2.2,0-3.3c0.3,0,0.7,0.1,1,0.1c-1.4,2.6,2.3,1.3,2.2,2.9c0,0-0.2,0.1-0.2,0.1
			C99.6,45.8,98.6,45.6,97.5,45.4z"/>
		<path class="st4" d="M98.5,42.2c-0.3,0-0.7-0.1-1-0.1c0.3-0.3,0.7-0.7,1-1c0.7,0.1,1.9-0.4,1.8,0.7
			C100.3,42.4,99.2,42.2,98.5,42.2z"/>
		<path class="st18" d="M84,41.2c0.7,0.6,0.9,1.4,0.8,2.3C84.1,42.9,83.8,42.1,84,41.2z"/>
		<path class="st12" d="M83.3,39c0.7,0.6,0.9,1.3,0.7,2.2C83.5,40.6,83.1,39.9,83.3,39z"/>
		<path class="st18" d="M84.8,43.5c0.3,0.7,0.6,1.3,0.9,2C84.7,45.1,84.7,44.3,84.8,43.5z"/>
		<polygon class="st17" points="100.6,45.2 100.8,45.1 100.8,45.3 		"/>
		<path class="st19" d="M104.9,126.1c0.2,1.9-0.1,3.6-2.1,4.3c-1.4,0.5-2.8,0.1-3.6-1.1c-1.1-1.8-0.8-3.8-0.4-5.7
			c0-0.2,0.6-0.4,0.9-0.4c0.6,0,0.6,0.6,0.8,1.1c0.5,1.6-1.2,4.5,1.5,4.5c2,0,0.9-2.9,1.3-4.4c0.1-0.5,0.2-1,0.7-1.1
			c0.9-0.1,1,0.5,1,1.2C105,124.9,104.9,125.5,104.9,126.1z"/>
		<path class="st16" d="M91.4,126.7c0.4-1.5-1.1-3.7,2.3-3.9c4.4-0.2,2.7,3.2,3.1,5c0.5,2.2-1.4,2.5-3.1,2.6
			C90.4,130.8,91.8,128.2,91.4,126.7z M95.2,128.3c0.1-0.8-0.6-1-1.1-1.2c-0.5-0.1-0.9,0.2-1,0.8c-0.1,0.8,0.4,1.1,1.1,1.1
			C94.6,129,95.1,128.9,95.2,128.3z M93.1,125c0,0.7,0.4,0.9,0.9,0.8c0.3,0,0.8-0.3,0.9-0.5c0.3-0.6-0.1-0.9-0.7-1
			C93.7,124.3,93.3,124.4,93.1,125z"/>
		<path class="st17" d="M70.5,129.3c2.8-0.2,2-2.8,2.8-4.3c0.8-1.5,1.2-3.1,3.2-1.3c-0.1,0.9,0.1,1.7,0.8,2.3
			c0.3,0.7,0.6,1.4,0.8,2.1c0.2,0.7,0.9,1.5,0.3,2c-1,0.9-1.4-0.3-2-0.8c-0.9-0.7-2.2-0.8-2.6,0.1c-1.2,2.2-2.2-0.1-3.3,0.1
			C70.5,129.5,70.5,129.3,70.5,129.3z M75.3,124.6c-0.5,0.9-0.7,1.3-0.9,1.7c-0.2,0.5,0,1,0.6,1c0.7,0,0.7-0.5,0.7-1
			C75.7,125.9,75.6,125.6,75.3,124.6z"/>
		<path class="st15" d="M70.5,129.3c0,0,0,0.2,0,0.2c-1.4,1.8-2.9,1-4.1,0c-1.5-1.3-1.4-3.1-0.7-4.8c0.7-1.6,2.1-2,3.7-1.7
			c0.4,0.1,1.1,0.3,1.2,0.6c0.2,0.5-0.3,1-0.8,0.9c-1.9-0.2-2.9,0.6-2.8,2.5C67,129.3,69.2,128.7,70.5,129.3z"/>
		<path class="st20" d="M109.4,128.9c0.4-1.4-0.9-1.6-1.6-2.1c-1.1-0.7-1.6-1.6-1-2.8c0.7-1.4,2.1-1.2,3.3-1c0.3,0,0.7,0.3,0.8,0.5
			c0.2,0.7-0.3,0.9-0.8,0.9c-2.6,0.1-2,0.7-0.3,1.7c1.5,0.9,2.7,2.1,0.6,3.7C110,129.5,109.7,129.2,109.4,128.9z"/>
		<path class="st4" d="M86.2,130.4c-2,0.1-2.7-0.9-2.3-2.8c0.7,0,1.7,0.6,1.7-0.9c-0.1-1.2,0-2.4,0-3.6c0.2-0.1,0.4-0.1,0.6,0
			C86.2,125.5,86.2,127.9,86.2,130.4z"/>
		<path class="st4" d="M80.9,130.4c-1.6-2-1.1-4.6-0.6-6.6c0.5-1.7,1.8-0.8,2.3,0.7C79.7,125.7,81.6,128.4,80.9,130.4z"/>
		<path class="st17" d="M109.4,128.9c0.3,0.3,0.6,0.6,0.9,0.8c-0.2,0.2-0.4,0.4-0.6,0.5c-1.1,0.4-2.2,0.6-3-0.5
			c-0.1-0.1-0.2-0.6-0.1-0.7C107.5,128.3,108.4,129.3,109.4,128.9z"/>
		<path class="st21" d="M86.2,130.4c0-2.4,0-4.9,0-7.3C87.4,125.5,87.5,127.9,86.2,130.4z"/>
		<path class="st21" d="M80.9,130.4c0.7-1.9-1.2-4.6,1.7-5.9c0,0-0.1,0-0.1,0c-0.1,0.5-0.3,1-0.4,1.5
			C81.2,127.3,82.6,129.2,80.9,130.4z"/>
		<path class="st18" d="M85.6,123.1c0,1.2-0.1,2.4,0,3.6c0.1,1.5-0.9,0.9-1.7,0.9c0,0,0.1,0,0.1,0c0.1-0.3,0.2-0.5,0.3-0.8
			C85.4,125.8,83.9,123.9,85.6,123.1z"/>
		<path class="st4" d="M84.2,126.8c-0.1,0.3-0.2,0.5-0.3,0.8c-1.4,0.4-1.3-1-1.8-1.6c0.1-0.5,0.3-1,0.4-1.5
			C83.5,124.9,83.7,126,84.2,126.8z"/>
		<path class="st21" d="M77.3,126c-0.7-0.6-0.9-1.4-0.8-2.3C77.1,124.4,77.4,125.1,77.3,126z"/>
		<path class="st13" d="M95.2,128.3c-0.1,0.7-0.6,0.7-1.1,0.7c-0.7,0-1.2-0.3-1.1-1.1c0.1-0.6,0.5-0.9,1-0.8
			C94.6,127.2,95.3,127.4,95.2,128.3z"/>
		<path class="st13" d="M93.1,125c0.1-0.6,0.6-0.7,1.1-0.7c0.6,0.1,0.9,0.4,0.7,1c-0.1,0.3-0.6,0.5-0.9,0.5
			C93.6,125.9,93.1,125.7,93.1,125z"/>
		<path class="st13" d="M75.3,124.6c0.2,0.9,0.4,1.3,0.4,1.7c0.1,0.5,0,1-0.7,1c-0.7,0-0.8-0.5-0.6-1
			C74.6,125.9,74.9,125.5,75.3,124.6z"/>
	</g>
</g>
</svg>
