<?xml version="1.0" encoding="utf-8"?>
<!-- Generator: Adobe Illustrator 19.0.0, SVG Export Plug-In . SVG Version: 6.00 Build 0)  -->
<svg version="1.1" id="Layer_1" xmlns="http://www.w3.org/2000/svg" xmlns:xlink="http://www.w3.org/1999/xlink" x="0px" y="0px"
	 viewBox="0 0 174 175.5" style="enable-background:new 0 0 174 175.5;" xml:space="preserve">
<style type="text/css">
	.st0{fill:#F9C610;}
	.st1{fill:#020200;}
	.st2{fill:#AF8C0B;}
	.st3{fill:#2A241F;}
	.st4{fill:#30291F;}
	.st5{fill:#F7E5C8;}
	.st6{fill:#F1E9E7;}
	.st7{fill:#B89415;}
	.st8{fill:#F8ECE5;}
	.st9{fill:#DA2849;}
	.st10{fill:#F4C313;}
</style>
<g>
	<g>
		<path class="st0" d="M165,91.6c0,15,0,30,0,45c0,15.3-13.1,28.4-28.3,28.4c-30.1,0.1-60.2,0-90.3,0c-13.7,0-25.9-11.2-27.8-24.9
			c-0.5-3.7-0.6-7.4-0.6-11.2c0-26.4,0-52.7,0-79.1c0-5.5,1-10.8,3.6-15.8c5.7-10.7,14.9-15.9,26.7-16C77,17.9,105.6,18,134.2,18
			c15.6,0,26.6,8.6,30.4,23.8c0.3,1.4,0.4,2.7,0.4,4.1C165,61.1,165,76.3,165,91.6C165,91.6,165,91.6,165,91.6z M86.7,126.4
			c0.3,0.1,0.7,0.3,1,0.4c0.1,0.3,0.2,0.5,0.3,0.8c-0.7,0-1.4,0.1-1.5,0.8c-0.4,2,0.4,4.4-3,4.7c-0.8,0.1-0.3,1.9,1.2,2.1
			c0,0.2,0,0.3,0.1,0.5c-0.4,2.9-1.2,6.3,1.8,7.8c3.8,1.8,2.8,4.7,2.8,7.4c0,2.3-1.7,2.8-3.6,2.8c-1.9,0-3.5-0.5-3.8-2.7
			c-0.1-1.1-0.1-2.2-0.1-3.4c0-1.4-0.8-1.6-1.9-1.6c-1.1,0-1.7,0.2-1.9,1.6c-1,6.3,2.5,10.2,8.9,9.7c4.3-0.3,6.2-2.6,6.5-7.5
			c0.1-1.7-1-4.1,0.7-4.9c4.6-2,3.6-5.7,3.4-9.2c0.1-0.2,0.1-0.4,0.1-0.6c1.6-0.2,1.8-2.1,1.1-2.1c-4.1-0.2-2-3.8-3.3-5.4
			c0.9-1.1,2.9-1.2,2.9-3.2c0.6-0.1,1.2,0,1.4-0.8c1-1.2,1.7-2.5,1.8-4c0.9,0,1.7,0,2.6,0c7.7,0,9.2-1.5,9.2-9.1c0-17,0-34.1,0-51.1
			c0-3,0.1-6,0.1-9c0-6.4-2.2-8.7-8.6-8.3c-4.1,0.2-5.4-1.2-4.8-5c0.4-2.5-0.6-3.6-3.3-3.5c-3.5,0.2-7,0.1-10.5,0
			c-2-0.1-2.9,0.5-2.9,2.7c-0.2,5.5-0.3,5.5-5.9,5.6c-5,0.1-7.2,2.3-7.4,7.3c-0.1,3.4,0,6.7,0.1,10.1c0,16.1,0,32.2,0,48.4
			c0,11.2,0.7,11.9,11.8,11.8c1.1,1.2,0.7,3.2,2.2,4.2c0.3,0.7,0.8,1.2,1.5,1.5C85.8,125.7,86.2,126.1,86.7,126.4z"/>
		<path class="st1" d="M113.1,59.4c0,17,0,34.1,0,51.1c0,7.7-1.5,9.1-9.2,9.1c-0.9,0-1.7,0-2.6,0c-0.6-1.4,0.7-3.1-0.9-4.3
			c-1.9-7.8-12.2-8.4-15.9-2.9c-3.5,1.4-2.3,4.6-2.9,7.2c-11.1,0.1-11.8-0.6-11.8-11.8c0-16.1,0-32.2,0-48.4
			C84.3,59.1,98.7,59.2,113.1,59.4z"/>
		<path class="st2" d="M113.1,59.4c-14.4-0.3-28.8-0.3-43.2,0c0-3.4-0.2-6.7-0.1-10.1c0.2-5.1,2.5-7.2,7.4-7.3
			c5.6-0.1,5.7-0.1,5.9-5.6c0.1-2.2,0.9-2.8,2.9-2.7c3.5,0.1,7,0.2,10.5,0c2.7-0.2,3.7,1,3.3,3.5c-0.6,3.8,0.7,5.2,4.8,5
			c6.4-0.4,8.5,2,8.6,8.3C113.2,53.4,113.2,56.4,113.1,59.4z"/>
		<path class="st3" d="M97.5,135.8c0.2,3.5,1.2,7.2-3.4,9.2c-1.7,0.7-0.6,3.2-0.7,4.9c-0.3,4.9-2.2,7.2-6.5,7.5
			c-6.4,0.5-9.9-3.4-8.9-9.7c0.2-1.3,0.8-1.6,1.9-1.6c1.1,0,2,0.2,1.9,1.6c0,1.1-0.1,2.3,0.1,3.4c0.3,2.2,1.9,2.7,3.8,2.7
			c1.9,0,3.6-0.5,3.6-2.8c0-2.8,1-5.6-2.8-7.4c-3-1.5-2.2-4.9-1.8-7.8C89,135.7,93.2,135.8,97.5,135.8z"/>
		<path class="st4" d="M95.4,127.7c1.3,1.6-0.9,5.3,3.3,5.4c0.7,0,0.5,1.9-1.1,2.1c-4.3-0.3-8.6-0.3-12.9,0c-1.5-0.2-2-2-1.2-2.1
			c3.4-0.4,2.6-2.8,3-4.7c0.1-0.6,0.8-0.8,1.5-0.8c0,0,0,0,0,0c1.2,1.5-1.2,4.4,2.1,5.1c4.2,0.9,3.9-2,3.9-4.6
			C94.4,128,94.9,127.8,95.4,127.7z"/>
		<path class="st5" d="M88,127.6C88,127.6,88,127.6,88,127.6c-0.1-0.2-0.2-0.5-0.3-0.8c0.3-0.2,0.6-0.4,0.9-0.6
			c3.6,1.5,6.6-0.4,9.7-1.7l0,0c0.1,2-2,2.1-2.9,3.2c-0.5,0.1-0.9,0.3-1.4,0.4C92,127.9,90,127.8,88,127.6z"/>
		<path class="st6" d="M81.7,119.6c0.6-2.5-0.5-5.8,2.9-7.2c-1.7,3.6-2.3,7.1-0.1,10.7c-0.2,0.2-0.4,0.4-0.7,0.7
			C82.4,122.9,82.8,120.8,81.7,119.6z"/>
		<path class="st7" d="M84.7,135.2c4.3-0.3,8.6-0.3,12.9,0c0,0.2,0,0.4-0.1,0.6c-4.3,0-8.5,0-12.8-0.1
			C84.6,135.5,84.6,135.4,84.7,135.2z"/>
		<path class="st8" d="M100.5,115.4c1.6,1.2,0.4,2.9,0.9,4.3c-0.1,1.6-0.8,2.9-1.8,4c-0.2-0.3-0.5-0.5-0.7-0.8
			C100.2,120.6,100.6,118,100.5,115.4z"/>
		<path class="st5" d="M99,122.9c0.2,0.3,0.5,0.5,0.7,0.8c-0.2,0.7-0.8,0.7-1.4,0.8c0,0,0,0,0,0C98.2,123.8,98.3,123.3,99,122.9z"/>
		<path class="st6" d="M85.4,125.3c-0.7-0.3-1.2-0.8-1.5-1.5c0.2-0.2,0.4-0.4,0.7-0.7c0.5,0.5,1,1,1.4,1.5
			C85.8,124.9,85.6,125.1,85.4,125.3z"/>
		<path class="st6" d="M86.7,126.4c-0.4-0.4-0.8-0.7-1.2-1.1c0.2-0.2,0.4-0.4,0.6-0.6c0.4,0.3,0.8,0.7,1.2,1
			C87,126,86.8,126.2,86.7,126.4z"/>
		<path class="st6" d="M88.5,126.2c-0.3,0.2-0.6,0.4-0.9,0.6c-0.3-0.1-0.7-0.3-1-0.4c0.2-0.2,0.4-0.5,0.6-0.7
			C87.6,125.9,88.1,126,88.5,126.2z"/>
		<path class="st9" d="M88.5,126.2c-0.4-0.1-0.9-0.3-1.3-0.4c-0.4-0.3-0.8-0.7-1.2-1c-0.5-0.5-1-1-1.4-1.5
			c-2.3-3.6-1.6-7.2,0.1-10.7c3.6-5.5,13.9-4.9,15.9,2.9c0.1,2.6-0.3,5.2-1.5,7.6c-0.6,0.3-0.8,0.9-0.7,1.5
			C95.1,125.8,92.1,127.7,88.5,126.2z"/>
		<path class="st10" d="M88,127.6c2,0.2,4,0.3,6,0.5c0,2.6,0.4,5.4-3.9,4.6C86.7,132,89.1,129.1,88,127.6z"/>
	</g>
</g>
</svg>
