<?xml version="1.0" encoding="utf-8"?>
<!-- Generator: Adobe Illustrator 19.0.0, SVG Export Plug-In . SVG Version: 6.00 Build 0)  -->
<svg version="1.1" id="Layer_1" xmlns="http://www.w3.org/2000/svg" xmlns:xlink="http://www.w3.org/1999/xlink" x="0px" y="0px"
	 viewBox="0 0 162 165.8" style="enable-background:new 0 0 162 165.8;" xml:space="preserve">
<style type="text/css">
	.st0{fill:#F8C510;}
	.st1{fill:#F35E22;}
	.st2{fill:#DE3153;}
	.st3{fill:#1A170A;}
	.st4{fill:#312C19;}
	.st5{fill:#373A17;}
	.st6{fill:#DCB012;}
	.st7{fill:#2B3617;}
	.st8{fill:#524717;}
	.st9{fill:#4A3E17;}
	.st10{fill:#DF3C5D;}
	.st11{fill:#2F3517;}
	.st12{fill:#373118;}
</style>
<g>
	<g>
		<path class="st0" d="M152.5,95.8c-0.1,12.5,0.1,24.9-0.3,37.4c-0.4,12.2-13.5,24.8-26,25c-15.1,0.2-30.2,0-45.3,0
			c0-47.2,0-94.4,0-141.6c0-0.9,0-1.7-0.1-2.6c-0.1-0.9-0.7-1.2-1.5-1.3c-0.9,0-1.8,0.1-1.9,1.3c-0.1,0.9-0.1,1.7-0.1,2.6
			c0,47.2,0,94.4,0,141.6c-15.2,0-30.5,0.6-45.7-0.2c-13-0.7-24.4-11.1-25.3-24.7c-1-15.2-0.2-30.5-0.2-45.7
			c1.2,0.8,2.3,1.6,3.5,2.4c0,11.1,0,22.2-0.1,33.4c0,2.6,0.9,3.1,3.2,3.1c16-0.1,32-0.1,48,0c2.4,0,3.2-0.6,3.2-3.1
			c-0.1-11.1-0.1-22.1-0.1-33.2c0-7.3,0-14.7,0-22c0-7.2-0.1-14.5,0-21.7c0-2.1-0.2-3.1-2.8-3.1c-16.4,0.1-32.7,0.1-49.1,0
			c-2,0-2.5,0.7-2.5,2.6c0.1,11.4,0.1,22.7,0.1,34.1c-1.2,0.6-2.4,1.1-3.5,1.7c0-15.1-0.9-30.3,0.2-45.3C7.1,24.3,16.4,14.8,29.4,12
			c3.3-0.7,6.7-0.8,10-0.8c27.5,0,54.9-0.1,82.4,0.1c12.4,0.1,21.9,5.4,27.8,16.6c2.3,4.4,2.8,9.2,2.9,14.1
			c0.1,17.2,0.2,34.5,0.3,51.7c0,0.4-0.2,0.7-0.2,1.1c0.2-1.4-1.5-1.7-1.7-2.9c-0.9-4.4-1.9-8.7-2.9-13c0.8-0.6,1.3-1.6,0.7-2.2
			c-2.1-2.1-1.3-4.7-1.4-7.1c-0.1-7.6-0.1-15.2,0-22.9c0-2.3-0.3-3.3-3-3.2c-16.1,0.1-32.2,0.1-48.4,0c-2.2,0-3,0.4-3,2.8
			c0.1,25.7,0.1,51.5,0,77.2c0,2.2,0.4,3.1,2.9,3.1c16.2-0.1,32.5-0.1,48.7,0c2.1,0,2.8-0.6,2.8-2.8c-0.1-8.5,0-17-0.1-25.5
			c0-0.7,0.3-1.6-1.2-1.6c-0.7,1-0.4,2.3-0.4,3.4c0,7.1-0.1,14.2,0,21.4c0.1,2.6-0.6,3.4-3.3,3.4c-14.9-0.1-29.7-0.1-44.6,0
			c-2.3,0-3.3-0.4-3.3-3c0.1-24.6,0.1-49.2,0-73.9c0-2.3,0.5-3,2.9-3c15.1,0.1,30.2,0.1,45.4,0c2.3,0,3,0.6,2.9,2.9
			c-0.5,9.7,0.7,19.5-0.7,29.1c-0.1,0.8,0.3,1.4,1.1,1.8c0.2,0.8,0.4,1.6,0.6,2.5c1.1,3.8,2.8,7.6,2.6,11.4
			C149,95.9,149.8,96.5,152.5,95.8z M125.7,91.6c0.4-4.1-2.4-2.2-4.2-2.3c-0.5,0-1,0-1.4,0c-2-0.8-2.3,1.4-3.5,1.9
			c-0.7-0.5,0-2-1.2-2.1c-1.3,0-0.9,1.2-0.9,2c0,1.6,0,3.2,0.2,4.8c0,0.2,0.5,0.4,0.5,0.5c1.9,0,0.3-2.2,1.8-2.3
			c1.1,0.8,1.2,2.6,2.9,2.6c0.7-0.1,1.3-0.1,2-0.2C126.2,96.5,126.6,96,125.7,91.6z M120,80.9c-1-3-2-5.8-5.5-7.4
			c0,1.8-0.1,3.3,0,4.9c0.1,0.9-0.6,2.3,0.9,2.4c1.2,0.1,0.2-1.8,1.2-2.2C118,79,117.8,81.3,120,80.9z M125.1,77.3
			C125.2,77.3,125.2,77.3,125.1,77.3c0.1-0.7,0.1-1.5,0.1-2.2c0-1-0.3-1.9-1.5-1.3c-0.9,0.4-2.7,1.7-2,2c2,1.2,1.2,3,1.6,4.5
			c0.1,0.5,0.5,0.9,1.1,0.7c0.3-0.1,0.7-0.4,0.7-0.7C125.2,79.3,125.1,78.3,125.1,77.3z"/>
		<path class="st1" d="M77.3,158.2c0-47.2,0-94.4,0-141.6c0-0.9,0-1.7,0.1-2.6c0.1-1.2,1-1.3,1.9-1.3c0.8,0,1.5,0.3,1.5,1.3
			c0.1,0.9,0.1,1.7,0.1,2.6c0,47.2,0,94.4,0,141.6C79.7,158.7,78.5,158.7,77.3,158.2z"/>
		<path class="st2" d="M6.1,81.8c1.2-0.6,2.4-1.1,3.5-1.7c0.5,0,1,0,1.6,0c1,0.1,2,0.4,2.2,1.6c-3.4,1.1-1.8,3.7-1.3,5.5
			c0.5,1.7,1.4-0.5,2.2-0.3c0,2.1-1.9,2.2-3.2,3c-0.5,0-1.1,0-1.6,0.1c-1.2-0.8-2.3-1.6-3.5-2.4C5.4,85.7,5.4,83.8,6.1,81.8z"/>
		<path class="st3" d="M147.9,78.8c1,4.3,2.1,8.7,2.9,13c0.3,1.3,2,1.5,1.7,2.9c0,0.4,0,0.7-0.1,1.1c-2.7,0.6-3.5,0.1-3.2-3.1
			c0.3-3.9-1.5-7.7-2.6-11.4c-0.2-0.8-0.4-1.6-0.6-2.5C146.7,78.8,147.3,78.8,147.9,78.8z"/>
		<path class="st4" d="M11.2,80.1c-0.5,0-1,0-1.6,0c0-11.4,0-22.7-0.1-34.1c0-1.9,0.5-2.6,2.5-2.6c16.4,0.1,32.7,0.1,49.1,0
			c2.5,0,2.8,1,2.8,3.1c-0.1,7.2,0,14.5,0,21.7c0,7.3,0,14.7,0,22c0,11.1-0.1,22.1,0.1,33.2c0,2.6-0.8,3.1-3.2,3.1
			c-16-0.1-32-0.1-48,0c-2.4,0-3.3-0.5-3.2-3.1c0.1-11.1,0.1-22.2,0.1-33.4c0.5,0,1.1,0,1.6-0.1c0,10.4,0.1,20.7-0.1,31.1
			c0,2.6,0.4,3.7,3.4,3.7c14.9-0.2,29.7-0.1,44.6,0c2.4,0,3.1-0.7,3.2-3.1c0.1-11-0.5-22.1,0-33.1c0.3-6.1-0.7-12-0.2-18.2
			c0.6-7.3,0-14.7,0.2-22.1c0.1-2.6-0.5-3.4-3.2-3.4c-14.9,0.1-29.7,0.1-44.6,0c-2.6,0-3.4,0.6-3.3,3.3
			C11.3,58.9,11.2,69.5,11.2,80.1z"/>
		<path class="st4" d="M147.9,78.8c-0.6,0-1.2,0-1.9,0c-0.8-0.3-1.2-1-1.1-1.8c1.4-9.7,0.2-19.4,0.7-29.1c0.1-2.3-0.6-3-2.9-2.9
			c-15.1,0.1-30.2,0.1-45.4,0c-2.4,0-2.9,0.7-2.9,3c0.1,24.6,0.1,49.2,0,73.9c0,2.6,1,3,3.3,3c14.9-0.1,29.7-0.1,44.6,0
			c2.7,0,3.4-0.8,3.3-3.4c-0.2-7.1-0.1-14.2,0-21.4c0-1.2-0.3-2.4,0.4-3.4c1.5,0,1.2,1,1.2,1.6c0,8.5,0,17,0.1,25.5
			c0,2.1-0.7,2.8-2.8,2.8c-16.2-0.1-32.5-0.1-48.7,0c-2.4,0-2.9-0.9-2.9-3.1c0.1-25.7,0.1-51.5,0-77.2c0-2.5,0.9-2.8,3-2.8
			c16.1,0.1,32.2,0.1,48.4,0c2.7,0,3,1,3,3.2c-0.1,7.6-0.1,15.2,0,22.9c0,2.4-0.7,5,1.4,7.1C149.2,77.2,148.7,78.2,147.9,78.8z"/>
		<path class="st5" d="M119.9,96.7c-1.7,0-1.9-1.8-2.9-2.6c-1.5,0.1,0.1,2.3-1.8,2.3c0,0-0.5-0.2-0.5-0.5c-0.1-1.6-0.2-3.2-0.2-4.8
			c0-0.8-0.4-2,0.9-2c1.2,0,0.4,1.5,1.2,2.1c1.2-0.5,1.5-2.8,3.5-1.9C117,91.6,119.5,94.2,119.9,96.7z"/>
		<path class="st6" d="M119.9,96.7c-0.4-2.5-2.8-5,0.2-7.4c0.5,0,1,0,1.4,0c-0.3,2.5,2.6-0.1,2.7,1.9c1.8,1-3.6,0.3-0.6,1.9
			c1.4,1.7,0.3,2.1-1.2,2.1c-1.4,0-1.6,0.4-0.6,1.3C121.2,96.6,120.5,96.6,119.9,96.7z"/>
		<path class="st7" d="M120,80.9c-2.2,0.4-2-1.9-3.4-2.3c-1,0.4,0,2.3-1.2,2.2c-1.5-0.1-0.8-1.5-0.9-2.4c-0.1-1.6,0-3.1,0-4.9
			C118,75.2,119,77.9,120,80.9z"/>
		<path class="st8" d="M125.1,77.3c0,1,0.1,2,0,3c0,0.3-0.4,0.6-0.7,0.7c-0.5,0.2-1-0.2-1.1-0.7c-0.4-1.5,0.4-3.3-1.6-4.5
			c-0.6-0.4,1.1-1.6,2-2c1.2-0.6,1.5,0.3,1.5,1.3C125.2,75.8,125.2,76.5,125.1,77.3C125.2,77.3,125.2,77.3,125.1,77.3z"/>
		<path class="st9" d="M121.8,96.5c-1-1-0.8-1.4,0.6-1.3c1.6,0,2.6-0.4,1.2-2.1c0.7-0.5,1.3-1,2-1.5C126.6,96,126.2,96.5,121.8,96.5
			z"/>
		<path class="st4" d="M125.7,91.6c-0.7,0.5-1.3,1-2,1.5c-3-1.6,2.4-0.8,0.6-1.9c-0.1-2-3,0.6-2.7-1.9
			C123.2,89.4,126.1,87.5,125.7,91.6z"/>
		<path class="st0" d="M11.2,80.1c0-10.6,0.1-21.2-0.1-31.9c0-2.7,0.7-3.3,3.3-3.3c14.9,0.1,29.7,0.1,44.6,0c2.7,0,3.3,0.8,3.2,3.4
			c-0.2,7.4,0.4,14.8-0.2,22.1c-0.5,6.1,0.5,12.1,0.2,18.2c-0.5,11,0.1,22.1,0,33.1c0,2.5-0.7,3.1-3.2,3.1
			c-14.9-0.1-29.7-0.1-44.6,0c-3,0-3.4-1.1-3.4-3.7c0.1-10.4,0.1-20.7,0.1-31.1c1.2-0.8,3.2-0.9,3.2-3c1.7-2.1,0.3-3.7-1-5.3
			C13.2,80.5,12.2,80.3,11.2,80.1z M37.5,87.3c1.8,0.4,3.6,0.6,5.5-0.2c-0.5-1.2-4-0.9-1.3-3c1.1-0.9,1.7-2.4,0.2-3.5
			c-1.4-1-2.9-0.9-4,0.7c0.9,1,2.4-0.4,2.8,0.7c0.5,1.3-0.8,1.9-1.5,2.7C38.6,85.5,37.5,86.1,37.5,87.3c-2.5-2-3.3-4.3-1.1-7
			c-1.7-1.2-2.9,3.6-4.5-0.1c-0.1-0.3-1.1,0.1-1.2,0.9c0,1.1-0.1,2.2,0,3.3c0.1,1-0.8,2.4,0.9,2.7c1.7,0.3,0.5-2,1.9-2.2
			C34.6,86.2,35.3,88.2,37.5,87.3z"/>
		<path class="st10" d="M13.4,81.8c1.2,1.6,2.7,3.1,1,5.3c-0.8-0.2-1.7,2-2.2,0.3C11.5,85.4,10,82.9,13.4,81.8z"/>
		<path class="st11" d="M37.5,87.3c-2.3,0.9-2.9-1.1-3.9-2.3c-1.4,0.2-0.2,2.5-1.9,2.2c-1.7-0.3-0.8-1.8-0.9-2.7
			c-0.1-1.1,0-2.2,0-3.3c0-0.8,1-1.2,1.2-0.9c1.6,3.8,2.8-1.1,4.5,0.1C34.3,83,35,85.4,37.5,87.3C37.6,87.4,37.5,87.3,37.5,87.3z"/>
		<path class="st12" d="M37.5,87.3C37.5,87.3,37.6,87.4,37.5,87.3c0-1.2,1.1-1.8,1.8-2.7c0.7-0.8,2-1.4,1.5-2.7
			c-0.5-1.1-1.9,0.3-2.8-0.7c1.1-1.6,2.6-1.7,4-0.7c1.5,1.1,0.9,2.6-0.2,3.5c-2.7,2.1,0.7,1.9,1.3,3C41.1,87.9,39.3,87.7,37.5,87.3z
			"/>
	</g>
</g>
</svg>
