<?xml version="1.0" encoding="utf-8"?>
<!-- Generator: Adobe Illustrator 19.0.0, SVG Export Plug-In . SVG Version: 6.00 Build 0)  -->
<svg version="1.1" id="Layer_1" xmlns="http://www.w3.org/2000/svg" xmlns:xlink="http://www.w3.org/1999/xlink" x="0px" y="0px"
	 viewBox="0 0 213 205" style="enable-background:new 0 0 213 205;" xml:space="preserve">
<style type="text/css">
	.st0{fill:#F9C610;}
	.st1{fill:#AE8B0B;}
	.st2{fill:#201F19;}
	.st3{fill:#BFEBED;}
	.st4{fill:#D42446;}
	.st5{fill:#463F51;}
	.st6{fill:#C53A57;}
	.st7{fill:#BF2545;}
</style>
<g>
	<g>
		<path class="st0" d="M107.9,203c-20.7,0-41.3,0.1-62,0c-16-0.1-33.1-16.1-35-32c-0.7-5.6-0.8-11.3-0.8-16.9c0-34.8,0-69.6,0-104.5
			c0-14.2,4.7-26.4,16.6-35c6.8-4.9,14.5-7.5,22.7-7.5c39.3-0.1,78.6-0.3,117.9,0c21.9,0.2,38.6,18,38.6,38.6
			c-0.1,39.8-0.1,79.6,0,119.4c0,19.8-17.2,37.9-37.7,37.9c-10.2,0-20.3,0-30.5,0c-10,0-20,0-30,0
			C107.9,203.1,107.9,203.1,107.9,203z M69.3,113.3c-0.1,20-0.2,40-0.1,60c0,6.5,4.4,10.8,10.6,10.8c19.2,0.1,38.3,0.1,57.5,0
			c6.1,0,10.6-4.3,10.6-10.4c0.1-20.2-0.1-40.3-0.1-60.5c0.1-19.3,0.2-38.6,0.2-57.9c0-8.4-4.3-12.7-12.8-13.3
			c-3.5-0.2-7.8,1.5-10.2-0.7c-2.6-2.5-0.8-7-0.9-10.5c-0.1-2.6-0.7-4-3.6-3.9c-8,0.1-16,0.1-24,0c-3-0.1-3.6,1.3-3.6,3.9
			c0,3.5,1.5,7.8-0.6,10.2c-2.4,2.7-6.9,0.8-10.5,1.1c-7.5,0.6-12.6,4.5-12.7,10.8C69,73,69.2,93.2,69.3,113.3z"/>
		<path class="st1" d="M69.3,113.3C69.2,93.2,69,73,69.1,52.9c0-6.3,5.2-10.3,12.7-10.8c3.6-0.3,8.1,1.7,10.5-1.1
			c2.1-2.4,0.6-6.7,0.6-10.2c0-2.6,0.6-4,3.6-3.9c8,0.1,16,0.1,24,0c3-0.1,3.6,1.3,3.6,3.9c0.1,3.6-1.7,8.1,0.9,10.5
			c2.3,2.2,6.7,0.5,10.2,0.7c8.5,0.5,12.8,4.9,12.8,13.3c0,19.3-0.1,38.6-0.2,57.9c-8.9,0-17.9,0-26.8,0.1c0-11.8,0-23.6-0.1-35.4
			c-0.1-7.4-4-12.6-10.3-14c-9-2-16,4.3-16.2,14.6c-0.2,11.6-0.2,23.3-0.3,34.9C85.8,113.4,77.5,113.4,69.3,113.3z"/>
		<path d="M121,113.4c8.9,0,17.9,0,26.8-0.1c0.1,20.2,0.2,40.3,0.1,60.5c0,6-4.5,10.3-10.6,10.4c-19.2,0.1-38.3,0.1-57.5,0
			c-6.3,0-10.6-4.3-10.6-10.8c-0.1-20,0.1-40,0.1-60c8.2,0,16.5,0.1,24.7,0.1c-0.4,8.5,0.8,17-2.8,25.4c-3.4,8.1,0.2,15.4,7.6,20
			c6,3.7,14.4,2.9,19.5-1.7c7.5-6.9,8.8-13,4.4-21.7c-1.3-2.5-1.8-4.9-1.8-7.6C121.1,123,121,118.2,121,113.4z"/>
		<path class="st2" d="M121,113.4c0,4.8,0.1,9.6,0,14.5c-0.1,2.7,0.5,5.2,1.8,7.6c4.4,8.7,3.1,14.8-4.4,21.7
			c-5.1,4.7-13.5,5.4-19.5,1.7c-7.4-4.6-11-11.9-7.6-20c3.5-8.5,2.3-16.9,2.8-25.4c0.1-11.6,0.1-23.3,0.3-34.9
			c0.2-10.3,7.2-16.6,16.2-14.6c6.3,1.4,10.3,6.6,10.3,14C120.9,89.8,120.9,101.6,121,113.4z M99.4,105c0,7.2-0.1,14.3,0,21.5
			c0.1,4.2-0.3,8-2.8,11.8c-3.3,5.2-1.5,11.8,3.4,15.6c4.5,3.5,11.3,3.2,15.6-0.6c4.6-4,5.9-10.7,2.4-15.8c-2-2.8-2.4-5.6-2.4-8.8
			c0-16.5,0.1-33,0-49.5c0-6.7-3-10.4-8.1-10.5c-5-0.1-8.1,3.4-8.2,9.8C99.3,87.3,99.4,96.2,99.4,105z"/>
		<path class="st3" d="M99.4,105c0-8.8-0.1-17.7,0-26.5c0.1-6.4,3.2-9.9,8.2-9.8c5.1,0.1,8.1,3.8,8.1,10.5c0,16.5,0,33,0,49.5
			c0,3.2,0.3,6,2.4,8.8c3.6,5.1,2.3,11.7-2.4,15.8c-4.4,3.8-11.1,4.1-15.6,0.6c-4.9-3.8-6.8-10.4-3.4-15.6c2.5-3.8,2.9-7.6,2.8-11.8
			C99.3,119.3,99.4,112.1,99.4,105z M103,149L103,149c0.3,1.1,1.2,1.5,2.2,1.7c1.3,0.7,2.2-0.5,3.2-0.7c6.9-1.6,8.3-5.8,3.8-11.1
			c-0.8-1-1.5-2-2.3-3.1c0-15.8,0.1-31.7,0.1-47.5c0-1.8,1.4-4.7-2.5-4.6c-3.9,0.2-2.3,3.1-2.3,4.8c-0.1,14.5-0.1,29-0.1,43.5
			c0,1.9,0.6,4-1.1,5.7c-4.4,3.3-4.9,5.5-1.9,10.2l0,0C102,148.7,102.3,149,103,149z"/>
		<path class="st4" d="M103.9,137.8c1.7-1.6,1.1-3.7,1.1-5.7c0-14.5,0-29,0.1-43.5c0-1.7-1.6-4.7,2.3-4.8c3.9-0.2,2.5,2.8,2.5,4.6
			c0.1,15.8,0,31.7-0.1,47.5c-3.5,0.3-2.2,3.9-4,5.7c-0.7-0.9-1.3-1.7-1.9-2.5C104,138.7,103.9,138.3,103.9,137.8z"/>
		<path class="st5" d="M104,139.1c0.6,0.8,1.2,1.6,1.9,2.5c1.8-1.7,0.5-5.4,4-5.7c0.8,1,1.5,2.1,2.3,3.1c4.5,5.3,3.1,9.4-3.8,11.1
			c-1.1,0.3-2,1.4-3.2,0.7c-0.2-1.2-0.8-2-2.2-1.7c0,0,0,0,0,0c0-0.7-0.3-1.1-1-1c0,0,0,0,0,0C102.2,145,101,141.6,104,139.1z
			 M108.9,143.2c-0.8,1.1-1.8,2.1-2.5,3.3c-0.6,1.1,0.5,1.4,1.2,1.5c1.5,0.2,2.7-0.4,2.9-1.9C110.8,144.9,110.2,143.9,108.9,143.2z"
			/>
		<path class="st6" d="M104,139.1c-3,2.5-1.7,5.9-2,8.9c-2.9-4.7-2.5-6.9,1.9-10.2C103.9,138.3,104,138.7,104,139.1z"/>
		<path class="st6" d="M103,149c1.4-0.3,2,0.5,2.2,1.7C104.2,150.5,103.3,150.1,103,149z"/>
		<path class="st6" d="M102,148c0.7,0,1.1,0.3,1,1C102.3,149,102,148.7,102,148z"/>
		<path class="st7" d="M108.9,143.2c1.3,0.7,1.9,1.7,1.7,2.9c-0.2,1.6-1.5,2.1-2.9,1.9c-0.8-0.1-1.8-0.5-1.2-1.5
			C107.1,145.3,108.1,144.3,108.9,143.2z"/>
	</g>
</g>
</svg>
