<?xml version="1.0" encoding="utf-8"?>
<!-- Generator: Adobe Illustrator 19.0.0, SVG Export Plug-In . SVG Version: 6.00 Build 0)  -->
<svg version="1.1" id="Layer_1" xmlns="http://www.w3.org/2000/svg" xmlns:xlink="http://www.w3.org/1999/xlink" x="0px" y="0px"
	 viewBox="0 0 150.8 163.5" style="enable-background:new 0 0 150.8 163.5;" xml:space="preserve">
<style type="text/css">
	.st0{fill:#F9C610;}
	.st1{fill:#010100;}
	.st2{fill:#C05146;}
	.st3{fill:#F7C310;}
	.st4{fill:#F25623;}
</style>
<g>
	<g>
		<path class="st0" d="M0.8,129.8c0-32,0-64,0-96c0.8-0.2,0.6-0.9,0.8-1.5C3.3,25,6.7,18.9,12.8,14.4c5.7-4.3,12.2-6,19.2-6.1
			c27.1-0.1,54.2,0,81.4,0c3.5,0,7,0.2,10.4,0.7c13,2,23.9,14.5,23.9,27.5c0,30.2,0,60.5,0,90.7c0,14.6-12.5,27.9-27.1,28
			c-31.1,0.2-62.2,0.1-93.3-0.1c-7.4,0-13.4-3.9-18.5-9.1C4.3,141.5,2.6,135.6,0.8,129.8z M64.3,28.4c-1.5,0.5-1.2,1.7-1.2,2.8
			c-0.1,2.5,0.8,5.6-0.4,7.3c-1.5,2.1-4.8,0.7-7.4,0.8c-5.5,0.4-8.1,2.9-8.1,8.5c0,26.5,0,53,0,79.5c0,5.4,2.9,8.3,8.3,8.3
			c12.2,0.1,24.5,0.1,36.7,0c5.5,0,8.3-2.8,8.3-8.3c0-10.1,0-20.2,0-30.4c0-16.5,0-33,0-49.5c0-5.1-2.7-7.9-7.7-8.2
			c-1.5-0.1-3-0.2-4.5,0c-3.3,0.5-4-1-3.8-4c0.1-2.3,0.8-4.7-0.6-6.9c0-0.5,0.1-1-0.1-1.5c-0.4-1.2,0.1-3.1-1.5-3.5
			c-1.3-0.3-1.3,1.5-2,2.3c-1.6,1.9-2.8,1.4-3.5-0.6c-0.6-1.7-0.8-3.6-1.3-5.4c-0.3-1,0-2.5-1.4-2.7c-1.2-0.2-1.8,1.1-2.5,1.9
			c-2.1,2.8-2.7,6-2.9,9.4c-0.2,0.1-0.4,0.1-0.6,0c-1.2-0.9-1.3-3.4-3-3.2C63.9,25.4,64.6,27.3,64.3,28.4z"/>
		<path class="st1" d="M84,28.5c1.4,2.2,0.7,4.7,0.6,6.9c-0.2,3,0.6,4.4,3.8,4c1.5-0.2,3-0.1,4.5,0c5,0.3,7.7,3,7.7,8.2
			c0,16.5,0,33,0,49.5c0,10.1,0,20.2,0,30.4c0,5.4-2.8,8.3-8.3,8.3c-12.2,0.1-24.5,0.1-36.7,0c-5.4,0-8.3-2.9-8.3-8.3
			c0-26.5,0-53,0-79.5c0-5.6,2.6-8.2,8.1-8.5c2.5-0.2,5.9,1.3,7.4-0.8c1.2-1.7,0.3-4.8,0.4-7.3c0-1.1-0.3-2.3,1.2-2.8
			c1.3,0,2.6,0,4,0c0.2,0.1,0.4,0.1,0.6,0C73.9,28.5,78.9,28.5,84,28.5z M74.5,68c-5.6,9.5-10.8,18.6-16.2,27.7
			c11.1,0,21.6,0,32.5,0C85.2,86.4,80,77.4,74.5,68z"/>
		<path class="st2" d="M84,28.5c-5,0-10.1,0-15.1-0.1c0.2-3.4,0.7-6.7,2.9-9.4c0.7-0.9,1.3-2.1,2.5-1.9c1.4,0.2,1.1,1.7,1.4,2.7
			c0.5,1.8,0.7,3.7,1.3,5.4c0.7,2,1.9,2.5,3.5,0.6c0.7-0.8,0.7-2.6,2-2.3c1.5,0.4,1.1,2.3,1.5,3.5C84,27.5,83.9,28,84,28.5z"/>
		<path class="st2" d="M68.3,28.5c-1.3,0-2.6,0-4,0c0.3-1.1-0.4-3,0.9-3.2C67,25.1,67.1,27.5,68.3,28.5z"/>
		<path class="st3" d="M74.5,68c5.5,9.4,10.8,18.4,16.3,27.7c-10.9,0-21.4,0-32.5,0C63.6,86.6,68.9,77.5,74.5,68z M74.4,76.6
			c-1.2,3.7-1.2,7.4,0,11.1C76.1,84,75.9,80.3,74.4,76.6z"/>
		<path class="st4" d="M74.4,76.6c1.6,3.7,1.7,7.4,0,11.1C73.1,83.9,73.2,80.2,74.4,76.6z"/>
	</g>
</g>
</svg>
