<?xml version="1.0" encoding="utf-8"?>
<!-- Generator: Adobe Illustrator 19.0.0, SVG Export Plug-In . SVG Version: 6.00 Build 0)  -->
<svg version="1.1" id="Layer_1" xmlns="http://www.w3.org/2000/svg" xmlns:xlink="http://www.w3.org/1999/xlink" x="0px" y="0px"
	 viewBox="0 0 152.3 158.3" style="enable-background:new 0 0 152.3 158.3;" xml:space="preserve">
<style type="text/css">
	.st0{fill:#90D150;}
	.st1{fill:#F6F145;}
	.st2{fill:#8ECF4E;}
	.st3{fill:#0A0A02;}
	.st4{fill:#F1CE00;}
	.st5{fill:#FCD800;}
	.st6{fill:#D8B000;}
	.st7{fill:#D6B400;}
	.st8{fill:#CEA700;}
	.st9{fill:#070703;}
	.st10{fill:#75D0FD;}
	.st11{fill:#52AAC8;}
</style>
<g>
	<g>
		<path class="st0" d="M150.8,80.9c0,14.5-0.2,29,0.1,43.5c0.3,14.6-10.7,29.7-29.4,29.9c-29.6,0.3-59.2,0.2-88.8,0
			c-14.4-0.1-26.4-11.4-28.2-25.5c-0.4-3.4-0.6-6.7-0.6-10.1c0-26.6,0-53.2,0-79.8c0-8.2,2.1-15.7,7.9-21.9
			c5.3-5.7,11.8-9.3,19.6-9.4c30.9-0.2,61.7-0.2,92.6,0c13.5,0.1,26.6,13.3,26.8,26.8C150.8,49.9,150.7,65.4,150.8,80.9
			C150.7,80.9,150.8,80.9,150.8,80.9z M77.6,139.5c11.9,0,23.7,0,35.6,0c2,0,3.9,0,5.9-0.6c10.6-2.9,17.9-11.2,18-25.3
			c0.1-22.2,0.2-44.5,0-66.7c-0.1-14.7-10.3-25-24.6-25.1c-23.5-0.2-47-0.2-70.5,0C29,21.9,18.2,32,18.1,44.4c-0.2,24-0.2,48,0,71.9
			c0.1,13.3,10.5,23.1,23.9,23.2C53.8,139.6,65.7,139.5,77.6,139.5z"/>
		<path class="st1" d="M77.6,139.5c-11.9,0-23.7,0-35.6,0c-13.4-0.1-23.8-9.9-23.9-23.2c-0.2-24-0.2-48,0-71.9
			C18.2,32,29,21.9,42,21.8c23.5-0.2,47-0.2,70.5,0c14.4,0.1,24.5,10.3,24.6,25.1c0.2,22.2,0.2,44.5,0,66.7
			c-0.1,14.1-7.4,22.4-18,25.3c-2,0.6-3.9,0.6-5.9,0.6C101.3,139.5,89.4,139.5,77.6,139.5z M77.7,24.7c-11.6,0-23.3,0.3-34.9-0.1
			c-11.7-0.4-22.3,7.8-22.4,22.3c-0.2,22.5-0.2,45,0,67.5c0.1,13.3,8.8,22.7,21.3,22.8c23.7,0.2,47.5,0.3,71.2,0
			c13.6-0.2,21.6-10.7,21.5-22c-0.3-23-0.3-46,0-69c0.1-12.1-10.1-21.9-21.5-21.6C101.2,24.9,89.4,24.6,77.7,24.7z"/>
		<path class="st2" d="M77.7,24.6c11.7,0,23.5,0.3,35.2-0.1c11.3-0.4,21.6,9.5,21.5,21.6c-0.3,23-0.3,46,0,69
			c0.1,11.4-7.9,21.9-21.5,22c-23.7,0.3-47.5,0.2-71.2,0c-12.5-0.1-21.2-9.6-21.3-22.8c-0.2-22.5-0.2-45,0-67.5
			c0.1-14.5,10.7-22.7,22.4-22.3C54.4,25,66,24.7,77.7,24.6z M83.1,117.6c0.6,0,1.2,0,1.8,0c2.3,3.8,5.8,2,8.8,1.8
			c3.3-0.2,5.2-2.4,5.7-5.5c0.5-2.9-0.6-5.3-3.2-6.6c-1.9-1-2.2-2.3-2.2-4.2c0.1-5.6,0.2-11.2,0-16.9c-0.1-2.6,0.7-3.7,3.4-3.4
			c1,0.1,2,0.1,3,0c2.5-0.2,3.7,1,3.7,3.5c0,2.4,0,4.7,0,7.1c0.1,4.5,2.3,7,6,7c3.8,0,6.1-2.5,6.1-6.9c0.1-4.7,0.1-9.5,0-14.2
			c0-1.8,0.1-3.1,2.3-3.9c3.1-1.2,3.8-4.1,3.1-7.2c-0.5-2.1-2.1-3.9-2.2-6.3c0-0.9-1-1.4-2-1.4c-1.1,0-1.8,0.5-2.2,1.6
			c-0.7,2-1.5,2.4-2.4,0.1c-0.4-1.2-1.3-1.8-2.6-1.6c-0.8,0.1-1.6,0.6-1.6,1.3c0,2.1-1.2,3.7-2,5.5c-1.4,3.3-0.1,6.6,3.2,8.1
			c1.1,0.5,1.9,0.9,1.9,2.3c0,5.2,0,10.5,0,15.7c0,1.1-0.2,2.2-1.5,2.2c-1.6,0.1-1.7-1.2-1.7-2.4c0-2.6,0.1-5.3,0-7.9
			c-0.2-4.5-2.5-6.8-7-7.3c-1.2-0.1-2.5-0.2-3.7,0C95,78.7,94,77.7,94,74.6c0.2-7.4,0.1-14.7,0.1-22.1c-0.1-6.4-2.5-8.8-8.9-8.8
			c-7.4,0-14.7,0-22.1,0c-6.9,0-9.1,2.3-9.1,9.2c0,16.7,0,33.5,0,50.2c0,1.2,0.8,2.7-1.1,3.5c-3.5,1.6-5.1,4.3-4,8.2
			c1.1,3.9,4.3,4.9,7.9,4.9c7.5,0,15,0,22.5,0C80.9,119.8,82.3,119.4,83.1,117.6z"/>
		<path class="st3" d="M83.1,117.6c-0.8,1.7-2.1,2.2-3.9,2.2c-7.5-0.1-15,0-22.5,0c-3.6,0-6.8-1-7.9-4.9c-1.1-3.8,0.5-6.6,4-8.2
			c1.9-0.8,1.1-2.3,1.1-3.5c0.1-16.7,0-33.5,0-50.2c0-7,2.2-9.2,9.1-9.2c7.4,0,14.7,0,22.1,0c6.4,0,8.9,2.4,8.9,8.8
			c0.1,7.4,0.2,14.7-0.1,22.1c-0.1,3.1,1,4,3.9,3.7c1.2-0.1,2.5-0.1,3.7,0c4.5,0.5,6.7,2.8,7,7.3c0.1,2.6,0,5.2,0,7.9
			c0,1.2,0.1,2.4,1.7,2.4c1.3,0,1.5-1.2,1.5-2.2c0-5.2,0-10.5,0-15.7c0-1.4-0.8-1.8-1.9-2.3c-3.3-1.5-4.6-4.9-3.2-8.1
			c0.8-1.8,2.1-3.4,2-5.5c0-0.8,0.8-1.2,1.6-1.3c1.3-0.2,2.2,0.4,2.6,1.6c0.8,2.4,1.7,1.9,2.4-0.1c0.4-1.1,1.1-1.7,2.2-1.6
			c1,0,1.9,0.5,2,1.4c0.1,2.4,1.7,4.1,2.2,6.3c0.7,3.1,0.1,6-3.1,7.2c-2.2,0.8-2.3,2.1-2.3,3.9c0.1,4.7,0.1,9.5,0,14.2
			c-0.1,4.4-2.4,6.9-6.1,6.9c-3.8,0-5.9-2.5-6-7c-0.1-2.4,0-4.7,0-7.1c0-2.5-1.1-3.7-3.7-3.5c-1,0.1-2,0.1-3,0
			c-2.6-0.3-3.5,0.8-3.4,3.4c0.2,5.6,0.1,11.2,0,16.9c0,1.9,0.3,3.2,2.2,4.2c2.6,1.3,3.7,3.7,3.2,6.6c-0.6,3.1-2.5,5.3-5.7,5.5
			c-3,0.2-6.5,1.9-8.8-1.8c0.8-3.4,3.7-1.9,5.7-2.6c1.9,0.5,4.1,0.6,4.3-1.8c0.2-2.8-2.2-2.6-4.2-2.3c-11.2-0.1-22.4-0.1-33.6-0.2
			c-1.8,0-4.3-0.5-4.2,2.3c0.1,2.6,2.6,2.2,4.4,2.2c7.2,0,14.4,0,21.7,0C81,115.2,82.5,115.5,83.1,117.6z M83.9,48.5
			c-7.5-0.1-15-0.2-22.4-0.2c-2.1,0-3.1,1-3.1,3.3c0.1,17.5,0,35,0,52.4c0,1.8,0.5,2.4,2.3,2.4c8-0.1,16-0.1,24-0.2
			c4.9,0.3,4.9,0.3,4.9-4.5c0-16.1,0-32.2,0-48.3C89.6,48.4,89,47.9,83.9,48.5z M113.8,68.2c-1,0.3-2.9-0.6-3,1.6
			c-0.1,2.4,1.8,2,3.2,1.9c1.4,0,3.4,0.5,3.4-1.8C117.4,67.8,115.4,68.4,113.8,68.2z"/>
		<path class="st4" d="M90.7,115c-2,0.7-5-0.8-5.7,2.6c-0.6,0-1.2,0-1.8,0c-0.5-2.2-2.1-2.4-4-2.4c-7.2,0.1-14.4,0-21.7,0
			c-1.8,0-4.3,0.4-4.4-2.2c-0.1-2.7,2.4-2.3,4.2-2.3c11.2,0,22.4,0.1,33.6,0.2C90.7,112.3,90.7,113.7,90.7,115z"/>
		<path class="st5" d="M84.7,106.2c-8,0-16,0-24,0.2c-1.8,0-2.3-0.6-2.3-2.4c0-17.5,0.1-35,0-52.4c0-2.2,1-3.3,3.1-3.3
			c7.5,0,15,0.1,22.4,0.2c0.1,0.9,1.5,1.9-0.2,2.7c-5.5-1.4-11.1-0.8-16.7-0.6c-4.1,0.2-6.3,2.8-6.4,6.8c-0.1,3.6-0.1,7.2,0,10.8
			c0.2,4.1,2.7,6.6,6.9,6.7c4.2,0.1,8.5,0,12.7,0c1.7,0,3.1-0.7,4.5-1.5C84.7,84.4,84.7,95.3,84.7,106.2z"/>
		<path class="st6" d="M83.8,51.2c1.6-0.8,0.3-1.8,0.2-2.7c5.1-0.6,5.7-0.1,5.7,5c0,16.1,0,32.2,0,48.3c0,4.8,0,4.8-4.9,4.5
			c0-10.9,0-21.8,0-32.7c2-1.6,2.5-3.8,2.5-6.3c0-2.8-0.1-5.7,0-8.5C87.4,55.6,86.4,53,83.8,51.2z"/>
		<path class="st7" d="M113.8,68.2c1.5,0.2,3.6-0.4,3.6,1.8c0,2.3-2,1.7-3.4,1.8c-1.4,0-3.3,0.5-3.2-1.9
			C111,67.6,112.8,68.5,113.8,68.2z"/>
		<path class="st8" d="M90.7,115c0-1.4,0.1-2.7,0.1-4.1c2-0.3,4.4-0.5,4.2,2.3C94.8,115.6,92.6,115.5,90.7,115z"/>
		<path class="st9" d="M83.8,51.2c2.7,1.9,3.7,4.4,3.5,7.6c-0.1,2.8,0,5.7,0,8.5c0,2.4-0.5,4.6-2.5,6.3c-1.4,0.8-2.8,1.5-4.5,1.5
			c-4.2,0-8.5,0.1-12.7,0c-4.2-0.1-6.7-2.6-6.9-6.7c-0.1-3.6-0.1-7.2,0-10.8c0.1-4.1,2.3-6.7,6.4-6.8C72.6,50.3,78.2,49.8,83.8,51.2
			z M77.9,55c-3.1,0-6.2-0.1-9.3-0.1c-2.4,0-3.6,1-3.5,3.6c0.1,3,0.1,6,0,8.9c0,2.2,1,3.2,3.2,3.1c3.5-0.1,7-0.1,10.4-0.2
			c3.1,0.7,4.4-0.7,4.3-3.7c-0.1-2.4,0-4.7,0-7.1C83,55.3,82.5,54.9,77.9,55z"/>
		<path class="st10" d="M78.7,70.4c-3.5,0-7,0-10.4,0.2c-2.2,0.1-3.2-0.9-3.2-3.1c0.1-3,0.1-6,0-8.9c-0.1-2.6,1.1-3.6,3.5-3.6
			c3.1,0,6.2,0.1,9.3,0.1C80.8,60,79.6,65.2,78.7,70.4z"/>
		<path class="st11" d="M78.7,70.4c0.9-5.2,2.1-10.4-0.8-15.4c4.6-0.2,5,0.2,5.1,4.6c0,2.4-0.1,4.7,0,7.1
			C83.1,69.7,81.8,71.1,78.7,70.4z"/>
	</g>
</g>
</svg>
