<?xml version="1.0" encoding="utf-8"?>
<!-- Generator: Adobe Illustrator 19.0.0, SVG Export Plug-In . SVG Version: 6.00 Build 0)  -->
<svg version="1.1" id="Layer_1" xmlns="http://www.w3.org/2000/svg" xmlns:xlink="http://www.w3.org/1999/xlink" x="0px" y="0px"
	 viewBox="0 0 182.3 167.3" style="enable-background:new 0 0 182.3 167.3;" xml:space="preserve">
<style type="text/css">
	.st0{fill:#2E9BEF;}
	.st1{fill:#8ED04F;}
	.st2{fill:#7E8280;}
	.st3{fill:#DEE2E5;}
	.st4{fill:#808080;}
	.st5{fill:#7F8080;}
	.st6{fill:#DFE3E5;}
	.st7{fill:#738390;}
	.st8{fill:#6587A3;}
	.st9{fill:#0E1005;}
	.st10{fill:#5D5E5E;}
	.st11{fill:#595959;}
	.st12{fill:#6F8495;}
	.st13{fill:#6B8499;}
	.st14{fill:#ECE340;}
</style>
<g>
	<g>
		<path class="st0" d="M92.9,13.4c15.7,0,31.5-0.2,47.2,0.1c12.5,0.2,25.3,12.7,25.6,25.2c0.5,18.9,0.3,37.7,0.3,56.6
			c0,12.9,0.1,25.7-0.3,38.6c-0.4,12.3-11.7,24.2-24,25.8c-3.5,0.5-6.9,0.7-10.4,0.7c-26.9,0-53.7,0-80.6,0
			c-8.2,0-15.7-2.1-21.9-7.8c-5.6-5.2-9.2-11.5-9.3-19.2c-0.2-31.2-0.1-62.5,0-93.7c0.1-12.6,12.8-25.8,25.4-26.1
			C60.9,13.2,76.9,13.5,92.9,13.4C92.8,13.5,92.9,13.5,92.9,13.4z M53.2,104.2c0,2.2-0.9,5,3,4.7c-0.1,4.7-0.1,9.5-0.2,14.2
			c-0.1,8-0.1,7.9,7.8,7.9c3,0,3.6-1.2,3.6-3.8c-0.1-6.1-0.1-12.2-0.2-18.3c3.7,0,2.5-2.7,2.6-4.7c1-2,0.6-4,0.2-6
			c0.9-3.2,3.3-5,5.8-6.8c0,8.7,0,17.5,0,26.2c0,8.8,4.9,13.3,13.2,13c10.2-0.3,20.5,0,30.7-0.1c7.4,0,11.6-4.2,11.6-11.6
			c0.1-22.4,0.1-44.7,0-67.1c0-7.5-4.2-11.9-11.8-12c-10.6-0.2-21.2-0.2-31.9,0C80.7,40,76.7,43.9,76,51c-0.4,4.2-0.1,8.5-0.1,12.7
			c-1.5,0-3.1,0-4.6,0c0.5-3.8-1.4-7.6-0.2-11.5c0.4-1.3-1-2.3-2.4-2.2c-1.3,0-2.8,0.9-2.4,2.2c1.2,3.9-0.8,7.6-0.2,11.4
			c-3.3,0-6.7,0-10,0c0.5-3.8-1.1-7.6,0-11.5c0.4-1.3-1-2.6-2.6-2.5c-1.5,0.2-2.4,1.1-2.4,2.8c0,3.7,0,7.4,0,11.1
			c-2.1,0-4.2,0.2-6.3,0c-2.6-0.2-3.5,0.7-3.4,3.3c0.2,4.7,0.2,9.5,0.1,14.2c-0.1,2.4,0.6,4.1,2.4,5.8c3.4,3.5,7.9,6.2,9.6,11.2
			c0,0.3,0,0.5,0,0.8c0,1.5,0,3,0,4.5C53.2,103.8,53.2,104,53.2,104.2z"/>
		<path class="st1" d="M75.9,63.7c0-4.2-0.2-8.5,0.1-12.7c0.6-7,4.7-11,11.7-11.1c10.6-0.2,21.2-0.2,31.9,0
			c7.6,0.2,11.8,4.5,11.8,12c0.1,22.4,0.1,44.7,0,67.1c0,7.5-4.2,11.6-11.6,11.6c-10.2,0.1-20.5-0.2-30.7,0.1
			c-8.3,0.3-13.1-4.2-13.2-13c0-8.7,0-17.5,0-26.2c0.8-0.9,1.4-2.1,2.4-2.8c3-2.2,3.8-5.2,3.5-8.8c-0.3-4.2-0.2-8.5,0-12.7
			c0.1-2.5-0.6-3.8-3.3-3.4C77.6,63.8,76.8,63.7,75.9,63.7z M106.2,68c0-0.3,0.4-1.4-0.6-1.8c-1.4-0.5-1.6,0.9-1.9,1.7
			c-2.7,6-5.2,12.1-8.1,18.1c-1.5,3.1-0.7,4.1,2.5,3.6c3.1-0.4,3.9,0.7,3.3,3.8c-0.7,3.7-1.1,7.4-1.6,11.1c-0.1,0.9-0.7,2.2,0.6,2.6
			c1.3,0.3,1.4-1.1,1.8-1.9c3.3-6.6,6.4-13.2,9.8-19.7c1.6-3,1.1-4.1-2.3-3.7c-0.6,0.1-1.3-0.1-1.9,0c-2.7,0.4-3.1-0.9-2.8-3.2
			C105.5,75.2,105.8,71.8,106.2,68z"/>
		<path class="st2" d="M75.9,63.7c0.9,0,1.8,0.1,2.6,0c2.7-0.4,3.4,0.9,3.3,3.4c-0.2,4.2-0.3,8.5,0,12.7c0.2,3.6-0.5,6.5-3.5,8.8
			c-1,0.7-1.6,1.9-2.4,2.8c-2.5,1.8-5,3.6-5.8,6.8c-0.3,0-0.7,0-1,0c-5.2,0-10.5,0-15.7,0c-1.7-5-6.2-7.7-9.6-11.2
			c-1.7-1.8-2.4-3.5-2.4-5.8c0.1-4.7,0.1-9.5-0.1-14.2c-0.1-2.6,0.8-3.6,3.4-3.3c2.1,0.2,4.2,0,6.3,0c1.7,0,3.4,0,5,0
			c3.3,0,6.7,0,10,0c1.8,0,3.5,0,5.3,0C72.8,63.7,74.3,63.7,75.9,63.7z M63,75.7c0-1.4-0.2-2.8,0.1-4.1c0.6-3-1-2.8-3.3-2.3
			c4,1.1,2,4.2,2.5,6.4c-1.9,0.7-5.5-1-5.5,1.1c0.1,2.5,3.7,0.7,5.7,1.2c0.1,0,0.3,0,0.4,0c1.5-0.4,4.2,1,4.3-1.3
			C67.1,74.9,64.4,76.1,63,75.7z M63,83.3c0.6,0,1.2,0,1.8-0.1c1-0.1,2.5,0.3,2.6-1.3c0.1-1.9-1.5-1.6-2.6-1.6c-2.1,0-4.2,0-6.3,0
			c-2.4,0-2.8,1.1-1.5,3c-0.4,2.5,1.1,5.2-1.6,7.4c3.5,0,6.6,0,9.8,0C63,89.2,63,89.2,63,83.3z M52.3,76.8c-0.1,0-0.2-0.1-0.4-0.1
			c0,3.4,0,6.9,0,10.3c0.1,0,0.2,0,0.4,0C52.3,83.5,52.3,80.1,52.3,76.8z"/>
		<path class="st3" d="M67.2,109c0.1,6.1,0.1,12.2,0.2,18.3c0.1,2.5-0.6,3.8-3.6,3.8c-7.9,0-7.9,0.1-7.8-7.9
			c0.1-4.7,0.1-9.5,0.2-14.2C59.9,109,63.6,109,67.2,109z"/>
		<path class="st4" d="M69,98.2c0.3,0,0.7,0,1,0c0.4,2,0.8,4.1-0.2,6c-0.3,0-0.5,0-0.8,0c-1-1.1-2.3-0.7-3.5-0.7
			c-4.1,0-8.2,0-12.3,0c0-1.5,0-3,0-4.5c1.5,0,3,0.1,4.5,0C61.5,98.6,65.3,99.9,69,98.2z"/>
		<path class="st5" d="M69,104.3c0.3,0,0.5,0,0.8,0c0,2,1.2,4.7-2.6,4.7c-3.6,0-7.3,0-10.9,0c-4,0.3-3.1-2.5-3-4.7
			C58.5,104.2,63.7,104.2,69,104.3z"/>
		<path class="st6" d="M56,63.6c-1.7,0-3.4,0-5,0c0-3.7,0-7.4,0-11.1c0-1.7,0.9-2.7,2.4-2.8c1.6-0.2,3,1.2,2.6,2.5
			C54.9,56.1,56.5,59.8,56,63.6z"/>
		<path class="st6" d="M71.3,63.7c-1.8,0-3.5,0-5.3,0c-0.6-3.8,1.3-7.6,0.2-11.4c-0.4-1.3,1.1-2.2,2.4-2.2c1.4,0,2.8,0.9,2.4,2.2
			C69.9,56.1,71.7,59.8,71.3,63.7z"/>
		<path class="st7" d="M69,98.2c-3.7,1.7-7.5,0.4-11.3,0.7c-1.5,0.1-3,0-4.5,0c0-0.3,0-0.5,0-0.8C58.5,98.2,63.8,98.2,69,98.2z"/>
		<path class="st8" d="M69,104.3c-5.3,0-10.5,0-15.8,0c0-0.2,0-0.5,0-0.7c4.1,0,8.2,0,12.3,0C66.7,103.5,68,103.1,69,104.3z"/>
		<path class="st9" d="M106.2,68c-0.4,3.9-0.7,7.2-1.1,10.5c-0.3,2.3,0.1,3.6,2.8,3.2c0.6-0.1,1.3,0,1.9,0c3.4-0.4,3.9,0.7,2.3,3.7
			c-3.4,6.5-6.6,13.1-9.8,19.7c-0.4,0.8-0.6,2.2-1.8,1.9c-1.3-0.3-0.7-1.7-0.6-2.6c0.4-3.7,0.8-7.4,1.6-11.1c0.6-3-0.3-4.2-3.3-3.8
			c-3.2,0.4-4-0.5-2.5-3.6c2.9-5.9,5.4-12.1,8.1-18.1c0.4-0.8,0.5-2.2,1.9-1.7C106.6,66.6,106.1,67.7,106.2,68z M97.1,87.7
			c1.6,0,2.6,0.1,3.6,0c2.6-0.4,3.6,0.4,2.9,3.2c-0.5,2.3-0.6,4.7-0.9,7.1c0.2,0.1,0.5,0.1,0.7,0.2c2.3-4.6,4.6-9.3,6.9-14.1
			c-2.8-0.2-5.6,0.4-7.1-0.7c-1.6-1.2,0-4.2-0.7-6.3c0-0.1-0.2-0.1-0.7-0.2C100.4,80.1,98.9,83.6,97.1,87.7z"/>
		<path class="st10" d="M57,83.3c-1.4-1.9-1-3,1.5-3c2.1,0,4.2,0,6.3,0c1.2,0,2.7-0.3,2.6,1.6c-0.1,1.7-1.5,1.2-2.6,1.3
			c-0.6,0.1-1.2,0-1.8,0.1c-0.2,0-0.5,0-0.7,0c-1.5,0-3,0-4.5,0C57.5,83.3,57.3,83.3,57,83.3z"/>
		<path class="st11" d="M63,75.7c1.4,0.5,4.1-0.8,4.1,1.1c0,2.3-2.8,0.9-4.3,1.3c-0.1,0-0.3,0-0.4,0c-2-0.5-5.6,1.2-5.7-1.2
			c-0.1-2.1,3.6-0.5,5.5-1.1c0,0,0.4,0,0.4,0L63,75.7z"/>
		<path class="st12" d="M57,83.3c0.2,0,0.5,0,0.7,0c0,1.5,0.1,3,0,4.5C57.7,89.4,58.4,90,60,90c1.6,0,2.3-0.6,2.3-2.2
			c-0.1-1.5,0-3,0-4.5c0.2,0,0.5,0,0.7,0c0,5.9,0,5.9,2.3,7.4c-3.3,0-6.4,0-9.8,0C58.1,88.5,56.6,85.7,57,83.3z"/>
		<path class="st13" d="M52.3,76.8c0,3.4,0,6.8,0,10.2c-0.1,0-0.2,0-0.4,0c0-3.4,0-6.9,0-10.3C52,76.7,52.2,76.7,52.3,76.8z"/>
		<path class="st7" d="M63,75.7l-0.4,0c0,0-0.4,0-0.4,0c-0.5-2.2,1.5-5.3-2.5-6.4c2.3-0.5,3.9-0.7,3.3,2.3
			C62.8,72.9,63,74.3,63,75.7z"/>
		<path class="st14" d="M97.1,87.7c1.8-4.1,3.4-7.5,4.9-10.9c0.5,0.1,0.7,0.1,0.7,0.2c0.6,2.1-0.9,5.1,0.7,6.3
			c1.5,1.1,4.3,0.5,7.1,0.7c-2.4,4.9-4.7,9.5-6.9,14.1c-0.2-0.1-0.5-0.1-0.7-0.2c0.3-2.4,0.4-4.8,0.9-7.1c0.6-2.8-0.4-3.6-2.9-3.2
			C99.7,87.8,98.7,87.7,97.1,87.7z"/>
		<path class="st4" d="M62.3,83.3c0,1.5-0.1,3,0,4.5c0.1,1.6-0.7,2.2-2.3,2.2c-1.6,0-2.3-0.6-2.2-2.2c0.1-1.5,0-3,0-4.5
			C59.2,83.3,60.8,83.3,62.3,83.3z"/>
	</g>
</g>
</svg>
