<?xml version="1.0" encoding="utf-8"?>
<!-- Generator: Adobe Illustrator 19.0.0, SVG Export Plug-In . SVG Version: 6.00 Build 0)  -->
<svg version="1.1" id="Layer_1" xmlns="http://www.w3.org/2000/svg" xmlns:xlink="http://www.w3.org/1999/xlink" x="0px" y="0px"
	 viewBox="0 0 199.5 207" style="enable-background:new 0 0 199.5 207;" xml:space="preserve">
<style type="text/css">
	.st0{fill:#F9C610;}
	.st1{fill:#F14726;}
	.st2{fill:#F14925;}
	.st3{fill:#F14826;}
	.st4{fill:#F9C310;}
</style>
<g>
	<g>
		<path class="st0" d="M194.3,109.5c0,19.5,0.2,39-0.1,58.5c-0.2,15.3-12.9,29.6-28.3,33c-2.8,0.6-5.6,0.8-8.5,0.8
			c-36.9,0-73.7-0.2-110.6,0c-19.2,0.1-36.5-16.6-36.5-35.9c0.2-38,0-76,0.1-114c0.1-16.2,13.3-31.2,29.3-34c3-0.5,5.9-0.7,8.9-0.7
			c36.5,0,73,0,109.5,0c20.2,0,36.1,17.3,36.1,34.5C194.4,71,194.3,90.2,194.3,109.5z M38.9,157.5c0,2.4,0,4.7,0,7.1
			c0,8.1,0,8,8.1,8c2.6,0,3.4-0.8,3.4-3.4c-0.2-6.4,0-12.7-0.1-19.1c0-2.1-0.2-3.7,3.1-3.5c3.3,0.2,6.6-0.9,9.2-3.4
			c5.7-5.3,6.7-13.4,2.3-20.5c-0.8-1.3-1.7-2.2-0.5-3.9c4.5-6.6,4.3-12.5-0.3-19c-1-1.5-1.1-2.5,0-3.9c4.2-5.1,4.4-10.9,1.8-16.5
			c-2.5-5.4-7.2-8.1-13.3-8.1c-2,0-2.6-0.7-2.6-2.6c0.1-4.6,0-9.2,0-13.9c0-8.6,0-8.5-8.5-8.4c-2.3,0-3,0.8-3,3
			c0.1,8.2,0.2,16.5,0,24.7c-0.1,3.4,0.4,5.7,4.3,6.3c1.4,0.2,2.7,1.2,3.9,2.1c4.5,3.3,4.3,8.8-0.4,11.8c-1.7,1.1-3.4,2.2-5.5,2.3
			c-2.5,0.1-2.3,1.7-2.3,3.4c0,2.8,2.5,2,3.9,2.6c4.9,1.8,7.5,4.4,7.5,7.8c0,3.6-2.7,6.6-7.6,8.2c-0.4,0.1-0.7,0.3-1.1,0.4
			c-2.2,0.1-2.9,1.2-2.8,3.4c0,2.1,0.8,2.8,2.7,3.1c2.2,0.4,4.3,1.3,6,2.8c3.6,3.1,3.6,8-0.1,11c-1.9,1.5-4,2.6-6.4,3
			c-1.8,0.3-2.2,1.1-2.2,2.7C39,149.2,38.9,153.3,38.9,157.5z M98.3,109.1c0,18.6,0,37.2,0,55.9c0,7.5,0,7.3,7.4,7.6
			c4,0.2,4.7-1.2,4.6-4.8c-0.1-37.7-0.1-75.5-0.1-113.2c0-8.2,0-8-8.3-8.2c-3.1-0.1-3.7,1-3.7,3.8C98.3,69.9,98.3,89.5,98.3,109.1z
			 M156.6,147.9c0,1.1,0,2.3,0,3.4c0.1,2.2-0.9,4.8,3.2,4.8c3.9,0,2.9-2.5,3-4.6c0.1-2.6,0.1-5.2,0-7.9c-0.1-1.8,0.5-2.8,2.4-3.6
			c8.7-3.6,11.6-12.7,6.5-20.7c-1.5-2.3-1.2-3.8,0.1-6c3.9-5.9,7.5-12.1,11.4-18.1c1.4-2.1,0.3-3.1-1.4-4.1
			c-1.6-0.9-2.8-1.7-4.2,0.6c-3.4,5.8-7.4,11.3-10.6,17.2c-1.8,3.4-4,4.4-7.7,4.2c-6.5-0.3-12.5,4.6-13.7,10.6
			c-1.4,6.9,1.7,13.3,8.2,15.9c2.3,0.9,3.2,2.1,2.9,4.4C156.5,145.4,156.6,146.7,156.6,147.9z M145.4,79.7
			c-0.1,6.7,4.5,12.8,10.6,14c7.5,1.5,14.5-1.8,17.1-8.1c2.6-6.3,0.6-14-5.5-16.9c-4.6-2.2-5.3-5.1-4.9-9.2c0.1-1.2-0.1-2.5,0-3.7
			c0.2-2.2-0.3-3.5-3-3.4c-2.4,0-3.4,0.8-3.2,3.3c0.2,2.2-0.1,4.5,0.1,6.7c0.2,2.7-0.6,4.3-3.3,5.4C148.3,70,145.5,74,145.4,79.7z"
			/>
		<path class="st1" d="M38.9,157.5c0-4.1,0.1-8.2,0-12.4c0-1.6,0.4-2.5,2.2-2.7c2.3-0.4,4.5-1.5,6.4-3c3.7-3,3.8-7.9,0.1-11
			c-1.8-1.5-3.9-2.4-6-2.8c-2-0.4-2.7-1.1-2.7-3.1c0-2.2,0.6-3.3,2.8-3.4c0.4,0,0.7-0.2,1.1-0.4c4.8-1.6,7.6-4.6,7.6-8.2
			c0-3.5-2.6-6-7.5-7.8c-1.4-0.5-3.8,0.2-3.9-2.6c0-1.7-0.2-3.2,2.3-3.4c2-0.1,3.8-1.3,5.5-2.3c4.7-3,4.9-8.5,0.4-11.8
			c-1.2-0.9-2.5-1.9-3.9-2.1c-3.9-0.6-4.4-2.9-4.3-6.3c0.2-8.2,0.1-16.5,0-24.7c0-2.3,0.7-3,3-3c8.5-0.2,8.5-0.3,8.5,8.4
			c0,4.6,0.1,9.2,0,13.9c0,1.9,0.5,2.6,2.6,2.6c6,0,10.8,2.8,13.3,8.1c2.6,5.6,2.4,11.4-1.8,16.5c-1.2,1.4-1.1,2.5,0,3.9
			c4.6,6.4,4.7,12.4,0.3,19c-1.2,1.8-0.3,2.6,0.5,3.9c4.4,7.1,3.4,15.1-2.3,20.5c-2.6,2.5-6,3.6-9.2,3.4c-3.4-0.2-3.1,1.4-3.1,3.5
			c0,6.4-0.1,12.7,0.1,19.1c0.1,2.6-0.7,3.4-3.4,3.4c-8.1,0-8.1,0.1-8.1-8C38.9,162.2,38.9,159.8,38.9,157.5z"/>
		<path class="st2" d="M98.3,109.1c0-19.6,0.1-39.2-0.1-58.9c0-2.8,0.6-3.9,3.7-3.8c8.3,0.1,8.3,0,8.3,8.2
			c0,37.7-0.1,75.5,0.1,113.2c0,3.6-0.7,5-4.6,4.8c-7.4-0.4-7.4-0.1-7.4-7.6C98.3,146.4,98.3,127.7,98.3,109.1z"/>
		<path class="st2" d="M156.6,147.9c0-1.2-0.1-2.5,0-3.7c0.2-2.3-0.6-3.4-2.9-4.4c-6.5-2.6-9.6-9-8.2-15.9c1.2-6,7.1-10.8,13.7-10.6
			c3.7,0.1,5.9-0.8,7.7-4.2c3.2-5.9,7.2-11.4,10.6-17.2c1.4-2.4,2.6-1.5,4.2-0.6c1.8,1,2.8,2,1.4,4.1c-3.8,6-7.5,12.1-11.4,18.1
			c-1.4,2.1-1.7,3.6-0.1,6c5.1,7.9,2.2,17-6.5,20.7c-1.9,0.8-2.4,1.8-2.4,3.6c0.1,2.6,0.1,5.2,0,7.9c-0.1,2,0.9,4.5-3,4.6
			c-4.1,0-3.1-2.6-3.2-4.8C156.6,150.2,156.6,149,156.6,147.9z M154.5,127.3c0.1,2.8,2.6,5.3,5.2,5.3c2.8,0,5.4-2.8,5.3-5.7
			c-0.1-2.9-2.8-5.5-5.7-5.3C156.7,121.8,154.4,124.5,154.5,127.3z"/>
		<path class="st3" d="M145.4,79.7c0.1-5.7,2.9-9.8,8-12c2.6-1.2,3.5-2.7,3.3-5.4c-0.2-2.2,0.1-4.5-0.1-6.7
			c-0.2-2.5,0.8-3.2,3.2-3.3c2.7,0,3.2,1.2,3,3.4c-0.1,1.2,0.1,2.5,0,3.7c-0.4,4.2,0.2,7.1,4.9,9.2c6.1,2.8,8,10.6,5.5,16.9
			c-2.6,6.3-9.6,9.7-17.1,8.1C149.9,92.5,145.3,86.5,145.4,79.7z M154.5,79.9c-0.1,3.1,1.8,5.3,4.7,5.6c2.9,0.2,5.6-2.1,5.8-5
			c0.1-3-1.9-5.3-4.8-5.5C156.9,74.8,154.6,76.8,154.5,79.9z"/>
		<path class="st4" d="M154.5,127.3c-0.1-2.8,2.2-5.5,4.8-5.7c2.9-0.2,5.6,2.4,5.7,5.3c0.1,2.9-2.5,5.7-5.3,5.7
			C157,132.6,154.5,130.1,154.5,127.3z"/>
		<path class="st4" d="M154.5,79.9c0.1-3.2,2.4-5.2,5.7-5c3,0.2,5,2.5,4.8,5.5c-0.1,2.9-2.8,5.3-5.8,5
			C156.2,85.3,154.3,83.1,154.5,79.9z"/>
	</g>
</g>
</svg>
