<?xml version="1.0" encoding="utf-8"?>
<!-- Generator: Adobe Illustrator 19.0.0, SVG Export Plug-In . SVG Version: 6.00 Build 0)  -->
<svg version="1.1" id="Layer_1" xmlns="http://www.w3.org/2000/svg" xmlns:xlink="http://www.w3.org/1999/xlink" x="0px" y="0px"
	 viewBox="0 0 166.5 168.8" style="enable-background:new 0 0 166.5 168.8;" xml:space="preserve">
<style type="text/css">
	.st0{fill:#F9C610;}
	.st1{fill:#AF8C0B;}
	.st2{fill:#020100;}
	.st3{fill:#F8C510;}
	.st4{fill:#F25523;}
</style>
<g>
	<g>
		<path class="st0" d="M157.5,84c0,15,0,30,0,45c0,15.3-13.3,28.5-28.7,28.5c-29.7,0-59.5,0-89.2,0c-14.1,0-26.6-11.2-28.5-25.1
			c-0.5-3.7-0.6-7.4-0.6-11.2c0-26.5-0.1-53,0-79.5c0-9.7,3.2-18.3,11-24.7c5.2-4.2,11.1-6.6,17.8-6.6c30,0,60,0,90,0
			c14.8,0,28.1,13.3,28.1,28.2C157.5,53.8,157.5,68.9,157.5,84z M58.6,109.6c0,6.2-0.2,12.5-0.1,18.7c0,3.9,2.6,6.8,6.5,6.8
			c12.7,0.1,25.5,0.1,38.2,0c3.7,0,6.3-2.7,6.4-6.4c0.1-6.4-0.1-12.7-0.1-19.1c0-19.5,0.1-39,0.1-58.4c0-5.2-2.4-7.8-7.5-8.3
			c-2.3-0.2-5.2,1-6.9-0.6c-1.7-1.6-0.5-4.5-0.6-6.8c-0.1-1.7-0.7-2.5-2.4-2.4c-5.4,0.1-10.7,0.1-16.1,0c-1.8,0-2.3,0.7-2.4,2.5
			c-0.1,2.3,1.1,5.2-0.6,6.8c-1.7,1.6-4.5,0.3-6.9,0.6c-4.7,0.5-7.5,3.1-7.5,7.2C58.5,69.9,58.6,89.8,58.6,109.6z"/>
		<path class="st1" d="M58.6,109.6c0-19.9-0.1-39.7-0.1-59.6c0-4.1,2.8-6.7,7.5-7.2c2.3-0.2,5.2,1,6.9-0.6c1.7-1.6,0.5-4.5,0.6-6.8
			c0.1-1.7,0.6-2.5,2.4-2.5c5.4,0.1,10.7,0.1,16.1,0c1.8,0,2.4,0.7,2.4,2.4c0.1,2.3-1.1,5.2,0.6,6.8c1.7,1.6,4.5,0.4,6.9,0.6
			c5.1,0.5,7.5,3.2,7.5,8.3c0,19.5-0.1,39-0.1,58.4C92.5,109.6,75.5,109.6,58.6,109.6z M84.2,64.6c-5.8,10.2-11.3,20-16.8,29.7
			c-1.3,2.4,0.1,2.5,1.9,2.5c10.1,0,20.2,0,30.3,0c2.4,0,2.5-0.8,1.5-2.6C95.5,84.5,89.9,74.7,84.2,64.6z"/>
		<path class="st2" d="M58.6,109.6c16.9,0,33.9,0,50.8,0c0.1,6.4,0.2,12.7,0.1,19.1c-0.1,3.7-2.7,6.4-6.4,6.4
			c-12.7,0.1-25.5,0.1-38.2,0c-3.8,0-6.4-2.9-6.5-6.8C58.4,122.1,58.5,115.9,58.6,109.6z"/>
		<path class="st3" d="M84.2,64.6c5.8,10.2,11.3,19.9,16.9,29.6c1,1.8,0.9,2.6-1.5,2.6c-10.1-0.1-20.2,0-30.3,0
			c-1.7,0-3.2-0.1-1.9-2.5C72.9,84.6,78.4,74.8,84.2,64.6z M84.1,86.4c1.8-3.9,1.6-7.7-0.1-11.5C83,78.7,82.9,82.6,84.1,86.4z"/>
		<path class="st4" d="M84.1,86.4c-1.2-3.8-1.2-7.7-0.1-11.5C85.7,78.6,85.9,82.5,84.1,86.4z"/>
	</g>
</g>
</svg>
